<?xml version="1.0" encoding="utf-8" ?>
<svg baseProfile="full" height="300mm" version="1.1" viewBox="0,0,200,300" width="200mm" xmlns="http://www.w3.org/2000/svg" xmlns:ev="http://www.w3.org/2001/xml-events" xmlns:xlink="http://www.w3.org/1999/xlink"><defs /><rect fill="#222222" height="300" width="200" x="0" y="0" /><text fill="#FFFFFF" style="font-size:12px; font-family:Arial; font-weight:bold;" x="10" y="20">Over 10km Runs</text><text fill="#FFFFFF" style="font-size:4px; font-family:Arial" x="10" y="280">ATHLETE</text><text fill="#FFFFFF" style="font-size:9px; font-family:Arial" x="10" y="290">malinkang</text><text fill="#FFFFFF" style="font-size:4px; font-family:Arial" x="120" y="280">STATISTICS</text><text fill="#FFFFFF" style="font-size:3px; font-family:Arial" x="120" y="285">Number: 7</text><text fill="#FFFFFF" style="font-size:3px; font-family:Arial" x="120" y="290">Weekly: 1.2</text><text fill="#FFFFFF" style="font-size:3px; font-family:Arial" x="141" y="285">Total: 74.3 km</text><text fill="#FFFFFF" style="font-size:3px; font-family:Arial" x="141" y="290">Avg: 10.6 km</text><text fill="#FFFFFF" style="font-size:3px; font-family:Arial" x="167" y="285">Min: 10.2 km</text><text fill="#FFFFFF" style="font-size:3px; font-family:Arial" x="167" y="290">Max: 11.7 km</text><polyline fill="none" points="31.893071000929922,63.20065131387673 32.077844311483204,62.53637284584693 32.03165098372847,61.9928714823327 32.12403763900511,61.388980235293275 32.4011976046022,60.96625583409332 33.09409751929343,60.48314170059166 34.895637296838686,60.36236307834042 35.44995722849853,60.060416367661674 36.55859709135257,59.87924823455978 37.621043626917526,59.93963762119529 41.13173652696423,59.6980800217716 41.824636441422626,59.75846943486249 44.041916167596355,59.39613282296341 44.50384944397956,59.21496439713519 46.028229255694896,59.15457490400877 48.10692899907008,58.61106906729401 49.723695466062054,58.36951068698545 50.231822070199996,58.12795216444647 52.40290846885182,58.00717285016435 53.97348160808906,57.70522440853529 54.98973481613211,57.463665495743044 55.68263473059051,57.40327574516414 60.34816082101315,56.61820818207343 64.87510692887008,56.31625871991855 66.2609067580197,56.43703853143961 66.76903336169198,56.31625871991855 66.86142001696862,56.13508893613471 66.63045337889344,55.41040900204098 66.39948674058542,55.28962888891692 66.21471343026496,55.28962888891692 65.05988023942336,55.59157910547219 62.88879384077154,55.77274912883877 60.48674080404453,56.43703853143961 59.470487596001476,56.557818307424895 58.962360992096364,56.4974284239579 57.899914456764236,56.79937775290455 57.76133447396569,56.73898790488602 56.92985457670875,56.92015742242802 54.666381522780284,57.161716654896736 53.14200171059929,57.58444497000892 50.73994867410511,57.82600381175871 48.3378956373781,58.188341808418045 47.04448246373795,58.248731443454744 42.7023096664343,58.7318482043047 39.930710008367896,59.27535388121032 38.036783575545996,59.33574335643789 35.81950384937227,59.93963762119529 31.615911035099998,60.42275239393348 29.90675791283138,60.78508810067433 28.520958083681762,60.84547735415981 27.643284858902916,60.664309567189775 25.70316509855911,60.84547735415981 24.686911890516058,61.20781268822611 23.116338750813156,61.32859106169781 21.40718562854454,61.81170420127455 18.35842600511387,62.35520580448792 13.277159965829924,63.98570630073664 13.046193327754736,64.1064838579332 13.0,64.22726137959398 13.138579982798547,64.58959373144899 13.461933276383206,64.64998242584988 14.247219846118242,64.28765012702206 16.0487596236635,63.74415107991081 18.173652694560587,63.261040212382795 20.483319076243788,63.019484565389575 21.222412318224087,62.71753980725771 22.423438836820424,62.59676184185082 23.532078699674457,61.9928714823327 24.317365269409493,62.23442773264833 24.594525235239416,62.23442773264833 25.472198460251093,61.9928714823327 28.33618477312848,61.63053684064653 29.537211291724816,61.20781268822611 30.599657827056944,61.268201879400294 31.939264328218997,60.96625583409332 34.57228400348686,60.48314170059166 35.634730538818985,60.42275239393348 36.88195038493723,60.241584420669824 38.12917023082264,60.18119507844676 39.37639007694088,59.93963762119529 41.50128314783797,59.87924823455978 42.563729683635756,59.75846943486249 45.05816937563941,59.27535388121032 47.04448246373795,58.97340637157322 48.661248930729926,58.55067948560463 54.25064157391898,57.82600381175871 55.68263473059051,57.58444497000892 58.962360992096364,57.222106440749485 60.117194182937965,56.98054724378744 62.93498716852628,56.92015742242802 63.76646706601605,56.859767592017306 64.6441402907949,56.67859804775799 65.3832335327752,56.67859804775799 66.72284003417008,56.43703853143961 66.86142001696862,56.13508893613471 66.72284003417008,55.77274912883877 66.5380667236168,55.41040900204098 66.02994011947885,55.41040900204098 64.45936698024161,55.77274912883877 62.334473909344524,55.953919072577264 60.48674080404453,56.4974284239579 58.82378100929782,56.61820818207343 50.462788708275184,57.82600381175871 47.090675791027024,58.12795216444647 43.90333618479781,58.61106906729401 42.147989734774455,58.7318482043047 39.88451668084599,59.15457490400877 37.7596236099489,59.33574335643789 36.697177074383944,59.75846943486249 35.542343883542344,60.00002699898323 33.5560307954438,60.12080572746345 31.431137724546716,60.48314170059166 29.49101796397008,60.96625583409332 26.44225834030658,60.48314170059166 24.594525235239416,61.08703427884029 22.88537211273797,61.32859106169781 20.945252352394164,61.93248239762033 19.651839178986847,62.11364962521475 17.9426860564854,62.53637284584693 13.692899914458394,63.86492870809161 13.0,64.22726137959398 13.230966638075188,64.52920502840425 13.41573994862847,64.52920502840425 13.970059880055487,64.3480388657481 16.14114627894014,63.80453989832313 18.45081266039051,63.32142910180846 19.975192472105846,63.07987349049654 20.806672369362786,62.83831773730344 22.377245509065688,62.59676184185082 23.347305389121175,62.05326055831392 23.6244653549511,61.93248239762033 24.7792985457927,62.05326055831392 25.9341317366343,61.9928714823327 28.613344738958403,61.57014770258684 29.444824636215344,61.20781268822611 31.29255774151534,61.14742348791333 34.52609067596495,60.54353099828586 36.32763045327738,60.30197375404532 37.71343028219417,60.30197375404532 39.88451668084599,60.12080572746345 40.43883661250584,59.93963762119529 42.51753635588102,59.81885883928044 44.50384944397956,59.39613282296341 46.62874251510948,59.09418540203478 48.984602224081755,58.55067948560463 56.83746792119928,57.463665495743044 58.454234388424084,57.161716654896736 61.04106073547155,56.859767592017306 66.07613344723359,56.67859804775799 66.81522668944672,56.557818307424895 67.0,56.37664863016107 66.67664670664817,55.65196912208921 66.49187339609489,55.47079904543352 66.21471343026496,55.41040900204098 65.05988023942336,55.71235912994598 63.07356715132482,55.89352910016896 60.02480752766132,56.67859804775799 54.20444824616425,57.28249621792929 49.16937553440221,58.06756251177285 45.05816937563941,58.36951068698545 43.626176218967885,58.61106906729401 42.794696321710944,58.61106906729401 40.669803250581026,59.03379589127144 38.40633019665256,59.33574335643789 36.697177074383944,59.81885883928044 35.17279726243578,60.060416367661674 29.07527801534161,60.905866598535795 27.550898203626275,60.96625583409332 26.396065012551844,60.78508810067433 25.887938408646733,60.84547735415981 23.162532078567892,61.268201879400294 21.17621899046935,61.9928714823327 19.467065868200734,62.11364962521475 16.46449957229197,63.019484565389575 13.32335329358466,64.04609508390422 13.092386655276641,64.16687262314372 13.092386655276641,64.40842759545194 13.32335329358466,64.64998242584988 13.600513259181753,64.64998242584988 14.385799828683957,64.28765012702206 16.325919589493424,63.86492870809161 17.29597946954891,63.502595717058284 20.113772454904392,63.019484565389575 22.65440547489561,62.475983840966364 22.97775876824744,62.35520580448792 23.347305389121175,61.9928714823327 23.6244653549511,61.87209330382757 24.594525235239416,62.17403868335532 27.227544910041615,61.75131508996128 28.9828913602978,61.268201879400294 31.431137724546716,61.026645061007 32.30881094955839,60.84547735415981 33.83319076127373,60.724698838283075 34.34131736517884,60.60392028730712 35.49615055578761,60.54353099828586 36.88195038493723,60.18119507844676 38.72968349023722,60.241584420669824 40.53122326778248,59.93963762119529 41.77844311366789,59.93963762119529 43.07185628754087,59.75846943486249 44.91958939260803,59.27535388121032 46.9059024809394,59.03379589127144 48.06073567154817,58.671458640135825 49.076988879358396,58.49028989486396 50.60136869107373,58.36951068698545 52.864841744769365,57.88639349996811 56.421727972337976,57.463665495743044 57.16082121478394,57.28249621792929 59.23952095792629,57.0409370562993 60.117194182937965,56.859767592017306 63.81266039330512,56.79937775290455 65.3832335327752,56.557818307424895 66.67664670664817,56.61820818207343 66.95380667224526,56.43703853143961 66.72284003417008,55.65196912208921 66.5380667236168,55.41040900204098 66.2609067580197,55.41040900204098 65.1060735671781,55.77274912883877 62.103507271269336,56.07469899053103 60.39435414876789,56.61820818207343 56.652694610878825,57.161716654896736 53.83490162529051,57.40327574516414 49.12318220711313,58.188341808418045 47.36783575685695,58.248731443454744 46.351582549279556,58.429900295392144 45.10436270292848,58.429900295392144 43.25662959786132,58.671458640135825 40.577416595537215,59.15457490400877 38.82207014528103,59.33574335643789 35.311377245467156,60.060416367661674 31.47733105230145,60.42275239393348 29.90675791283138,60.905866598535795 28.105218135053292,61.026645061007 26.257485029986128,60.905866598535795 24.594525235239416,61.32859106169781 23.39349871687591,61.268201879400294 21.591958939330652,61.87209330382757 17.434559452580288,62.7779287766607 13.230966638075188,64.1064838579332 13.046193327754736,64.28765012702206 13.230966638075188,64.64998242584988 13.508126603905112,64.71037111108308 14.201026518363506,64.28765012702206 16.002566295908764,63.74415107991081 20.113772454904392,63.07987349049654 22.007698887726292,62.65715082900715 23.763045337982476,61.93248239762033 24.04020530357957,61.93248239762033 24.502138579962775,62.17403868335532 25.010265183867887,62.17403868335532 26.257485029986128,61.93248239762033 28.844311377266422,61.63053684064653 30.045337895629928,61.32859106169781 32.12403763900511,61.08703427884029 34.61847733100876,60.60392028730712 37.89820359274745,60.36236307834042 39.37639007694088,60.00002699898323 42.60992301092483,59.81885883928044 44.457656116224825,59.39613282296341 45.935842600418255,59.27535388121032 48.753635585773736,58.61106906729401 49.816082121571526,58.49028989486396 51.20188195025548,58.188341808418045 52.125748503021896,58.06756251177285 53.188195038354024,58.00717285016435 59.054747647605836,57.0409370562993 60.1633875106927,56.98054724378744 60.99486740818247,57.0409370562993 65.1060735671781,56.557818307424895 66.21471343026496,56.73898790488602 66.86142001696862,56.67859804775799 67.0,56.557818307424895 66.81522668944672,55.59157910547219 66.63045337889344,55.35001894994639 66.3071000855416,55.28962888891692 65.47562018828467,55.59157910547219 64.08982035913505,55.71235912994598 62.0573139435146,56.07469899053103 60.625320786843076,56.4974284239579 58.03849443956278,56.98054724378744 55.72882805834524,57.161716654896736 51.34046193328686,57.82600381175871 49.8622754488606,57.94678317953367 48.568862275453284,58.188341808418045 46.53635585960001,58.248731443454744 43.4414029084146,58.7318482043047 41.316509837284684,58.91301684308564 37.020530367968604,59.6980800217716 35.03421727963723,60.18119507844676 33.46364414039999,60.18119507844676 32.493584259878844,60.42275239393348 30.96920444839634,60.48314170059166 30.23011120618321,60.724698838283075 29.49101796397008,60.664309567189775 28.75192472175695,60.905866598535795 26.95038494421169,60.96625583409332 25.564585115294904,61.14742348791333 24.317365269409493,61.20781268822611 23.254918734077364,61.14742348791333 21.638152266619727,61.87209330382757 20.621899059042335,62.17403868335532 19.882805817062035,62.23442773264833 19.097519247327,62.53637284584693 18.219846022315323,62.65715082900715 14.201026518363506,63.86492870809161 13.184773310553282,64.04609508390422 13.092386655276641,64.22726137959398 13.461933276383206,64.58959373144899 13.73909324221313,64.58959373144899 14.339606501162052,64.3480388657481 16.603079555323347,63.683762252592715 17.896492728730664,63.502595717058284 22.746792129939422,62.475983840966364 23.763045337982476,61.9928714823327 24.54833190748468,62.23442773264833 24.825491873314604,62.17403868335532 27.042771599721164,61.81170420127455 28.798118049511686,61.268201879400294 30.276304533705115,61.08703427884029 31.431137724546716,61.14742348791333" stroke="#4dd2ff" stroke-linecap="round" stroke-linejoin="round" stroke-width="0.5"><title>2023-10-28 10.3km</title><desc>10117898346</desc></polyline><polyline fill="none" points="140.09960159333423,67.83457541355165 139.99203187250532,66.35915107349865 139.0776892430149,66.00785889392137 138.00199203193188,65.30527376214741 135.15139442193322,62.00310983727104 134.50597609532997,61.019482139730826 134.23705179267563,60.45740826259134 133.86055776895955,59.262999083672184 133.1613545815926,57.78754833867424 133.0,56.80391198353027 133.1075697208289,54.83663321271888 133.0,54.34481225730269 133.0,53.29090850951616 134.23705179267563,48.93474841566058 135.31274900399148,46.96743732143659 136.28087649377994,45.77299450011924 137.3565737050958,44.0164555280935 138.10956175276078,43.313838135421975 139.40039840643294,42.61121971186367 142.68127490044571,41.908600257651415 141.60557768912986,41.55729014379904 145.20916334656067,42.04912423080532 145.74701195186935,41.908600257651415 146.9840637447778,41.8383382554166 149.88844621484168,42.33017205391661 151.0179282866884,42.259910113411024 152.09362549800426,42.04912423080532 154.29880478070118,41.697814220242435 155.32071713148616,41.27624186730827 157.36454183235765,40.01152258203365 158.33266932261176,39.37916168695665 159.99999999976717,38.04417483328143 160.91434262949042,37.552336633292725 162.95816733059473,36.70918425833224 164.57171314721927,36.2173446874076 166.66932270908728,36.07681900274474 167.69123505963944,35.86603039881447 170.2729083665181,35.16340104860137 171.402390438132,35.02287505482673 174.36055776895955,34.03919194423361 176.0278884463478,33.758139255747665 177.5338645419106,35.514715852652444 177.91035856562667,36.990235214849235 178.6095617529936,40.64388264203444 178.87848605564795,41.48702809019596 179.14741035853513,43.17331453299266 179.57768924324773,44.78933346940903 179.79282868513837,45.28116423729807 180.7071713146288,49.496835815371014 181.0836653385777,50.691269349714275 181.298804780934,51.955960433289874 182.051792828599,54.9068933079252 182.2669322709553,57.50650958609185 183.12749003991485,59.68455560458824 183.39641434280202,61.019482139730826 183.88047808757983,61.93285078302142 184.74103585653938,67.27250953408657 185.17131474101916,69.1694792334165 185.22509960155003,69.73154288670048 185.11752988072112,70.78541045883321 184.84860557760112,72.82288118966972 184.68725099600852,73.38494055581396 184.31075697229244,74.43880008943961 183.77290836628526,75.4926573043922 183.18127490021288,76.3357414068305 182.4282868525479,77.10856719710864 181.24501992040314,78.09216185400146 179.84661354590207,79.00549794087419 178.87848605564795,79.56755005204468 176.72709163324907,80.27011426331592 174.57569721108302,80.76190859821509 169.84262948203832,81.6049834259029 165.701195219066,82.72908088783151 164.7330677290447,82.79933689170866 161.29083665343933,83.92343155070557 159.13944223104045,84.20445480325725 155.6434262949042,84.90701221325435 152.63147410354577,85.8905908561137 150.0498007966671,84.69624509848654 149.45816733059473,81.46447105781408 148.92031872505322,79.49729357426986 148.75896414346062,78.44344517041463 148.49003984057344,77.24908084317576 148.11354581662454,74.93060041160788 147.6294820716139,73.38494055581396 147.52191235055216,72.82288118966972 146.17729083658196,70.08283233497059 145.478087649215,69.38025318071595 143.54183266940527,68.25612439023098 143.0577689241618,68.25612439023098 141.60557768912986,67.41302606576937 137.84063745010644,68.32638251685421 134.77490039821714,53.64221001660917 137.7330677290447,67.90483360196231 138.64741035853513,67.69405900532729 137.62549800798297,68.32638251685421 140.529880477814,67.48328431628761 140.42231075675227,65.7970834626467 139.4541832669638,64.95398080960149 138.8625498006586,64.67294626231887 137.84063745010644,63.900100406608544 135.36653386428952,60.94922294100979 134.3446215139702,58.911701699573314 133.75298804789782,56.73365216667298 133.64541832637042,54.415072424773825 133.80677290819585,52.09648145863321 134.2908366532065,50.41022643315955 134.93625498004258,48.72396547079552 136.17330677295104,46.686392219678964 137.24900398403406,45.35142573443591 139.4541832669638,43.805670418572845 140.529880477814,43.17331453299266 142.8426294818055,42.33017205391661 144.02589641418308,42.04912423080532 145.20916334656067,41.908600257651415 146.44621513946913,41.8383382554166 147.73705179290846,41.978862249379745 149.61952191218734,42.33017205391661 153.16932270908728,41.978862249379745 156.45019920310006,40.573620454524644 157.47211155388504,39.94126030165353 160.43027888447978,37.90364968482754 162.0438247011043,37.13076063137851 167.31474103592336,35.86603039881447 168.551792828599,35.44445291237207 173.17729083634913,34.53103375210776 176.08167330664583,33.828402443410596 177.80278884456493,35.02287505482673 178.23306772881187,36.70918425833224 178.17928286851384,37.34154867861071 178.50199203193188,38.32522500632331 178.71713147405535,38.88732485799119 179.03984063724056,40.08178485222743 179.30876494012773,43.103052716498496 179.47011952195317,43.73540869468707 179.68525896407664,45.63247161952313 180.43824701197445,47.59978819725802 180.43824701197445,48.021354984055506 180.9223107569851,50.41022643315955 181.51394422305748,52.02622095120023 183.12749003991485,60.597926793736406 184.20318725099787,64.04061792767607 184.31075697229244,65.16475661206641 185.06374501995742,68.53715683508199 185.17131474101916,69.66128496619058 184.9561752988957,72.05004848458339 184.31075697229244,74.29828561871545 183.82669322704896,75.4224002287956 183.50398406363092,75.98445654450916 181.56772908358835,78.16241853800602 180.1693227093201,79.1460110306507 177.64143426297233,80.55113965948112 176.56573705165647,80.8321648905112 175.3824701195117,80.8321648905112 174.25298804789782,81.04293370578671 170.91832669312134,82.09677639009897 163.44223107560538,83.78291986256954 161.6673306771554,84.34496636776021 157.74103585653938,84.76650081385742 156.71912350598723,84.97726789768785 154.94422310730442,85.60956859288854 152.09362549800426,86.1716129546985 150.1035856574308,84.69624509848654 149.7270916334819,83.64240813319338 148.92031872505322,79.2162675599684 148.38247011927888,76.96805350977229 148.11354581662454,75.28188604689785 147.25298804789782,72.7526237226266 146.93027888447978,72.3310787033115 146.49999999976717,71.20695683828671 145.85458167316392,70.08283233497059 145.10159362549894,69.23973722627852 143.380478087347,67.76431721454719 140.529880477814,65.72682496500784 138.97011952172033,64.81346355666756 137.67928286851384,63.82984163067886 136.81872509955429,62.91647660484887 135.68924302770756,61.511296240991214 134.77490039821714,59.965593079075916 134.1294820716139,58.41988492885139 133.80677290819585,56.59313250158448 133.64541832637042,53.64221001660917 133.86055776895955,51.955960433289874 134.0756972108502,50.83179074610234 134.50597609532997,49.70761842036154 134.99003984057344,48.6537044683937 135.850597609533,47.24848225832102 136.28087649377994,46.897176061494974 137.3027888443321,45.56221016382915 138.64741035853513,44.508287089673104 141.17529880465008,42.962529052456375 141.71314741042443,42.75174347902066 143.91832669312134,42.18964816289372 146.17729083658196,42.04912423080532 150.21115537825972,42.33017205391661 152.47011952195317,41.978862249379745 154.72908366541378,41.48702809019596 156.66533864522353,40.64388264203444 159.89243027870543,38.254962478618836 160.91434262949042,37.6928618849779 161.99003984057344,37.271286006609444 175.9741035855841,33.687876057985704 177.58764940220863,34.74182294381899 177.58764940220863,35.44445291237207 178.0717131474521,37.552336633292725 178.39442231087014,40.08178485222743 179.201195219066,42.259910113411024 179.47011952195317,43.52462346147513 179.47011952195317,44.15697888302384 179.68525896407664,45.35142573443591 179.84661354590207,45.913517339737155 180.06175298825838,47.52952703018673 181.46015936229378,52.79908596698078 181.6752988048829,53.92325103664189 182.37450199201703,56.241833159234375 182.4820717133116,57.365990148013225 182.75099601596594,58.41988492885139 183.39641434280202,60.52766753337346 183.5577689241618,62.21388693814515 184.0956175297033,63.82984163067886 184.68725099600852,67.34276780518121 184.9561752988957,68.53715683508199 185.06374501995742,70.78541045883321 184.90239043836482,71.97979090397712 184.68725099600852,72.61210875739926 184.31075697229244,74.29828561871545 183.82669322704896,75.35214314309997 182.53585657360964,77.24908084317576 181.40637450199574,78.2326752115041 187.0,82.65882487385534 181.24501992040314,78.30293187490315 180.00796812749468,79.28652407895424 177.4800796811469,80.48088332585758 172.10159362549894,81.53472724699532 174.0378486055415,81.25370242807548 170.38047808757983,82.16703248673002 168.33665338647552,82.44805676973192 164.03386454167776,83.64240813319338 161.23705179290846,84.13419900549343 159.67729083658196,84.76650081385742 157.41832669312134,85.11777923547197 154.62151394411922,85.67982417435269 153.06175298802555,86.10135744552827 151.98605577694252,86.31212394198519 150.1035856574308,84.83675651872181 149.56573705165647,81.95626416621963 149.08167330687866,79.91883228646475 148.27490039844997,75.7034284689289 147.7908366532065,74.15777110718773 146.71513944212347,71.62850284692831 144.94023904390633,68.67767299577827 177.6952191235032,86.10135744552827 140.85258964146487,68.04534994819551 137.78685258934274,68.3966406333202" stroke="#4dd2ff" stroke-linecap="round" stroke-linejoin="round" stroke-width="0.5"><title>2022-08-17 10.5km</title><desc>9361519812</desc></polyline><polyline fill="none" points="43.425041186157614,104.99777864382486 45.15980230644345,104.76517471839907 48.89621087303385,104.1255132179067 50.76441515656188,104.1255132179067 51.83196046133526,103.77660650896723 52.943986820522696,103.60215303930454 54.14497528830543,103.54400186552084 55.16803953866474,103.36954829312162 56.85831960476935,102.96248965838458 57.97034596372396,102.84618711459916 60.90609555202536,103.07879216838046 61.439868204295635,103.02064091758803 62.062602965394035,101.27609942515846 60.59472817112692,101.9739169451932 57.97034596372396,102.61358192408807 56.50247116968967,102.67173323451425 54.45634266897105,103.07879216838046 53.34431630978361,103.07879216838046 52.810543657513335,103.19509464397561 52.054365733172745,103.48585068315151 48.317957166349515,104.06736212107353 46.49423393746838,104.00921101580025 44.67051070835441,104.06736212107353 42.84678747924045,104.35811751955771 40.6227347610984,104.76517471839907 37.46457990119234,105.1140805555624 35.15156507422216,105.81189130671555 32.74958813842386,105.7537404577015 27.7232289952226,106.56785156493424 25.36573311360553,106.56785156493424 24.476112026255578,106.80045443080598 22.429983525536954,106.68415301517234 20.650741350837052,106.91675581250456 18.693574958946556,107.38196099727065 17.49258649069816,107.96346670895582 16.336079077329487,108.2542192444671 15.713344316231087,108.31236972584156 13.978583195945248,108.83572367421584 14.023064250592142,109.94057973637246 15.579901153221726,109.53352786187315 17.181219110498205,108.89387407011236 18.471169686876237,108.60312200480257 20.161449752980843,108.02161723311292 21.807248764205724,107.78901508511626 24.431630972074345,107.20750911702635 25.49917627661489,107.14935847328161 26.922570016467944,107.38196099727065 29.28006589761935,106.9749064903881 29.947281713364646,106.80045443080598 33.683690279955044,106.62600229427335 38.39868204295635,106.2770977904147 38.932454695226625,106.102645423176 41.37891268543899,105.69558960013092 42.4909390443936,105.23038243272458 44.00329489284195,104.93962767536868 46.1383855023887,104.70702371554216 47.87314662290737,104.76517471839907 49.830313014797866,104.5907216843334 50.27512355847284,104.64887270415784 52.810543657513335,103.89290877949679 54.85667215823196,103.71845536088222 55.701812191167846,103.54400186552084 57.52553542028181,103.48585068315151 58.01482701813802,103.31139708519913 58.77100494247861,103.31139708519913 59.17133443150669,103.07879216838046 60.77265238878317,103.07879216838046 62.50741350906901,102.72988453644211 62.46293245488778,101.45055392049835 60.28336079092696,102.09021974555799 59.12685337732546,102.49727927753702 57.436573311453685,102.90433839094476 52.72158154845238,103.25324586889474 51.075782536994666,103.48585068315151 49.02965403627604,103.71845536088222 46.449752883054316,104.1255132179067 46.049423393793404,104.06736212107353 44.40362438210286,104.1255132179067 43.60296540358104,104.24181538567063 41.46787479403429,104.29996645692154 40.177924217423424,104.53257065586513 38.35420098854229,104.88147669812315 37.64250411838293,105.1722314984072 36.441515650833026,105.28853335851454 34.39538714988157,105.81189130671555 32.83855024701916,105.7537404577015 32.037891268730164,105.98634380218573 31.192751235561445,106.04449461685726 30.703459637472406,105.92819297889946 30.12520593078807,105.98634380218573 29.10214168042876,106.39339932583971 27.856672157999128,106.56785156493424 26.032948929117993,106.56785156493424 25.098846787353978,106.68415301517234 23.14168039546348,106.62600229427335 21.718286655610427,106.74230372725287 20.784184513846412,107.20750911702635 19.89456342649646,107.20750911702635 18.11532125226222,107.38196099727065 16.914332784246653,107.9053161762422 14.779242174699903,108.37052019868861 13.222405271837488,109.18462592177093 13.800658978521824,109.88242949428968 15.224052718142048,109.47537755998201 15.579901153221726,109.30092660273658 17.181219110498205,108.89387407011236 19.538714991649613,108.89387407011236 22.163097199285403,108.42867066295003 24.87644151551649,107.55641280044802 28.345963756320998,107.55641280044802 29.10214168042876,107.38196099727065 29.546952223870903,107.20750911702635 30.792421746300533,106.85860512594809 31.593080724822357,106.68415301517234 32.74958813842386,106.74230372725287 35.46293245465495,106.56785156493424 36.574958813842386,106.68415301517234 37.37561779259704,106.62600229427335 38.97693574964069,106.16079622067627 40.7116968696937,105.92819297889946 41.556836902862415,105.57928785969852 43.91433278424665,105.05592960395734 45.560131795704365,104.99777864382486 49.429983525304124,104.29996645692154 51.74299835273996,104.29996645692154 54.945634266827255,103.71845536088222 55.21252059307881,103.71845536088222 56.85831960476935,103.19509464397561 57.74794069188647,103.07879216838046 58.99341021408327,102.72988453644211 60.550247117178515,102.84618711459916 61.39538714988157,102.67173323451425 62.24052718281746,102.32282524358016 63.66392092243768,103.07879216838046 63.574958813842386,104.70702371554216 63.88632619427517,105.57928785969852 64.46457990119234,108.2542192444671 64.68698517302983,110.63838197567384 65.35420098854229,114.24367394048022 65.53212520596571,115.93000890593976 66.55518945632502,122.15194125685957 66.68863261956722,124.71046449040296 66.95551894558594,125.93157202008297 67.0,126.6874938402907 66.68863261956722,127.85044766726787 65.79901153198443,128.43192329903832 64.33113673818298,128.66451331260032 63.48599670501426,128.89710318934522 62.685337726492435,129.0133980762912 61.75123558472842,129.71116668125615 60.41680395370349,130.06005052221008 59.927512356080115,129.94375594283338 59.17133443150669,130.00190323678544 58.10378912696615,130.87411162175704 57.080724876374006,131.28114154341165 55.87973640859127,131.5137298820191 54.41186161455698,132.0370531444205 51.83196046133526,132.79296330129728 51.38714991766028,132.79296330129728 50.00823723222129,133.49072524139774 48.58484349260107,134.36292593658436 46.40527182864025,134.76995226967847 39.73311367374845,136.68878505783505 38.1317957167048,136.9213702181005 36.97528830333613,137.27024770216667 35.90774299832992,137.44468632878852 34.61779242171906,137.79356335150078 29.457990115275607,138.72390057487064 28.8797364088241,137.79356335150078 28.12355848425068,135.99102875686367 26.789126853458583,133.8396057501668 26.344316309783608,133.25813806484803 24.209225700004026,129.8856086403248 23.36408566730097,128.25748069936526 22.25205930811353,126.6874938402907 20.561779242008924,123.83824251935584 19.805601317901164,122.50083176288172 19.22734761121683,121.10526789311552 18.73805601289496,120.40748411239474 18.337726523866877,119.70969910125132 17.84843492601067,119.12821065200842 16.647446457995102,117.4418893166876 15.935749588301405,116.10445694043301 15.490939044393599,115.4648137713084 14.8682042832952,114.0692250856373 13.355848434846848,111.68508302705595 13.0,110.98728263389785 13.75617792410776,109.94057973637246 15.224052718142048,109.47537755998201 16.780889621004462,108.66127243504161 17.537067545345053,108.54497156612342 18.560131795704365,108.77757326961728 19.49423393746838,108.77757326961728 20.3838550245855,108.66127243504161 22.785831960383803,108.02161723311292 24.476112026255578,107.4401116068766 25.232289950363338,107.26565975221456 26.433278418611735,107.38196099727065 27.189456342719495,107.26565975221456 28.034596375422552,107.55641280044802 28.835255354177207,107.38196099727065 29.680395387113094,106.91675581250456 30.570016474463046,106.74230372725287 32.66062602959573,106.62600229427335 34.12850082363002,106.39339932583971 37.01976935728453,106.2770977904147 38.7545304778032,106.33524856250733 39.59967051073909,106.21894700973644 40.800658978521824,106.102645423176 43.113673805492,105.52113697666209 44.181219110498205,105.1722314984072 47.3838550245855,104.5907216843334 50.76441515656188,104.24181538567063 52.36573311360553,103.95105990194133 55.21252059307881,103.77660650896723 57.48105436586775,103.31139708519913 57.74794069188647,103.31139708519913 58.548599670408294,103.02064091758803 59.26029654033482,102.90433839094476 60.41680395370349,102.96248965838458 62.15156507422216,102.78803582987166 62.59637561766431,102.84618711459916 63.441515650833026,103.25324586889474 63.61943986848928,103.77660650896723 63.70840197708458,104.76517471839907 64.01976935751736,106.21894700973644 64.33113673818298,108.60312200480257 64.24217462935485,110.28948100988055 64.42009884677827,111.51063304403215 65.62108731479384,116.62780058264616 65.66556836897507,117.61633668467402 66.06589785823599,119.76784789923113 66.02141680405475,120.69822750391904 66.4662273474969,122.61712852976052 66.59967051073909,123.78009431960527 66.59967051073909,124.53602025005966 67.0,127.32711886812467 66.68863261956722,127.96674286210327 66.02141680405475,128.25748069936526 65.44316309713759,128.3737757744384 64.42009884677827,128.78080826808582 63.574958813842386,128.89710318934522 60.95057660643943,129.59487199923024 58.948929159902036,130.52522849844536 57.2141680396162,130.81596445586183 56.41350906086154,131.1067001997435 54.85667215823196,131.8044651133241 52.76606260286644,132.32778799103107 51.65403624391183,132.85111017670715 49.296540362527594,133.43257846013876 47.78418451407924,134.07219258506666 47.072487644152716,134.47921921717352 44.98187808902003,135.11883165041218 43.78088962100446,135.64215014496585 41.91268533770926,135.99102875686367 40.800658978521824,136.45619976092712 38.176276771118864,136.9795164867246 37.5090609556064,137.03766274696682 36.61943986825645,137.38654012835468 34.08401976944879,137.79356335150078 31.85996705107391,138.25873223665985 30.39209225703962,138.43317042756826 29.680395387113094,138.43317042756826 29.23558484367095,138.14244006649824 26.967051070882007,134.42107258114265 26.344316309783608,133.60701877865358 25.76606260286644,132.5603757146455 25.410214168019593,132.09520013083238 24.164744645822793,129.3622825325292 23.14168039546348,128.25748069936526 22.25205930811353,126.51305047151982 19.36079077445902,122.03564435316366 17.581548599526286,118.72116822906537 16.780889621004462,117.90708212702884 15.13509060954675,114.76702004368417 13.088962108595297,111.33618298423244 13.133443163242191,110.81283234318835 13.6227347610984,110.11503041163087 14.334431631024927,109.70797871661489 15.13509060954675,109.35907693035551 16.425041186157614,109.01017483664327 18.960461284965277,108.77757326961728 19.850082372315228,108.60312200480257 20.650741350837052,108.2542192444671 21.807248764205724,108.0797677487717 22.74135090620257,108.71942285660771 23.00823723222129,109.53352786187315 23.719934102147818,110.81283234318835 24.74299835250713,112.09213268812164 25.321252059191465,113.13882989386912 26.210873146774247,114.35997313432745 27.01153212529607,115.93000890593976 27.322899505728856,116.3370542001503 28.39044481050223,118.72116822906537 29.28006589761935,120.23303797497647 30.39209225703962,121.45415932204924 31.37067545298487,122.26823812635848 32.927512356080115,123.83824251935584 36.53047775942832,126.51305047151982 37.59802306443453,126.10601564520039 39.11037891265005,125.23379675036995 40.57825370691717,124.65231641891296 42.71334431623109,123.60564966901438 44.047775947256014,123.37305668188492 44.67051070835441,123.08231525591691 47.072487644152716,121.68675343712675 47.428336078999564,120.23303797497647 46.76112026371993,117.5581875705684 45.070840197848156,114.9414685908996 44.49258649093099,113.7784768230631 43.86985172959976,112.96438055179897 43.60296540358104,112.26658241462428 42.62438220763579,110.69653210663819 41.95716639212333,110.98728263389785 41.289950576843694,109.18462592177093 38.71004942338914,108.02161723311292 35.952224052743986,107.9053161762422 33.90609555202536,108.13791825581575 33.550247117178515,108.37052019868861 33.01647446467541,108.95202445753966 32.97199341002852,109.53352786187315 32.39373970357701,110.17318061957485 32.0823723229114,111.91768288452295 32.39373970357701,112.67363147751894 32.74958813842386,114.76702004368417 33.194398682098836,115.40666434096056 33.50576606253162,116.10445694043301 33.59472817135975,117.15114353253739 34.12850082363002,118.72116822906537 34.66227347613312,119.70969910125132 37.01976935728453,118.89561503301957 37.820428336039186,118.72116822906537 39.4662273474969,118.02338024412165 39.91103789117187,117.73263488715747 40.444810543442145,116.22075558750657 42.71334431623109,114.5925714194309 43.46952224033885,114.12737471234868 43.6474464579951,113.31327915893053 43.202635914320126,112.6154816368944 42.446457990212366,110.87098244851222 42.35749588138424,109.99872997010243 42.09060955513269,109.35907693035551 40.57825370691717,108.42867066295003 37.59802306443453,108.02161723311292 36.84184513986111,108.02161723311292 34.70675453054719,108.31236972584156 32.794069192837924,109.24277626659023 32.304777594516054,110.11503041163087 32.438220757758245,112.7899311328365 33.01647446467541,115.4648137713084 33.37232289952226,116.27890489815036 33.41680395393632,116.62780058264616 34.35090609546751,119.36080613432568 35.50741350906901,119.53525265623466 37.553542009787634,118.66301927724271 38.71004942338914,118.02338024412165 39.91103789117187,117.6744857900485 40.311367380432785,117.26744187169243 40.40032948949374,116.56965132319601 40.26688632601872,116.3370542001503 40.97858319594525,116.04630760414875 42.4019769357983,115.1740665344114 43.46952224033885,114.35997313432745 43.291598023148254,113.13882989386912 42.09060955513269,111.80138297291705 40.311367380432785,109.12647556862794 39.91103789117187,109.5916781553824 37.064250411931425,109.35907693035551" stroke="#4dd2ff" stroke-linecap="round" stroke-linejoin="round" stroke-width="0.5"><title>2022-03-26 11.7km</title><desc>9361447915</desc></polyline><polyline fill="none" points="135.60297984210774,122.87703643471468 142.22874671337195,121.7633616583189 144.02716914960183,121.57774890915607 145.73093777382746,121.14465217621182 147.95530236605555,120.83529709413415 149.70639789639972,120.959039154317 153.1612620507367,120.40219959747628 154.39176161261275,119.90723048403743 156.56879929895513,119.84535930404672 157.37335670460016,119.96910165515146 158.65118317259476,119.90723048403743 159.9763365467079,119.96910165515146 161.58545135823078,119.65974570918479 164.5197195438668,118.73167650774121 166.69675723044202,118.36044825412682 169.63102541631088,118.11296257007052 171.33479404007085,117.74173377093393 172.18667835230008,117.80360526012373 172.84925503935665,117.74173377093393 173.70113935135305,117.49424772296334 178.29184925486334,116.75178870614036 179.3330411920324,116.81366034099483 181.2261174407322,116.5043020764133 182.74057843978517,116.56617374741472 187.0,115.63809772598324 186.29009640659206,114.40065984791727 185.34355828212574,114.40065984791727 181.55740578426048,115.26686674449593 179.85363716026768,115.88558486505644 178.95442594215274,116.07120012395899 177.34531113062985,116.13307185887243 175.59421560028568,116.38055870682001 175.21560035063885,116.3186870085483 168.77914110408165,117.30863309162669 167.4539877299685,117.18488995850203 166.12883435585536,117.2467615296191 164.5197195438668,117.67986227263464 163.62050832575187,117.80360526012373 162.72129710763693,117.74173377093393 161.822085889522,117.80360526012373 160.9702015775256,118.11296257007052 157.7519719544798,118.54606242192676 155.9062226114329,119.04103313552332 154.34443470626138,119.65974570918479 153.01928133214824,119.53600326736341 149.37510955287144,119.41226078895852 148.52322524087504,119.72161691664951 147.29272567899898,119.72161691664951 146.77212971053086,119.59787449275609 145.0683610867709,119.4741320325993 144.16914986842312,119.53600326736341 143.36459246254526,119.90723048403743 141.99211218231358,120.15471511372016 141.1875547762029,120.09284396984731 139.95705521455966,120.21658624822157 139.53111305856146,120.40219959747628 138.39526730938815,120.40219959747628 137.63803680962883,120.64968393594609 136.3128834355157,121.3921360783279 134.9877300611697,121.88710344568244 133.37861524964683,122.75329493836034 133.23663453105837,123.7432258905319 133.75723049906082,123.61948464883608 134.5617879051715,123.18639001637348 137.21209465363063,122.56768262558035 138.82120946515352,122.44394103842205 140.9035933392588,122.13458691115375 141.8501314634923,121.88710344568244 145.49430324253626,121.33026511626667 147.6240140227601,121.3921360783279 148.80718667828478,121.51587797459797 149.65907099028118,121.45400703095947 153.6818580192048,120.40219959747628 156.237510955194,120.15471511372016 157.13672217330895,120.15471511372016 157.98860648530535,119.96910165515146 161.15950920223258,119.65974570918479 163.85714285704307,119.10290443376289 164.56704645021819,118.79354785135365 165.6555652935058,118.6079337928968 166.41279579303227,118.6079337928968 169.25241016643122,117.92734821132035 171.4294478527736,117.67986227263464 173.03856266429648,117.55611924850382 174.74233128828928,117.30863309162669 176.3987730059307,117.18488995850203 178.85977212945,116.62804540948127 180.61086765979417,116.44243039627327 182.45661700260825,116.38055870682001 183.63978965813294,116.44243039627327 185.29623137577437,116.07120012395899 185.059596844716,114.77189159338013 184.3023663451895,114.83376351904008 180.23225241014734,115.76184131379705 179.38036809815094,115.88558486505644 175.64154250640422,116.93740358322975 174.41104294452816,117.06114678899758 171.90271691489033,117.61799076513853 169.34706397890113,117.49424772296334 167.73794916737825,117.67986227263464 165.84487291844562,117.55611924850382 164.85100788762793,117.61799076513853 162.62664329539984,117.49424772296334 159.8343558278866,118.17483400469064 157.70464504812844,118.23670543020125 156.8527607358992,118.42231965254177 156.09553023660555,118.73167650774121 155.00701139331795,118.9172905118321 153.87116564414464,119.4741320325993 150.27432077098638,119.41226078895852 149.80105170910247,119.65974570918479 148.5705521472264,119.78348811500473 147.29272567899898,119.72161691664951 144.73707274300978,119.84535930404672 142.98597721289843,119.72161691664951 141.518843119964,119.96910165515146 139.7204206835013,119.84535930404672 138.8685363715049,119.90723048403743 137.30674846610054,120.46407069559791 135.83961437339894,121.3921360783279 135.03505696728826,121.7633616583189 134.2778264679946,122.01084519646247 133.0,122.07271605840651 133.2839614371769,123.37200205636327 134.32515337411314,123.18639001637348 135.83961437339894,122.75329493836034 136.36021034163423,122.75329493836034 138.1113058719784,122.32019941476756 139.34180543362163,122.19645775473327 141.04557405761443,121.70149075103109 142.70201577525586,121.45400703095947 145.30499561782926,120.77342605040758 147.00876424182206,120.71155499771703 147.90797546016984,120.46407069559791 149.46976336534135,120.46407069559791 151.1262050832156,120.2784573736717 154.01314636296593,119.59787449275609 156.237510955194,119.35038953612093 157.2787028918974,119.28851827414474 158.69851007894613,119.41226078895852 161.3961437335238,118.97916182823246 162.29535495163873,118.97916182823246 167.07537248032168,117.86547674020403 168.8737949167844,117.74173377093393 172.1393514459487,117.18488995850203 173.4171779139433,117.18488995850203 174.97896581934765,116.93740358322975 176.8247151619289,116.93740358322975 180.51621384732425,116.19494358423981 182.26730937766843,116.19494358423981 184.96494303224608,115.76184131379705 184.49167397012934,114.77189159338013 183.73444347060286,114.83376351904008 182.69325153366663,115.14312301122118 179.1910604732111,115.63809772598324 178.05521472380497,116.13307185887243 177.20333041180857,116.38055870682001 176.25679228734225,116.44243039627327 175.83085013157688,116.38055870682001 174.5056967572309,116.62804540948127 172.42331288335845,116.75178870614036 172.04469763371162,116.62804540948127 171.14548641536385,116.62804540948127 169.91498685372062,116.8755319667398 168.0692375106737,117.06114678899758 166.46012269915082,116.8755319667398 165.5135845746845,117.06114678899758 163.62050832575187,117.12301837827545 160.87554776505567,117.74173377093393 159.26643295329995,118.23670543020125 158.88781770365313,118.23670543020125 157.32602979824878,118.48419104190543 156.19018404907547,118.85541918614763 155.2909728307277,118.9172905118321 153.63453111285344,119.28851827414474 152.7353198947385,119.28851827414474 149.4224364592228,120.09284396984731 147.43470639782026,120.34032849015784 146.29886064864695,120.15471511372016 143.1279579314869,119.04103313552332 141.47151621361263,119.28851827414474 140.85626643290743,119.59787449275609 138.06397896585986,120.52594178487197 136.3128834355157,121.20652316536871 135.22436459246092,121.45400703095947 133.7099035931751,122.07271605840651 133.56792287458666,123.37200205636327 135.93426818563603,122.56768262558035 136.92813321622089,122.44394103842205 140.9035933392588,121.57774890915607 143.17528483760543,121.51587797459797 144.97370727430098,121.20652316536871 145.6836108674761,121.26839414538699 146.81945661688223,121.14465217621182 148.7598597719334,120.64968393594609 151.6941279580351,120.34032849015784 153.72918492555618,119.96910165515146 155.43295354931615,119.90723048403743 159.6450482031796,119.35038953612093 160.87554776505567,119.04103313552332 163.85714285704307,118.73167650774121 165.41893076244742,118.36044825412682 169.1577563539613,117.92734821132035 171.52410166501068,117.2467615296191 172.51796669582836,117.43237618834246 173.46450482006185,117.43237618834246 176.6354075372219,116.68991706235101 179.80631025414914,116.19494358423981 181.3207712532021,116.19494358423981 184.96494303224608,115.88558486505644 184.39702015765943,114.77189159338013 182.45661700260825,115.20499488242785 180.75284837861545,115.76184131379705 178.00788781768642,116.3186870085483 174.0797546012327,116.81366034099483 171.9500438212417,116.93740358322975 169.25241016643122,117.30863309162669 167.0280455739703,117.2467615296191 164.8036809815094,117.49424772296334 160.21297107776627,118.2985768468352 156.14285714295693,119.28851827414474 154.48641542484984,119.4741320325993 151.83610867639072,119.4741320325993 149.51709027169272,119.10290443376289 148.52322524087504,119.4741320325993 148.19193689734675,119.78348811500473 146.81945661688223,119.96910165515146 143.69588080607355,119.84535930404672 141.75547765102237,120.09284396984731 141.1875547762029,120.34032849015784 140.6669588079676,120.71155499771703 139.90972830844112,121.08278117800364 138.9631901839748,121.26839414538699 137.92199824703857,121.3921360783279 136.4075372479856,121.82523255664273 133.56792287458666,122.44394103842205 133.42594215576537,123.49574337084778 135.83961437339894,122.62955340580083 138.1113058719784,122.13458691115375 144.0744960559532,121.26839414538699 145.96757230488583,120.52594178487197 148.61787905334495,120.46407069559791 149.70639789639972,120.21658624822157 153.53987730038352,119.65974570918479 156.8527607358992,119.4741320325993 158.50920245377347,119.53600326736341 162.81595092010684,119.22664700323367 164.8036809815094,118.6079337928968 166.3181419807952,118.48419104190543 169.82033304101788,117.74173377093393 172.09202453983016,117.43237618834246 172.61262050829828,117.49424772296334 178.3391761612147,116.68991706235101 181.8886941280216,116.5043020764133 182.78790534613654,116.3186870085483 184.82296231365763,115.94745662715286 184.16038562660106,114.77189159338013 178.05521472380497,116.00932838019799 173.46450482006185,116.3186870085483 170.71954425936565,116.9992751905811 162.9579316386953,117.37050464443746 161.3961437335238,117.67986227263464 159.73970201564953,117.86547674020403 157.56266432930715,118.36044825412682 154.8650306747295,118.6079337928968 153.35056967567652,119.04103313552332 150.98422436439432,119.22664700323367 149.4224364592228,119.78348811500473 148.04995617852546,120.09284396984731 144.78439964912832,120.21658624822157 143.50657318113372,119.96910165515146 141.99211218231358,120.09284396984731 140.61963190184906,121.14465217621182 139.95705521455966,121.33026511626667 136.69149868516251,121.82523255664273 133.0,122.62955340580083 133.14198071835563,123.55761401439668 135.5556529359892,122.62955340580083 138.0166520595085,122.25832858937792 141.47151621361263,121.3921360783279 143.83786152489483,121.33026511626667 145.63628396112472,121.20652316536871 146.44084136700258,120.89716812886763 146.86678352300078,120.64968393594609 147.71866783499718,120.40219959747628 148.61787905334495,120.21658624822157 152.12007011380047,120.03097281698138 152.49868536368012,119.84535930404672 155.10166520578787,119.65974570918479 155.95354951778427,119.41226078895852 157.2313759860117,119.41226078895852 161.20683610858396,118.97916182823246 161.822085889522,119.10290443376289 162.29535495163873,119.72161691664951 163.14723926386796,121.63961983466288 163.57318141986616,122.32019941476756 163.71516213845462,122.8151656909613 164.0464504819829,123.24826070549898 164.18843120057136,123.80509649787564 163.951796669513,124.4238020699413 163.33654688857496,123.92883768505999 163.19456616975367,123.43387271807296 161.822085889522,122.07271605840651 161.25416301493533,122.07271605840651 160.59158632787876,121.82523255664273 157.98860648530535,122.19645775473327 157.13672217330895,122.3820702310768 154.2497808940243,123.00077789466013 154.107800175203,123.31013138536946 153.49255039403215,123.86696709596436 153.11393514438532,125.1662475564226 153.35056967567652,125.59934015205363" stroke="#4dd2ff" stroke-linecap="round" stroke-linejoin="round" stroke-width="0.5"><title>2022-02-27 10.7km</title><desc>9361446431</desc></polyline><polyline fill="none" points="26.77071909280494,191.50939444839605 27.49791000969708,193.26307208670187 28.5607275031507,198.45099895301973 29.231980656972155,200.56999579406693 30.294798150425777,205.24637072029873 32.86793524026871,206.9269322367618 35.497010092949495,206.26932188359206 37.90233389404602,205.90398242356605 44.111425566952676,204.07728110422613 48.6983221184928,203.34659870088217 54.01240958622657,202.25057308658143 56.69742220127955,201.37375085867825 59.606185868382454,200.6430644900538 61.6758830929175,199.54703292727936 62.79463834874332,198.5240679597191 64.41683347057551,196.62427030372783 65.98309082980268,192.89772308795364 66.31871740659699,188.80579599391785 65.98309082980268,187.12517334258882 65.25589991314337,184.12926672713365 64.64058452215977,180.40262603468727 64.41683347057551,178.3566153679567 63.40995373995975,175.65294552536216 62.906513874651864,173.46077001511003 62.514949534786865,172.21853294342873 62.1233851951547,170.464781215298 61.84369638119824,168.7840966815129 60.89275441295467,165.27656286614365 60.44525231048465,163.1574158836156 60.05368797085248,160.67288725002436 59.382434817031026,158.55372068105498 58.82305718888529,154.68073779315455 56.75335996435024,153.0 50.71208157972433,154.82688863764633 43.32829688768834,156.36146991484566 40.811097560683265,157.45759650398395 37.11920521478169,160.23443973399117 35.105445753084496,161.18440886415192 31.637304458301514,161.91515311601688 30.015109336469322,161.98822748218663 27.553847772069275,161.69592995289713 25.09258620836772,161.69592995289713 22.966951220994815,162.06130183755886 21.009129522368312,162.93819326741504 18.883494535228238,163.96123131754575 16.534108496969566,166.08037488046102 14.911913374904543,167.83414204526343 14.352535746758804,169.07639005125384 13.625344830332324,171.3416578512115 13.401593778748065,172.9492610078887 13.289718253305182,176.01830717231496 13.849095881450921,178.21047142733005 15.079726663650945,180.84105579863535 15.750979817239568,181.93712851995951 16.925672836601734,183.32548383795074 19.107245586579666,185.22533221318736 23.97383095184341,188.0750911901414 25.65196383628063,189.68264034343883 27.66572329797782,193.62842081746203 28.281038689194247,196.77040884224698 28.95229184278287,198.88941283212625 29.399793945485726,201.51988800382242 30.182922624982893,204.44262190398877 30.40667367610149,205.17330269949161 32.86793524026871,206.56159325878252 35.94451219541952,206.12318613170646 37.45483179134317,205.68477861894644 39.58046677871607,205.3194387300755 41.09078637463972,204.6618262551201 44.111425566952676,204.29648561621434 47.13206475949846,203.4196669893572 50.82395710540004,202.8351203809434 53.0055298556108,202.32364153585513 53.73272077203728,202.25057308658143 59.99775020801462,200.42385837025358 62.57088729785755,198.88941283212625 64.24902018229477,197.13575500095612 65.75933977845125,194.35911747560021 66.37465516943485,192.38623403941165 66.5984062210191,190.19413216825342 66.26277964375913,187.85587953982758 65.64746425277553,185.88297034721472 65.14402438746765,183.03319882933283 64.24902018229477,178.94119070164743 63.8574558426626,176.38366855165805 63.074327163165435,174.33764137685648 62.347136246506125,171.3416578512115 61.955571906641126,169.00331672496395 61.060567701468244,164.8381194025278 60.44525231048465,162.86511904059444 59.82993691950105,159.79599183207029 58.934932714561,156.87299595671357 58.487430611858144,154.46151144613395 57.03304877853952,153.29230263238424 51.77489907317795,154.46151144613395 44.670803195331246,155.84994334774092 43.384234650293365,156.28839472317486 39.4126534902025,158.62679554030183 36.392014297889546,160.81903633626644 31.469491169555113,161.84207873910782 30.015109336469322,161.98822748218663 25.204461733810604,161.54978112396202 21.680382676189765,162.2074505163473 20.33787636877969,162.7920448029181 19.107245586579666,163.52278669615043 16.925672836601734,165.6419321243011 15.974730868590996,166.81111194950063 15.023788900580257,168.4187297282042 13.793158118845895,171.48780380707467 13.289718253305182,173.67998800019268 13.737220355775207,177.04131835867884 14.016909169731662,178.5027592657716 14.855975612066686,180.32955436993507 15.918793105520308,182.08327136709704 17.261299413396046,183.61776867503067 19.330996637698263,185.51761593532865 22.575386881595477,187.34438531429623 23.694142137654126,188.14816171847633 24.589146342827007,188.95193682605168 26.602905804524198,191.36325436655898 27.162283432669938,192.24009421479423 27.162283432669938,193.04386271943804 27.777598823653534,194.8706044984865 28.22510092612356,196.8434780954849 28.78447855450213,198.6702059408708 29.791358285117894,203.20046209165594 30.518549202010036,205.90398242356605 32.97981076571159,207.0 34.43419259903021,206.3423897436005 36.4479520607274,206.0501182398002 37.342956265900284,206.0501182398002 39.74828006722964,205.17330269949161 42.54516820819117,204.44262190398877 49.649264086270705,203.27353040175512 53.844596297713,202.10443615581607 55.97023128485307,201.95829918215168 57.31273759272881,201.66602510603843 59.49431034247391,200.9353391659679 61.5080698041711,199.8393082464463 62.85057611181401,199.03555070611765 63.969331368105486,197.9395156064129 65.19996215007268,196.18585443132906 66.03902859264053,194.28604785792413 66.71028174646199,192.24009421479423 66.54246845794842,189.53649972588755 66.26277964375913,187.92895010052598 65.19996215007268,183.10627009766176 64.41683347057551,180.25648269453086 64.02526913094334,178.2835434031149 63.74558031698689,176.16445175622357 63.242140451679006,174.19149625711725 62.906513874651864,173.53384268761147 62.23526072083041,170.09941549456562 61.45213204133324,167.32262726002955 60.669003361836076,163.8881572407263 60.05368797085248,161.91515311601688 59.27055929135531,157.0191461580107 59.046808240003884,156.36146991484566 58.7671194258146,154.97303943918087 56.809297727188095,153.21922699030256 55.354915893869475,153.36537826358108 54.627724977442995,153.73075625908677 52.390214464627206,154.31536049451097 50.32051724009216,154.46151144613395 46.23706055409275,155.63071751539246 45.45393187459558,155.70379280351335 43.16048359894194,156.43454509598087 40.4195332210511,157.5306715243205 39.24484020168893,158.40757093011052 37.79045836837031,159.94214117582305 36.392014297889546,160.67288725002436 35.04950799024664,161.11133437982062 30.79823801596649,161.84207873910782 26.54696804168634,161.4036322523607 25.09258620836772,161.476706693531 22.295698067173362,162.06130183755886 20.897253996692598,162.499747745489 20.058187554590404,162.93819326741504 18.771619009552523,163.81508315351675 16.701921785250306,165.86115355053334 14.632224560715258,168.7840966815129 13.960971406893805,170.3917080925312 13.457531541818753,173.24155193334445 13.625344830332324,176.67595746178995 13.905033644288778,178.21047142733005 14.184722458478063,178.79504693273338 14.855975612066686,180.25648269453086 16.366295208223164,182.88705626068986 17.988490330055356,184.49462215710082 19.05130782374181,185.29840315983165 22.855075695551932,187.4174559499952 24.589146342827007,188.73272556165466 25.931652650469914,190.2672023861087 26.714781330199912,191.50939444839605 27.33009672118351,192.67851355989114 30.294798150425777,205.17330269949161 32.64418418891728,206.9269322367618 36.28013877244666,206.19625401310623 38.070147182559595,205.97705033715465 41.03484861203469,204.88103051006328 42.88079478521831,204.6618262551201 46.57268713111989,203.4196669893572 53.0055298556108,202.177504626452 55.29897813103162,202.10443615581607 57.31273759272881,201.73909364105202 59.382434817031026,201.0084078083455 60.83681665034965,200.2777209035994 62.01150966947898,199.54703292727936 63.57776702870615,197.9395156064129 64.58464675908908,196.77040884224698 65.19996215007268,195.52822989871493 66.37465516943485,192.89772308795364 66.5984062210191,191.43632441293448 66.48653069511056,189.17114799367846 65.75933977845125,186.10218286549207 65.3118376757484,183.32548383795074 64.64058452215977,180.475697688933 64.19308241968974,179.08733442798257 63.91339360526763,177.2605347680801 63.13026492577046,174.6299314876378 62.347136246506125,170.09941549456562 61.84369638119824,168.63794993248302 61.228380989981815,166.29959611370577 61.17244322737679,164.6188975260884 60.94869217602536,163.4497125550115 60.669003361836076,162.7920448029181 59.32649705419317,158.62679554030183 59.046808240003884,156.50762026634766 58.7671194258146,155.63071751539246 56.97711101570167,153.1461513376853 54.73960050288588,153.51152949416428 50.99177039368078,154.46151144613395 48.922073169378564,155.04611482395558 44.39111438137479,155.92301860373118 42.20954163116403,156.65377057445585 39.46859125304036,158.11527129964088 37.510769554413855,160.0152158314013 36.951391926035285,160.45366354030557 32.25261984928511,161.91515311601688 31.469491169555113,162.06130183755886 28.61666526598856,161.62285554385744 25.596026073675603,161.54978112396202 21.96007149037905,162.28052483982174 20.617565182736143,162.71897055453155 19.275058874860406,163.59586082660826 17.261299413396046,165.49578445314546 16.198481919942424,166.7380382909614 14.40847350959666,169.88019593365607 13.569407067261636,171.85316850926029 13.289718253305182,173.24155193334445 13.345656016143039,176.38366855165805 13.569407067261636,177.84511138818925 13.793158118845895,178.5027592657716 15.583166528958827,181.86405708017992 16.534108496969566,183.10627009766176 17.54098822758533,184.20233783466392 19.890374266076833,186.0291120368638 21.62444491358474,186.9059612742858 23.694142137654126,188.14816171847633 26.155403701821342,190.9248338638281 27.441972246626392,192.82465325589874 27.889474349329248,194.13990859070327" stroke="#4dd2ff" stroke-linecap="round" stroke-linejoin="round" stroke-width="0.5"><title>2021-09-23 10.6km</title><desc>9361375595</desc></polyline><polyline fill="none" points="137.78817733982578,186.88519020791864 137.92118226597086,186.9286257463391 138.7192118227249,186.53770567112952 139.2179802955361,186.97206127847312 140.54802955663763,188.44886557763675 141.24630541866645,189.49131123666302 141.84482758620288,191.66306123958202 141.97783251246437,192.40145261210273 142.37684729055036,193.92166434632964 142.6428571428405,194.6600500869681 143.1748768473044,197.61357463756576 144.637931034551,198.48225272269337 145.43596059107222,198.3085173096042 147.03201970434748,197.7873104584869 147.2315270935651,197.7873104584869 148.4950738917105,197.39640471813618 150.88916256162338,196.91863033478148 152.78448275849223,196.74489400419407 155.1120689655654,196.1368160446291 158.50369458121713,195.05095943951164 160.56527093600016,194.4863124312542 161.72906403930392,194.00853335252032 163.0258620689856,192.9661035958561 163.92364532023203,191.70649607712403 164.5554187190719,190.2731430726708 164.6551724136807,188.10138287572772 164.52216748765204,187.1892388430715 164.1564039408695,186.01647810119903 163.3251231526956,181.15164320415352 162.75985221669544,179.32730951122358 162.3940886699129,177.80702284758445 162.2610837436514,176.9382841064653 161.9618226600578,175.72204558673548 161.29679802956525,173.37642861902714 161.26354679802898,172.9420530673233 161.0307881772751,172.29048854490975 160.86453201959375,171.46517142473022 160.76477832498495,170.20547243766487 159.86699507397134,167.16479762882227 158.10467980301473,166.6435359546158 155.71059113310184,167.20823606019258 154.51354679791257,167.38198972202372 152.91748768475372,167.772935088753 152.6182266009273,167.9032500961912 151.55418719211593,168.07700335030677 148.8940886699129,169.29327327382634 147.29802955652121,170.46610025400878 144.87068965518847,171.59548480727244 144.13916256150696,171.68236036368762 143.00862068962306,171.6389225886087 140.9802955664927,171.37829580466496 139.81650246295612,171.46517142473022 138.15394088672474,171.76923589460785 137.15640394075308,172.24705085915048 136.35837438434828,172.637989801995 136.05911330052186,172.89861547708279 135.42733990156557,173.41986613918561 134.79556650237646,174.07142817627755 134.09729064046405,175.11392445347155 133.56527093600016,176.19985417241696 133.23275862075388,177.2857799087069 133.06650246307254,178.50201200525044 133.03325123153627,180.02229510055622 133.23275862075388,181.19507958358736 133.49876847292762,181.93349706026493 134.0307881772751,182.88909341415274 135.02832512324676,184.32248216244625 135.62684729066677,184.8437127143261 136.9568965517683,185.79929967632052 138.41995073889848,186.58114126048167 139.11822660104372,187.05893232350354 140.24876847292762,188.10138287572772 140.74753694585524,188.796347871772 141.67857142863795,190.6206232260156 141.87807881773915,191.40245208019041 142.0110837437678,192.27114838609123 141.9445812808117,192.70549558330094 142.07758620695677,193.44388435650035 142.37684729055036,194.18227128844592 142.80911330052186,195.7893423641508 143.00862068962306,197.00549846177455 143.2746305419132,197.7873104584869 144.37192118214443,198.22164956468623 145.73522167489864,197.91761225718074 149.02709359605797,197.3095367057831 150.0246305419132,197.00549846177455 154.01477832510136,196.22368440087303 155.411330049159,195.87621082249098 157.04064039420336,195.57217110687634 158.70320197043475,195.09439378013485 159.70073891629,194.9640907389985 161.69581280788407,193.92166434632964 163.3251231526956,192.5317567809543 164.05665024614427,191.53275668848073 164.3559113300871,190.83779811483691 164.58866995072458,189.44787607414764 164.72167487698607,187.88420597999357 164.1564039408695,185.92960675031645 164.05665024614427,185.23463502604864 163.89039408857934,184.58309755308437 163.75738916243427,183.54063461444457 163.59113300475292,182.97596565706772 163.45812807872426,181.62944302818505 163.3251231526956,181.23851595679298 163.2253694582032,180.6738426091324 162.9261083744932,179.50105606147554 162.75985221669544,179.1535628589627 162.5935960591305,179.06668949479354 162.32758620695677,177.1989059964544 161.82881773391273,175.3311107158661 161.4630541872466,173.5501786612731 161.09729064046405,172.33392622426618 160.86453201959375,171.03079306913423 160.29926108382642,168.8588917318557 159.99999999988358,167.46886651494424 158.9692118227249,166.25258909675176 156.94088669947814,166.7738514591474 155.64408866979647,167.16479762882227 154.51354679791257,167.2951129039575 153.28325123141985,167.59918165620184 150.25738916255068,168.46794779918855 149.16009852220304,169.03264442505315 147.19827586226165,170.50953820120776 145.4692118226085,171.37829580466496 144.67118226597086,171.55204701953335 143.57389162573963,171.6389225886087 142.27709359605797,171.55204701953335 141.08004926110152,171.33485798499896 139.8497536946088,171.37829580466496 136.79064039408695,172.1601754683943 134.862068965449,173.98455332082813 134.16379310342018,174.98361261957325 133.56527093600016,176.06954281646176 133.1995073891012,177.1554690306948 133.06650246307254,177.9373334388365 133.0,179.28387285777717 133.0,180.1091681845719 133.06650246307254,180.5000967469823 133.29926108371,181.28195232362486 133.9310344827827,182.71534885189612 134.862068965449,184.06186654261546 135.3940886699129,184.71340516244527 136.39162561565172,185.49524961371208 138.15394088672474,186.40739886462688 139.15147783246357,187.1458033429226 139.45073891617358,187.40641624864656 141.24630541866645,189.83879230750608 141.8115763546666,191.27214741442003 142.0443349754205,193.35701518473797 142.17733990133274,193.7479262574925 142.90886699513067,197.04893251569592 143.14162561565172,197.7873104584869 144.27216748765204,198.43881887890166 145.43596059107222,198.00448009121465 147.4310344827827,197.52670668886276 147.86330049252138,197.52670668886276 150.82266009843443,196.70145990568562 153.7820197044639,196.18025022590882 155.44458128069527,196.0065134622273 156.575123152812,195.6590396288957 157.67241379315965,195.39843398641096 158.437192118261,195.13782811447163 159.66748768475372,194.83378764073132 160.8312807881739,194.4863124312542 161.49630541878287,194.09540233330335 162.85960591130424,193.0529728824622 163.69088669947814,192.05397454855847 164.2561576354783,190.96810297164484 164.38916256150696,190.66405821644003 164.48891625611577,189.49131123666302 164.62192118237726,188.7529126072477 164.6884236453334,188.01451213652035 164.45566502469592,186.71144799044123 164.28940886689816,186.3205276283552 163.82389162562322,184.19217438122723 163.6576354680583,182.45473181747366 163.0258620689856,180.28291427600197 162.4938423645217,178.80606924876338 162.0615763546666,176.19985417241696 161.9618226600578,175.9392314030265 161.4630541872466,173.37642861902714 161.29679802956525,172.98549065124826 160.8312807881739,170.81360365235014 160.43226600985508,169.46702571221977 160.26600985217374,168.6851389365911 160.13300492614508,167.64262002383475 160.03325123153627,167.33855131620658 158.90270935965236,166.4697818592831 157.6059113300871,166.68697446247097 156.50862068962306,167.07792074675672 151.02216748765204,168.29419477452757 149.89162561576813,168.77201534697087 148.79433497530408,169.42358761216747 147.4310344827827,170.4226623006398 146.26724137924612,171.03079306913423 145.1366995073622,171.37829580466496 143.97290640394203,171.68236036368762 143.10837438434828,171.68236036368762 140.94704433495644,171.33485798499896 140.51477832510136,171.33485798499896 139.11822660104372,171.55204701953335 138.7192118227249,171.7257981322473 137.62192118226085,171.98642461039708 136.99014778318815,172.24705085915048 135.36083743849304,173.5936161558784 134.29679802956525,174.8533007282531 133.36576354689896,176.98172110400628 133.1995073891012,177.85045971762156 133.13300492614508,179.06668949479354 133.3325123153627,180.63040615306818 133.59852216753643,181.93349706026493 134.16379310342018,182.97596565706772 134.89532019698527,184.06186654261546 135.89285714295693,184.8437127143261 139.38423645321745,187.1892388430715 139.91625615756493,187.7104643486673 141.3128078818554,190.0125326900452 142.0110837437678,192.09740932876593 142.31034482759424,193.7044917193125 143.34113300486933,198.00448009121465 145.2697044335073,198.22164956468623 146.00123152707238,197.96104617745732 147.69704433495644,197.5701406664448 150.72290640382562,197.00549846177455 151.98645320197102,196.18025022590882 155.81034482759424,195.83277659653686 157.73891625611577,195.48530255933292 158.17118226608727,195.31156538784853 159.00246305414476,195.18126244228915 160.39901477831881,194.79035326180747 161.16379310342018,194.39944356519845 161.8620689655654,193.96509885264095 163.19211822655052,192.792364946421 163.95689655165188,191.66306123958202 164.28940886689816,190.88123307347996 164.45566502469592,190.05596776967286 164.72167487698607,188.144818235829 164.6551724136807,187.27610982453916 164.48891625611577,186.84175466318266 164.3559113300871,186.01647810119903 164.12315270933323,185.3649423486786 163.95689655165188,184.19217438122723 163.69088669947814,182.6719126953103 163.6576354680583,182.1941145535675 164.3559113300871,181.23851595679298 165.61945812799968,180.93446121108718 168.47906403942034,179.7616756958014 169.74261083744932,179.54449268319877 170.90640394075308,179.24043619792792 171.70443349750713,178.93637940037297 172.60221674875356,177.72014908812707 172.40270935941953,176.98172110400628 171.6379310344346,173.37642861902714 171.07266009866726,171.55204701953335 170.57389162562322,169.03264442505315 170.24137931037694,167.94668841923703 170.2746305417968,166.42634331955924 172.53571428568102,165.60100985315512 176.45935960591305,164.73223529785173 177.92241379315965,164.21096934107482 178.91995073889848,163.6897024665377 179.28571428568102,163.60282456484856 180.25,163.2118736919365 180.9815270935651,163.1249956501415 182.87684729055036,162.82092230283888 184.8054187190719,162.0824571592966 185.2376847290434,161.9955787861254 185.2376847290434,161.95213958987733 185.5369458127534,161.64806503802538 186.50123152707238,161.6046257908747 187.0,161.51774727730663" stroke="#4dd2ff" stroke-linecap="round" stroke-linejoin="round" stroke-width="0.5"><title>2021-09-22 10.2km</title><desc>9361375473</desc></polyline><polyline fill="none" points="23.09303451143205,218.7768256869167 18.866293138824403,219.5303232499864 17.521420884877443,220.283820481156 16.94504706095904,222.04197939450387 15.215925590135157,223.80013649910688 17.905670099891722,243.6420698617585 22.32453607954085,258.4605786908651 25.206405197270215,264.2372507158434 33.08351411763579,264.48840992653277 36.733881667256355,263.4837728635175 50.37472882308066,257.45593808428384 51.14322725404054,254.69317337230314 54.217220979742706,250.4234373049112 61.710080685094,246.65601426991634 63.82345137093216,236.86067551060114 58.25183774437755,227.8187745178584 58.25183774437755,225.55829179496504 51.52747646998614,217.26982956391294 44.22674137260765,215.51166574156377 21.74816225655377,214.50699988752604 18.097794707864523,218.27449379418977 15.408050198107958,230.83274683065247 17.32929627597332,237.86532822356094 19.826916177757084,253.18620892008767 23.09303451143205,259.7163786177989 24.24578215740621,263.2326135057956 27.3197758840397,265.24188733589835 31.930766470730305,263.2326135057956 38.84725235309452,261.72565658250824 44.61099058762193,258.7117387499893 49.029856568202376,255.44665509997867 50.75897803902626,252.68388714035973 50.75897803902626,251.6792431382928 54.217220979742706,249.41879197466187 59.020336175337434,247.66066122497432 61.710080685094,245.9025286665419 64.01557597890496,243.89323209854774 64.97619901783764,242.38625812344253 64.78407440986484,236.86067551060114 61.1337068611756,230.58158267452382 58.05971313547343,226.562951152795 54.985719410702586,218.7768256869167 51.14322725404054,215.76283211272676 47.684984313324094,216.01399844686966 46.72436127439141,215.51166574156377 39.23150156904012,215.26049933349714 31.162268039770424,213.75350010988768 28.47252353001386,215.26049933349714 24.822155981324613,215.76283211272676 21.171788432635367,215.00933288852684 14.255302550271153,230.07925425155554 16.176548629067838,235.10253184253816 17.521420884877443,245.9025286665419 19.442666961811483,250.17227602773346 24.24578215740621,263.9860914683668 27.70402509905398,265.493046398391 36.349632451310754,263.4837728635175 40.0,262.7302946789423 45.95586284250021,258.96289877197705 51.14322725404054,251.6792431382928 62.28645450808108,246.40485243930016 64.78407440986484,244.14439429936465 64.39982519485056,237.36300194088835 61.710080685094,231.58623907912988 58.44396235141903,227.31644528277684 55.562093233689666,217.7721617530333 47.30073509737849,216.01399844686966 44.80311519652605,214.75816640711855 41.15274764690548,215.76283211272676 37.694504706189036,215.76283211272676 34.42838637251407,215.26049933349714 20.787539216689765,214.75816640711855 18.097794707864523,218.02332779183052 16.368673236109316,221.7908139465144 14.447427158243954,230.58158267452382 15.984424021095037,234.34904114448 16.560797844082117,245.14904273021966 20.595414608716965,255.69781560264528 22.90090990252793,259.7163786177989 24.053657550364733,262.9814541108208 28.28039892204106,266.2465233654948 42.689744509756565,260.97217762237415 45.37948901951313,259.2140587576432 47.30073509737849,256.95361756009515 49.99047960713506,252.1815652124351 52.10385029297322,250.67459854576737 56.71484088152647,248.91646908700932 64.39982519485056,245.14904273021966 64.59194980189204,236.10718558821827 59.020336175337434,226.0606215473963 55.75421784259379,217.7721617530333 51.14322725404054,216.01399844686966 49.414105783216655,217.26982956391294 39.6157507840544,215.76283211272676 37.694504706189036,214.75816640711855 34.62051098048687,214.2558333320776 27.511900491081178,215.00933288852684 23.28515911847353,214.00466673949268 20.211165393702686,214.2558333320776 14.831676373258233,229.0745969605632 15.79229941405356,231.08391095034312 16.94504706095904,237.36300194088835 16.75292245298624,241.63277063751593 17.7135454909876,248.16298448015004 20.403290001675487,256.2001364964526 25.398529804311693,266.2465233654948 31.354392646811903,264.73956909996923 36.15750784333795,262.47913521004375 40.76849843095988,259.4652187064057 44.22674137260765,258.2094185947208 48.837731960229576,254.94433398544788 53.640847156755626,250.4234373049112 61.1337068611756,246.65601426991634 63.63132676295936,244.64671858842485 64.59194980189204,238.1164913099492 59.212460783310235,229.57692568027414 55.94634244963527,220.534986150451 55.17784401867539,216.7674972283421 52.87234872486442,216.26516474410892 50.75897803902626,217.26982956391294 47.49285970535129,217.7721617530333 45.95586284250021,217.01866341463756 31.546517255716026,215.00933288852684 20.403290001675487,215.00933288852684 13.871053334325552,227.8187745178584 16.176548629067838,233.09322257747408 16.75292245298624,236.6095122403931 17.13717166800052,243.89323209854774 20.019040785729885,250.17227602773346 21.74816225655377,257.20477784005925 24.822155981324613,264.73956909996923 27.70402509905398,264.99072823661845 34.04413715749979,261.72565658250824 44.22674137260765,258.4605786908651 49.99047960713506,255.1954945611069 53.0644733319059,251.6792431382928 60.365208429284394,247.66066122497432 63.24707754701376,244.64671858842485 63.24707754701376,236.6095122403931 61.325831468217075,230.3304184814915 59.40458539035171,227.8187745178584 57.67546391952783,224.0513016525656 55.36996862664819,216.26516474410892 50.56685343105346,215.51166574156377 48.645607352256775,216.516331005143 44.22674137260765,215.51166574156377 37.694504706189036,215.76283211272676 28.28039892204106,217.26982956391294 24.43790676537901,216.26516474410892 18.097794707864523,217.52099567709956 14.639551766216755,227.8187745178584 16.560797844082117,233.8467138283886 16.75292245298624,239.37230618600734 17.7135454909876,242.88858292950317 19.826916177757084,247.9118228709558 20.403290001675487,255.1954945611069 24.43790676537901,264.48840992653277 28.088274314068258,266.2465233654948 34.23626176454127,263.4837728635175 39.6157507840544,261.72565658250824 42.305495293810964,260.21869833080564 45.76373823452741,258.7117387499893 48.645607352256775,256.95361756009515 51.33535186201334,252.9350480485009 51.33535186201334,252.1815652124351 53.4487225478515,250.67459854576737 64.01557597890496,246.40485243930016 64.78407440986484,238.3676543587353 58.63608695939183,224.80479688988999 59.40458539035171,225.80945668986533 59.020336175337434,226.31178636848927 58.25183774437755,226.0606215473963 57.09909009747207,225.05596189550124 55.36996862664819,218.02332779183052 46.91648588236421,216.26516474410892 41.92124607786536,213.0 40.0,213.0 34.62051098048687,213.2511667405488 28.28039892204106,214.75816640711855 24.053657550364733,215.00933288852684 20.211165393702686,214.75816640711855 17.905670099891722,218.7768256869167 14.447427158243954,230.83274683065247 16.176548629067838,234.0978775054682 17.13717166800052,242.38625812344253 21.74816225655377,255.1954945611069 25.206405197270215,261.9768161617685 25.590654413215816,263.9860914683668 28.85677274595946,266.2465233654948 30.585894216783345,265.24188733589835 35.38900941237807,263.9860914683668 41.34487225487828,260.72101789491717 49.414105783216655,257.20477784005925 51.91172568593174,252.9350480485009 54.025096371769905,250.92575974948704 62.09432990010828,246.65601426991634 64.39982519485056,244.3955564625794 64.78407440986484,236.86067551060114 58.44396235141903,227.8187745178584 54.985719410702586,219.02799157856498 44.99523980356753,216.01399844686966 40.960623039864004,216.26516474410892 36.733881667256355,214.75816640711855 30.39376960787922,216.26516474410892 23.861532942391932,214.50699988752604 21.940286863595247,214.50699988752604 18.674168531782925,217.52099567709956 15.215925590135157,228.57226809486747 17.7135454909876,235.85602220753208 17.7135454909876,239.87463187798858 19.058417746797204,247.15833782078698 21.74816225655377,258.4605786908651 23.09303451143205,261.72565658250824 29.817395784892142,265.493046398391 38.65512774512172,262.47913521004375 45.18736441154033,259.7163786177989 50.75897803902626,251.93040419381578 54.025096371769905,250.4234373049112 59.020336175337434,248.91646908700932 61.710080685094,246.90717606374528 64.39982519485056,238.86998034606222 62.09432990010828,232.33973099384457 58.82821156736463,227.31644528277684 56.52271627355367,221.03731737972703 51.33535186201334,216.516331005143 41.72912146989256,217.01866341463756 34.62051098048687,215.26049933349714 29.62527117691934,215.51166574156377 21.556037647649646,214.50699988752604 15.984424021095037,225.55829179496504 15.79229941405356,229.57692568027414 17.32929627597332,238.3676543587353 17.521420884877443,244.3955564625794 20.595414608716965,254.69317337230314 24.630031373351812,264.48840992653277 28.088274314068258,266.2465233654948 40.960623039864004,260.72101789491717 52.29597490094602,249.92111471376847 58.82821156736463,247.15833782078698 62.47857911605388,244.64671858842485 64.01557597890496,235.85602220753208 58.44396235141903,224.80479688988999 55.17784401867539,216.26516474410892 40.960623039864004,214.75816640711855 37.310255490243435,213.75350010988768 30.585894216783345,215.51166574156377 24.24578215740621,215.26049933349714 19.250542354770005,217.26982956391294 19.058417746797204,221.53964846162125 17.13717166800052,224.55363184772432 16.176548629067838,230.58158267452382 17.7135454909876,236.10718558821827 17.7135454909876,243.13974527758546 21.171788432635367,257.20477784005925 23.09303451143205,259.96753849310335 24.630031373351812,264.48840992653277 27.896149706095457,265.74420542398 30.778018824756145,264.2372507158434 37.310255490243435,262.47913521004375 46.72436127439141,257.45593808428384 50.56685343105346,252.68388714035973 54.025096371769905,249.66995336243417 56.71484088152647,248.66530758864246 59.212460783310235,246.90717606374528 62.47857911605388,245.40020474558696 65.16832362674177,243.39090758818202 64.97619901783764,234.60020474763587 57.67546391952783,224.80479688988999 55.94634244963527,217.26982956391294 47.30073509737849,216.7674972283421 36.92600627429783,214.00466673949268 31.738641863688827,214.00466673949268 21.940286863595247,215.51166574156377 18.674168531782925,220.7861517838901 15.79229941405356,230.07925425155554 16.75292245298624,233.34438636538107 17.32929627597332,244.3955564625794 23.66940833348781,262.7302946789423 25.206405197270215,265.24188733589835 30.20164499990642,264.99072823661845 37.502380098216236,262.7302946789423 46.14798745047301,259.4652187064057 50.18260421510786,255.1954945611069 50.56685343105346,253.68853055115324 53.4487225478515,249.92111471376847 58.44396235141903,248.41414605325554 62.86282833199948,245.9025286665419 65.55257284175605,243.6420698617585 66.12894666474313,237.11183874390554 58.05971313547343,227.06528060918208 55.17784401867539,218.52565975906327 43.84249215666205,216.516331005143 42.305495293810964,216.7674972283421 36.541757059283555,216.01399844686966 33.27563872653991,216.01399844686966 29.04889735393226,217.01866341463756 22.70878529548645,216.516331005143 18.674168531782925,220.7861517838901 18.097794707864523,222.04197939450387 16.368673236109316,237.11183874390554 16.560797844082117,240.87928281875793 17.32929627597332,244.3955564625794 19.826916177757084,249.16763054940384 20.787539216689765,256.95361756009515 24.630031373351812,264.73956909996923 29.62527117691934,264.73956909996923 34.23626176454127,261.72565658250824 44.80311519652605,258.2094185947208 52.48809950891882,248.91646908700932 54.409345586784184,248.41414605325554 64.01557597890496,243.6420698617585 64.78407440986484,236.86067551060114 59.788834606297314,229.82808998413384 58.05971313547343,223.80013649910688 54.60147019568831,216.516331005143 47.684984313324094,217.7721617530333 44.99523980356753,216.26516474410892 23.477283727377653,215.76283211272676 14.255302550271153,230.3304184814915 15.215925590135157,232.59089489246253 16.75292245298624,244.14439429936465 19.058417746797204,250.4234373049112 20.979663824662566,258.4605786908651 25.398529804311693,266.4976822802564 27.70402509905398,267.0 30.39376960787922,265.493046398391 44.61099058762193,260.21869833080564 50.75897803902626,250.67459854576737 59.59670999832451,246.90717606374528 63.82345137093216,237.6141651009675 58.82821156736463,227.8187745178584 57.09909009747207,222.04197939450387 55.36996862664819,218.52565975906327 49.79835500009358,216.01399844686966 42.689744509756565,215.00933288852684 35.38900941237807,214.75816640711855 22.90090990252793,216.01399844686966 16.75292245298624,224.55363184772432 14.255302550271153,230.83274683065247 15.215925590135157,234.34904114448 15.984424021095037,241.63277063751593 16.75292245298624,245.14904273021966" stroke="#4dd2ff" stroke-linecap="round" stroke-linejoin="round" stroke-width="0.5"><title>2020-12-06 10.3km</title><desc>9361308001</desc></polyline></svg>