<?xml version="1.0" encoding="utf-8" ?>
<svg baseProfile="full" height="200mm" version="1.1" viewBox="0,0,200,200" width="200mm" xmlns="http://www.w3.org/2000/svg" xmlns:ev="http://www.w3.org/2001/xml-events" xmlns:xlink="http://www.w3.org/1999/xlink"><defs /><rect fill="#1a1a1a" height="200" width="200" x="0" y="0" /><text alignment-baseline="middle" fill="#e1ed5e" style="dominant-baseline: central; font-size:9.0px; font-family:Arial;" text-anchor="middle" x="100.0" y="100.0">2025</text><line stroke="#e1ed5e" stroke-width="0.3" x1="100.0" x2="100.0" y1="15.0" y2="10.0" /><path d="M 100.0 14.0 a86.0,86.0 0 0,1 42.46469731375804,11.215312516191453" fill="none" id="id97" stroke="none" /><text fill="#e1ed5e" style="font-size:6.75px; font-family:Arial;" text-anchor="middle"><textPath startOffset="22.20632615414155" xlink:href="#id97">January</textPath></text><path d="M 100.0 79.0 l 0.0 -63.0 a84.0,84.0 0 0,0 1.4459219170901134,0.012445506434235476 l -1.084441437817585 62.990665870174325" fill="#4dd2ff" stroke="none" /><path d="M 100.36148047927253 79.00311137660856 l 0.540918473188686 -31.41969092974183 a52.42434678581462,52.42434678581462 0 0,0 0.9021315521762355,0.023299396445382287 l -1.0816766605597894 31.40572474115409" fill="#ff2b04" stroke="none" /><path d="M 100.72285384407766 79.0124445844662 l 1.0275898794877736 -29.835352909701506 a50.85304380137576,50.85304380137576 0 0,0 0.8745734747511301,0.03766097353695705 l -1.5410041866282354 29.813244209640356" fill="#ff0000" stroke="none" /><path d="M 101.08401301168833 79.027996857942 l 1.540355777101491 -29.80069966775239 a50.84048251298272,50.84048251298272 0 0,0 0.8735797879042964,0.052696718449307414 l -2.053097613845399 29.76976967992278" fill="#ff0000" stroke="none" /><path d="M 101.44485096284872 79.0497635885617 l 2.366701468414173 -34.317003312795435 a55.398517296694735,55.398517296694735 0 0,0 0.9507699585004198,0.07379804745346896 l -2.9570616162769343 34.2711800031535" fill="#ff780b" stroke="none" /><path d="M 101.80526077348638 79.07773832637324 l 2.5795633443454213 -29.896123644154503 a51.007205068017655,51.007205068017655 0 0,0 0.874105306730224,0.08300683138105455 l -3.0937937781658897 29.84729126825827" fill="#ff0500" stroke="none" /><path d="M 102.16513564639614 79.11191278185805 l 3.2036998381760835 -30.90760699079349 a52.07320167846365,52.07320167846365 0 0,0 0.8907822808455906,0.10008976835639495 l -3.7352488225313993 30.847881268966493" fill="#ff2103" stroke="none" /><path d="M 102.52436894288641 79.15227682838746 l 3.9511056000636695 -32.630553471217404 a53.868894951014596,53.868894951014596 0 0,0 0.9195812110236564,0.11938803334834236 l -4.512201539595172 32.557707114704925" fill="#ff5107" stroke="none" /><path d="M 102.88285421437855 79.19881850522331 l 4.29320296225696 -30.977526912879487 a52.27361132509811,52.27361132509811 0 0,0 0.8902221388033811,0.13119560236468147 l -4.825794081488997 30.899036826353836" fill="#ff2703" stroke="none" /><path d="M 103.2404852339499 79.25152402106235 l 5.324382230890093 -34.09144274533465 a55.50471728038137,55.50471728038137 0 0,0 0.9427100750205198,0.15555523983000172 l -5.910421512049488 33.99474124256503" fill="#ff7b0b" stroke="none" /><path d="M 103.95276090670814 79.375362276772 l 5.8367697235787475 -30.454981685945498 a52.00925330118997,52.00925330118997 0 0,0 0.8778012565940251,0.17607867414728573 l -6.360137389639898 30.349999055721003" fill="#ff2003" stroke="none" /><path d="M 104.66035177308747 79.52364482259891 l 7.608809132458961 -33.43109830742778 a55.28603666881157,55.28603666881157 0 0,0 0.9261103877052029,0.21918040734325694 l -8.183143207126689 33.295171987943654" fill="#ff750a" stroke="none" /><path d="M 105.01212808612495 79.60689891045804 l 7.316710385415896 -29.769872590795575 a51.65582432322208,51.65582432322208 0 0,0 0.8616464813367893,0.2196528734519548 l -7.82806575543771 29.63951672117475" fill="#ff1602" stroke="none" /><path d="M 105.36241919743992 79.69619591428918 l 8.172150149150491 -30.94232835556361 a53.00330798720308,53.00330798720308 0 0,0 0.8801126368220695,0.24056803009093647 l -8.703560675196272 30.797073784646383" fill="#ff3a05" stroke="none" /><path d="M 108.43124777332544 80.76684994638697 l 18.35956373083771 -41.88137434072815 a66.72879942721976,66.72879942721976 0 0,0 1.048016726873369,0.4702145563937456 l -19.077762576177857 41.55913945381787" fill="#85ff25" stroke="none" /><path d="M 109.08828744355905 81.06846463323043 l 13.146754415404777 -27.385604572823965 a51.37776307561243,51.37776307561243 0 0,0 0.7939790645127011,0.389602078743164 l -13.616204746927911 27.15524733394597" fill="#ff0f01" stroke="none" /><line stroke="#e1ed5e" stroke-width="0.3" x1="143.23703022742887" x2="145.7803849466894" y1="26.81831364943548" y2="22.513508569990506" /><path d="M 143.74570117128098 25.957352633546492 a86.0,86.0 0 0,1 28.547481713284135,27.462654790039103" fill="none" id="id98" stroke="none" /><text fill="#e1ed5e" style="font-size:6.75px; font-family:Arial;" text-anchor="middle"><textPath startOffset="19.985693538727396" xlink:href="#id98">February</textPath></text><line stroke="#e1ed5e" stroke-width="0.3" x1="172.23445277983987" x2="176.4835382374775" y1="55.19839476539836" y2="52.563006222186495" /><path d="M 173.08426987136738 54.67131705675599 a86.0,86.0 0 0,1 12.851231095245387,41.99856678651699" fill="none" id="id99" stroke="none" /><text fill="#e1ed5e" style="font-size:6.75px; font-family:Arial;" text-anchor="middle"><textPath startOffset="22.20632615414155" xlink:href="#id99">March</textPath></text><line stroke="#e1ed5e" stroke-width="0.3" x1="184.98032266829074" x2="189.97916517819016" y1="98.17113171792111" y2="98.06355123074" /><path d="M 185.9800911702706 98.14961562048488 a86.0,86.0 0 0,1 -9.607161424134198,41.387399972396054" fill="none" id="id100" stroke="none" /><text fill="#e1ed5e" style="font-size:6.75px; font-family:Arial;" text-anchor="middle"><textPath startOffset="21.466115282336823" xlink:href="#id100">April</textPath></text><line stroke="#e1ed5e" stroke-width="0.3" x1="174.80103733775053" x2="179.2010983576182" y1="140.37084112569926" y2="142.7455964860345" /><path d="M 175.68104954172406 140.8457921977663 a86.0,86.0 0 0,1 -30.038265399797805,32.042727171017184" fill="none" id="id101" stroke="none" /><text fill="#e1ed5e" style="font-size:6.75px; font-family:Arial;" text-anchor="middle"><textPath startOffset="22.206326154141568" xlink:href="#id101">May</textPath></text><line stroke="#e1ed5e" stroke-width="0.3" x1="143.8653032363475" x2="146.44561519142675" y1="172.8068346515853" y2="177.08958963109032" /><path d="M 144.38136562736335 173.6633856474863 a86.0,86.0 0 0,1 -40.68145358897372,12.25698825130547" fill="none" id="id102" stroke="none" /><text fill="#e1ed5e" style="font-size:6.75px; font-family:Arial;" text-anchor="middle"><textPath startOffset="21.466115282336833" xlink:href="#id102">June</textPath></text><line stroke="#e1ed5e" stroke-width="0.3" x1="102.19456741930631" x2="102.32365962044197" y1="184.97166512339345" y2="189.96999836594603" /><path d="M 102.22038585953345 185.97133177190398 a86.0,86.0 0 0,1 -42.740103519485714,-10.115201625700543" fill="none" id="id103" stroke="none" /><text fill="#e1ed5e" style="font-size:6.75px; font-family:Arial;" text-anchor="middle"><textPath startOffset="22.20632615414155" xlink:href="#id103">July</textPath></text><line stroke="#e1ed5e" stroke-width="0.3" x1="58.666819895761336" x2="56.23545636021788" y1="174.27360380694188" y2="178.64263932499728" /><path d="M 58.180547188652646 175.14741091055294 a86.0,86.0 0 0,1 -31.652253787137756,-30.449443065178592" fill="none" id="id104" stroke="none" /><text fill="#e1ed5e" style="font-size:6.75px; font-family:Arial;" text-anchor="middle"><textPath startOffset="22.20632615414155" xlink:href="#id104">August</textPath></text><line stroke="#e1ed5e" stroke-width="0.3" x1="26.63291911575756" x2="22.317208475507996" y1="142.92168965132927" y2="145.44649492493687" /><path d="M 25.769776987707644 143.4266507060508 a86.0,86.0 0 0,1 -11.730757126820373,-40.83630448921669" fill="none" id="id105" stroke="none" /><text fill="#e1ed5e" style="font-size:6.75px; font-family:Arial;" text-anchor="middle"><textPath startOffset="21.46611528233685" xlink:href="#id105">September</textPath></text><line stroke="#e1ed5e" stroke-width="0.3" x1="15.007084014347285" x2="10.007500721073583" y1="101.09737516637583" y2="101.16192664675087" /><path d="M 14.007167355692545 101.11028546245083 a86.0,86.0 0 0,1 10.666146001902534,-42.60595125391555" fill="none" id="id106" stroke="none" /><text fill="#e1ed5e" style="font-size:6.75px; font-family:Arial;" text-anchor="middle"><textPath startOffset="22.20632615414155" xlink:href="#id106">October</textPath></text><line stroke="#e1ed5e" stroke-width="0.3" x1="26.266209847984243" x2="21.928928074336255" y1="57.711370442889674" y2="55.22380399835377" /><path d="M 25.398753493254645 57.213857153982495 a86.0,86.0 0 0,1 29.58750427330803,-30.492523968695096" fill="none" id="id107" stroke="none" /><text fill="#e1ed5e" style="font-size:6.75px; font-family:Arial;" text-anchor="middle"><textPath startOffset="21.46611528233685" xlink:href="#id107">November</textPath></text><line stroke="#e1ed5e" stroke-width="0.3" x1="56.762969772571076" x2="54.21961505331055" y1="26.818313649435495" y2="22.513508569990535" /><path d="M 56.25429882871897 25.957352633546506 a86.0,86.0 0 0,1 42.265352541879196,-11.944610805530505" fill="none" id="id108" stroke="none" /><text fill="#e1ed5e" style="font-size:6.75px; font-family:Arial;" text-anchor="middle"><textPath startOffset="22.20632615414155" xlink:href="#id108">December</textPath></text></svg>