<?xml version="1.0" encoding="utf-8" ?>
<svg baseProfile="full" height="200mm" version="1.1" viewBox="0,0,200,200" width="200mm" xmlns="http://www.w3.org/2000/svg" xmlns:ev="http://www.w3.org/2001/xml-events" xmlns:xlink="http://www.w3.org/1999/xlink"><defs /><rect fill="#1a1a1a" height="200" width="200" x="0" y="0" /><text alignment-baseline="middle" fill="#e1ed5e" style="dominant-baseline: central; font-size:9.0px; font-family:Arial;" text-anchor="middle" x="100.0" y="100.0">2023</text><line stroke="#e1ed5e" stroke-width="0.3" x1="100.0" x2="100.0" y1="15.0" y2="10.0" /><path d="M 100.0 14.0 a86.0,86.0 0 0,1 42.46469731375804,11.215312516191453" fill="none" id="id73" stroke="none" /><text fill="#e1ed5e" style="font-size:6.75px; font-family:Arial;" text-anchor="middle"><textPath startOffset="22.20632615414155" xlink:href="#id73">January</textPath></text><path d="M 100.0 79.0 l 0.0 -18.159804983748643 a39.15980498374864,39.15980498374864 0 0,0 0.6740716701782955,0.005801947677245836 l -0.3125911909057671 18.157114412679956" fill="#ffad10" stroke="none" /><path d="M 100.36148047927253 79.00311137660856 l 0.3263637407660964 -18.957104210357027 a39.95991332611051,39.95991332611051 0 0,0 0.6876403969513332,0.017759722716470583 l -0.6526307729122974 18.948677695498194" fill="#ffb911" stroke="none" /><path d="M 101.08401301168833 79.027996857942 l 0.9833630494979829 -19.02476514717786 a40.0501625135428,40.0501625135428 0 0,0 0.6881723135727316,0.04151243327177761 l -1.3106974119103263 19.00501944452578" fill="#ffba11" stroke="none" /><path d="M 102.16513564639614 79.11191278185805 l 2.2156476589483844 -21.37540048440845 a42.48992416034669,42.48992416034669 0 0,0 0.726847405892529,0.08166977503994648 l -2.583261768350639 21.3340947558979" fill="#ffdc14" stroke="none" /><path d="M 103.59715602781102 79.31037775812273 l 3.092333047526679 -17.78605156538991 a39.05287107258938,39.05287107258938 0 0,0 0.6613043565881987,0.12084914421542327 l -3.3980325252177788 17.73018693982375" fill="#ffac0f" stroke="none" /><path d="M 105.36241919743992 79.69619591428918 l 4.276572883245428 -16.192448740511093 a37.74767063921993,37.74767063921993 0 0,0 0.6267948775611498,0.17132671735113353 l -4.554665650030288 16.116435482333664" fill="#ff990e" stroke="none" /><path d="M 106.74666289553966 80.11325718540242 l 5.7446531029103 -16.933177273787454 a38.881094257854826,38.881094257854826 0 0,0 0.6319436748532365,0.22047273961696837 l -6.03527878182681 16.831783680998278" fill="#ffa90f" stroke="none" /><path d="M 107.76421540070413 80.48803036053334 l 7.510735779099351 -18.874959146361647 a41.31440953412785,41.31440953412785 0 0,0 0.6585047280716145,0.2686206126494523 l -7.834524376759353 18.742877647528616" fill="#ffcc13" stroke="none" /><path d="M 108.43124777332544 80.76684994638697 l 6.0344775729740014 -13.765698242597685 a36.030281690140846,36.030281690140846 0 0,0 0.5658776751470196,0.253892817900158 l -6.270537366587802 13.659785094180995" fill="#ff800b" stroke="none" /><path d="M 109.41281617654863 81.2277094730956 l 8.763539221069827 -17.477416026854293 a40.55146262188516,40.55146262188516 0 0,0 0.6212860862632444,0.31824686426654375 l -9.063085794921827 17.323976637275248" fill="#ffc112" stroke="none" /><path d="M 109.73455568895987 81.39251694778311 l 9.70291574630886 -18.547003692350533 a41.931744312026,41.931744312026 0 0,0 0.6366735419808478,0.3400889567250998 l -10.020734334818018 18.377236009123678" fill="#ffd513" stroke="none" /><path d="M 110.05341064243156 81.56283822128135 l 9.95084334353351 -18.24906144637889 a41.78575297941495,41.78575297941495 0 0,0 0.6285291802944581,0.3497758083397612 l -10.263496612900003 18.075070240478947" fill="#ffd313" stroke="none" /><line stroke="#e1ed5e" stroke-width="0.3" x1="143.23703022742887" x2="145.7803849466894" y1="26.81831364943548" y2="22.513508569990506" /><path d="M 143.74570117128098 25.957352633546492 a86.0,86.0 0 0,1 28.547481713284135,27.462654790039103" fill="none" id="id74" stroke="none" /><text fill="#e1ed5e" style="font-size:6.75px; font-family:Arial;" text-anchor="middle"><textPath startOffset="19.985693538727396" xlink:href="#id74">February</textPath></text><path d="M 110.68208982089419 81.91981866633111 l 8.170120594864846 -13.828498388411205 a37.06170097508125,37.06170097508125 0 0,0 0.5464623101135203,0.3292374274348751 l -8.406944971196005 13.685814351517715" fill="#ff8f0d" stroke="none" /><path d="M 111.2981086023043 82.29822771554956 l 11.309533197496222 -17.719672234756132 a42.021235102925246,42.021235102925246 0 0,0 0.6063723739741642,0.394401459377713 l -11.612872597254666 17.522371851218892" fill="#ffd614" stroke="none" /><path d="M 111.60114157652 82.49532879139004 l 19.787927671716446 -29.857507169312136 a56.819447453954496,56.819447453954496 0 0,0 0.8106114154104255,0.5473284461765072 l -20.298943781533413 29.51246681083696" fill="#6cff28" stroke="none" /><path d="M 111.90073688211348 82.69761687909136 l 10.301937994375583 -14.977902614957749 a39.17876489707476,39.17876489707476 0 0,0 0.552362489314142,0.38696522292578867 l -10.558231623273375 14.798352549268024" fill="#ffae10" stroke="none" /><path d="M 112.19680574252982 82.90503203632743 l 12.317716655362046 -17.264435955945164 a42.20817984832069,42.20817984832069 0 0,0 0.5878085659439533,0.4270679214841231 l -12.61307053765979 17.049848799644366" fill="#ffd814" stroke="none" /><path d="M 112.77801427241765 83.33499621200491 l 19.242701955418685 -25.096207762932732 a52.62437703141928,52.62437703141928 0 0,0 0.7141063932843007,0.5573713669263164 l -19.671840903862417 24.76125800678319" fill="#9eff22" stroke="none" /><path d="M 113.34407831869373 83.78471172551755 l 13.119026510285277 -15.94181266508616 a41.64582881906826,41.64582881906826 0 0,0 0.5496108368712166,0.4602832699181364 l -13.39149488411561 15.713628237774202" fill="#ffd113" stroke="none" /><path d="M 114.16331599549186 84.49514656593476 l 14.158456786320418 -15.499533964667494 a41.99279523293608,41.99279523293608 0 0,0 0.5294933864332768,0.49210639641582227 l -14.42315805654854 15.25352298217703" fill="#ffd513" stroke="none" /><path d="M 114.68862486808459 84.99185889309783 l 14.765277316384996 -15.086460947637008 a42.10958829902492,42.10958829902492 0 0,0 0.5136651900906284,0.5114593485221194 l -15.022778306642948 14.83006574846477" fill="#ffd714" stroke="none" /><path d="M 115.19652480421416 85.50635884689758 l 5.482054397591014 -5.228493372276633 a28.575622968580713,28.575622968580713 0 0,0 0.33642037108974093,0.3588697956465068 l -5.571242090651219 5.133354159752072" fill="#ff0d01" stroke="none" /><path d="M 115.4437574822437 85.77008943001954 l 21.074119771274034 -19.41773820464832 a49.65601300108342,49.65601300108342 0 0,0 0.5737784445888431,0.6335804894736828 l -21.405241856478913 19.052104927905088" fill="#c3ff1e" stroke="none" /><path d="M 115.68641384162765 86.03803664274999 l 5.951943193465548 -5.297629758502973 a28.968093174431203,28.968093174431203 0 0,0 0.32831627962617266,0.37532226282029996 l -6.042251336669569 5.194391939479725" fill="#ff1302" stroke="none" /><path d="M 115.9244219780498 86.31012108654704 l 15.892216574266108 -13.66219262890427 a41.957529794149515,41.957529794149515 0 0,0 0.46610697072729246,0.5517236356345001 l -16.125034158480517 13.386610043640664" fill="#ffd513" stroke="none" /><path d="M 116.38621287248628 86.86637796730983 l 8.394901257099688 -6.728550457051019 a31.758613217768143,31.758613217768143 0 0,0 0.3382230596261163,0.4295089386357011 l -8.509478397319768 6.5830491244622795" fill="#ff3f05" stroke="none" /><path d="M 116.60985879189232 87.15038557335679 l 9.118926448333228 -7.054526490206938 a32.52914409534128,32.52914409534128 0 0,0 0.33880506940799293,0.4458277570570859 l -9.239007457965336 6.8965139572688186" fill="#ff4b07" stroke="none" /><path d="M 116.82858285166822 87.43820079747576 l 18.025545434779815 -13.455279286647444 a43.49366197183098,43.49366197183098 0 0,0 0.4426772229559329,0.6038112346212232 l -18.254485270249376 13.143005608354727" fill="#ffea16" stroke="none" /><path d="M 117.04232023915458 87.72973835380427 l 16.338839847917537 -11.763764388644212 a41.13315276273023,41.13315276273023 0 0,0 0.4087604709171832,0.5781626977791453 l -16.538912938638603 11.480775190533274" fill="#ffc912" stroke="none" /><path d="M 117.2510076193507 88.02491185347247 l 15.77978138269137 -10.95381076631717 a40.209046587215596,40.209046587215596 0 0,0 0.389789435425867,0.5719678989973981 l -15.96599528378597 10.680564844049366" fill="#ffbc11" stroke="none" /><path d="M 117.45458315368197 88.32363383020206 l 17.263900184957198 -11.548807456675371 a41.770585048754064,41.770585048754064 0 0,0 0.3946392674638458,0.6010626789913204 l -17.46013608777897 11.249926713706376" fill="#ffd213" stroke="none" /><line stroke="#e1ed5e" stroke-width="0.3" x1="172.23445277983987" x2="176.4835382374775" y1="55.19839476539836" y2="52.563006222186495" /><path d="M 173.08426987136738 54.67131705675599 a86.0,86.0 0 0,1 12.851231095245387,41.99856678651699" fill="none" id="id75" stroke="none" /><text fill="#e1ed5e" style="font-size:6.75px; font-family:Arial;" text-anchor="middle"><textPath startOffset="22.20632615414155" xlink:href="#id75">March</textPath></text><path d="M 117.84615892207809 88.93136811851018 l 25.7799334374548 -15.989356275174892 a51.33586132177682,51.33586132177682 0 0,0 0.4592951106538643,0.7549603983969901 l -26.051344346394888 15.543228103570819" fill="#aeff20" stroke="none" /><path d="M 118.03404312379186 89.2402003453031 l 9.769254129898085 -5.828710538839058 a32.37594799566631,32.37594799566631 0 0,0 0.2814245755457468,0.48104582472416796 l -9.868138379914159 5.659685301760995" fill="#ff4906" stroke="none" /><path d="M 118.3937258080291 89.86733742301442 l 6.3996083219412165 -3.5253908005301238 a28.306392199349943,28.306392199349943 0 0,0 0.23142753718923867,0.4288000786601412 l -6.45934395834892 3.414709738537524" fill="#ff0901" stroke="none" /><path d="M 118.56541770881063 90.18545643968196 l 10.745012069389642 -5.680313293523184 a33.15406283856988,33.15406283856988 0 0,0 0.26237583315176427,0.5068265970988358 l -10.841197335701523 5.494513974164004" fill="#ff5507" stroke="none" /><path d="M 118.73160827565052 90.50648371742162 l 19.144258367674595 -9.702654777788675 a42.46262188515709,42.46262188515709 0 0,0 0.32481881093314113,0.6548149021287033 l -19.308437191561143 9.371680287161022" fill="#ffdc14" stroke="none" /><path d="M 119.04729006885535 91.15688171328212 l 19.386756939529967 -9.00072315759167 a42.374268689057416,42.374268689057416 0 0,0 0.3014579791675129,0.664222697326219 l -19.538817235660826 8.665678451423389" fill="#ffdb14" stroke="none" /><path d="M 119.47837535516314 92.15188598940014 l 7.165988073060558 -2.8872783469115455 a28.725785482123513,28.725785482123513 0 0,0 0.18084448216434934,0.4602294814576517 l -7.214626105106608 2.7634998605581096" fill="#ff1001" stroke="none" /><path d="M 119.61058180528143 92.48833698450437 l 10.477036545194323 -4.0131378410882865 a32.21933911159263,32.21933911159263 0 0,0 0.19392269643883003,0.5196164141572525 l -10.544563830134779 3.8321982899017013" fill="#ff4606" stroke="none" /><path d="M 119.7369772167798 92.82701384747503 l 19.957940125310017 -7.253290439534093 a42.235102925243766,42.235102925243766 0 0,0 0.24244340663422553,0.6854201583352052 l -20.079836612754054 6.908672654772274" fill="#ffd914" stroke="none" /><path d="M 119.97218684219823 93.5106431181261 l 20.26971400263184 -6.5860293164630255 a42.312838569880824,42.312838569880824 0 0,0 0.2191090076512227,0.6946354311901051 l -20.38007849405127 6.236143718846502" fill="#ffda14" stroke="none" /><path d="M 120.08093135843002 93.85539295169968 l 29.11227403348268 -8.908126870474673 a51.44469122426869,51.44469122426869 0 0,0 0.2518195658459134,0.8490103898204863 l -29.261299496440294 8.405687093907657" fill="#adff20" stroke="none" /><path d="M 120.18372546131832 94.20196356495316 l 19.941724852681347 -5.7285186273026945 a41.74821235102925,41.74821235102925 0 0,0 0.1924656790849709,0.6924014506823234 l -20.03737730233268 5.384405873201419" fill="#ffd213" stroke="none" /><path d="M 120.45610955862082 95.25157060432595 l 6.862659073485308 -1.5930131769994265 a28.045124593716142,28.045124593716142 0 0,0 0.10510993917869813,0.4711872473502026 l -6.889063399666044 1.47464776009926" fill="#ff0500" stroke="none" /><path d="M 120.53481517161879 95.60439243477599 l 7.536848197513967 -1.6133102089336109 a28.707583965330443,28.707583965330443 0 0,0 0.09927452191150675,0.48409782546935254 l -7.563502015340471 1.4833367273008464" fill="#ff0f01" stroke="none" /><path d="M 120.67395015179393 96.31383870115 l 30.65366682582621 -5.465542844573301 a52.137107258938244,52.137107258938244 0 0,0 0.149926802527988,0.884876475389861 l -30.74320548987442 4.937080580867602" fill="#a4ff21" stroke="none" /><path d="M 120.73433829027371 96.67025291283417 l 20.392884398602895 -3.274912682263424 a41.65417118093174,41.65417118093174 0 0,0 0.10759491905886213,0.7089160834589122 l -20.446235211101058 2.9233974864124295" fill="#ffd113" stroke="none" /><path d="M 120.78858239683441 97.02765380044208 l 17.41991611967313 -2.4906951559531327 a38.59707475622969,38.59707475622969 0 0,0 0.08837627518777691,0.6585059016721935 l -17.460208393918744 2.190470912216275" fill="#ffa50f" stroke="none" /><path d="M 120.83666639777658 97.38593545837742 l 18.83013079107122 -2.3623345632825044 a39.97773564463705,39.97773564463705 0 0,0 0.07978346612297998,0.6835360148000316 l -18.86800461019779 2.03785481015762" fill="#ffb911" stroke="none" /><path d="M 120.87857604477298 97.74499172005257 l 20.27385889100239 -2.1896952918463883 a41.39176598049838,41.39176598049838 0 0,0 0.07041108828152125,0.709030050025762 l -20.30854710496614 1.8403897111161913" fill="#ffcd13" stroke="none" /><path d="M 120.94382443527127 98.46500227214037 l 20.52782214421315 -1.5045084266562097 a41.58288190682557,41.58288190682557 0 0,0 0.04617563001906456,0.7143165585773231 l -20.55067836523663 1.1509328038258513" fill="#ffd013" stroke="none" /><path d="M 120.98425023603335 99.18683210126433 l 20.640575354052817 -0.7998500351720488 a41.65606717226436,41.65606717226436 0 0,0 0.021598285102275603,0.7167419338194579 l -20.651285333610737 0.44443795392759183" fill="#ffd113" stroke="none" /><line stroke="#e1ed5e" stroke-width="0.3" x1="184.98032266829074" x2="189.97916517819016" y1="98.17113171792111" y2="98.06355123074" /><path d="M 185.9800911702706 98.14961562048488 a86.0,86.0 0 0,1 -9.607161424134198,41.387399972396054" fill="none" id="id76" stroke="none" /><text fill="#e1ed5e" style="font-size:6.75px; font-family:Arial;" text-anchor="middle"><textPath startOffset="21.466115282336823" xlink:href="#id76">April</textPath></text><path d="M 120.99980553446 99.90962569577887 l 17.841492419679977 -0.0767822569141999 a38.84165763813651,38.84165763813651 0 0,0 -0.0028774320032307122,0.6686138612878001 l -17.840170690387243 -0.23034108257728492" fill="#ffa90f" stroke="none" /><path d="M 120.99824983174949 100.27111621757518 l 21.285278996116315 0.27482215792737763 a42.287053087757315,42.287053087757315 0 0,0 -0.015662192769158968,0.7277605545780745 l -21.27739474066215 -0.6411725282955669" fill="#ffd914" stroke="none" /><path d="M 120.9764740272857 100.99374915477107 l 15.572134348316538 0.7377214743760923 a36.5895991332611,36.5895991332611 0 0,0 -0.03521949133550962,0.6288676769115625 l -15.557128506093498 -1.005660867623078" fill="#ff880c" stroke="none" /><path d="M 120.92983693683757 101.71520430193887 l 20.508821437602528 1.680701997995933 a41.57757313109426,41.57757313109426 0 0,0 -0.06459452901054168,0.712795245056039 l -20.47685231231491 -2.0334786316005427" fill="#ffd013" stroke="none" /><path d="M 120.8583938346157 102.4346265915055 l 18.949199209341828 2.2117822037781445 a40.077843986998914,40.077843986998914 0 0,0 -0.0858782139073921,0.6845338611702951 l -18.908319486187587 -2.5376338192358343" fill="#ffbb11" stroke="none" /><path d="M 120.41448212921028 104.9243191809786 l 36.983094051594094 8.920949268148075 a59.04382448537379,59.04382448537379 0 0,0 -0.2468276071697176,0.9859535953584269 l -36.82405513012932 -9.556230702903896" fill="#53ff2b" stroke="none" /><path d="M 120.32669344350535 105.2749913415812 l 20.163360496911636 5.232604719208443 a41.83125677139762,41.83125677139762 0 0,0 -0.18687003175075562,0.6954129055026976 l -20.070302388819105 -5.57890855788669" fill="#ffd313" stroke="none" /><path d="M 120.13307415673323 105.97154293290107 l 20.84671129233574 6.183210299771513 a42.7443661971831,42.7443661971831 0 0,0 -0.21529569380265806,0.7035987842725616 l -20.737188826026948 -6.541136056596132" fill="#ffe015" stroke="none" /><path d="M 120.02730092923936 106.31721596034902 l 20.897754402274376 6.591783291814533 a42.91273022751896,42.91273022751896 0 0,0 -0.2282706903077714,0.7025449455798637 l -20.781191460950357 -6.950527137372192" fill="#ffe215" stroke="none" /><path d="M 119.9155931802556 106.66101706037122 l 21.143325847597467 7.071647472868646 a43.29458288190682,43.29458288190682 0 0,0 -0.24246856749526122,0.7047271541618313 l -21.018466449158975 -7.434547330119778" fill="#ffe715" stroke="none" /><path d="M 119.79798401119884 107.00284435728193 l 18.589656348543507 6.575440711062838 a40.71830985915493,40.71830985915493 0 0,0 -0.23941540002272937,0.6587683560397551 l -18.473716687515548 -6.894456864108725" fill="#ffc412" stroke="none" /><path d="M 119.67450827220406 107.3425965602758 l 20.692694272712128 7.722587202055323 a43.08678223185265,43.08678223185265 0 0,0 -0.2653032103089238,0.6926229648793282 l -20.5566967828097 -8.077633733767794" fill="#ffe415" stroke="none" /><path d="M 119.41010516605496 108.01547362559984 l 19.412909081571904 8.016631512725237 a42.003033586132176,42.003033586132176 0 0,0 -0.28171838416920053,0.6658990419106248 l -19.272039716210397 -8.349605080302025" fill="#ffd614" stroke="none" /><path d="M 119.12269723197855 108.67885076344098 l 6.152204705347809 2.7921828106216684 a27.756175514626218,27.756175514626218 0 0,0 -0.20119973584642226,0.43336633144441017 l -6.103230352661555 -2.897669209344909" fill="#ff0000" stroke="none" /><line stroke="#e1ed5e" stroke-width="0.3" x1="174.80103733775053" x2="179.2010983576182" y1="140.37084112569926" y2="142.7455964860345" /><path d="M 175.68104954172406 140.8457921977663 a86.0,86.0 0 0,1 -30.038265399797805,32.042727171017184" fill="none" id="id77" stroke="none" /><text fill="#e1ed5e" style="font-size:6.75px; font-family:Arial;" text-anchor="middle"><textPath startOffset="22.206326154141568" xlink:href="#id77">May</textPath></text><path d="M 117.94076556474637 110.91462005526583 l 25.698899435178767 15.634434448250767 a51.081040086673895,51.081040086673895 0 0,0 -0.463464018049983,0.7472515672525594 l -25.42597077746082 -16.0744823468686" fill="#b1ff20" stroke="none" /><path d="M 117.55443506779139 111.5257021239791 l 25.407334568865117 16.681674395908644 a51.394257854821234,51.394257854821234 0 0,0 -0.49190886802570116,0.7353370146267636 l -25.116422595428695 -17.116548324741213" fill="#adff20" stroke="none" /><path d="M 116.71984013943494 112.70617746262583 l 24.14534516344003 18.349161115447824 a51.32638136511376,51.32638136511376 0 0,0 -0.5406212216585111,0.6988258054676902 l -23.82591712456345 -18.762064915028766" fill="#aeff20" stroke="none" /><path d="M 116.27256486870786 113.27417163493432 l 23.535276783837002 19.198651597026625 a51.37264355362947,51.37264355362947 0 0,0 -0.5648642329798199,0.6804153569880412 l -23.20131655096364 -19.600928211128437" fill="#aeff20" stroke="none" /><path d="M 115.80600337817218 113.82643327865902 l 5.446478195479591 4.764352225652766 a28.23624052004334,28.23624052004334 0 0,0 -0.323158596580639,0.3630721090391091 l -5.363660749250613 -4.857398504432743" fill="#ff0801" stroke="none" /><path d="M 115.56566222782051 114.09645910891815 l 22.37795828083037 20.265759929121288 a51.19062838569881,51.19062838569881 0 0,0 -0.5971108714301466,0.6480459201080572 l -22.025801001404503 -20.64795710403068" fill="#b0ff20" stroke="none" /><path d="M 115.07121518719521 114.62390073753431 l 22.213849961538383 21.554541740736298 a51.95243770314193,51.95243770314193 0 0,0 -0.6282766002824358,0.6364408790481232 l -21.83953273620041 -21.933723113765087" fill="#a6ff21" stroke="none" /><path d="M 114.55890576462653 115.13401014063108 l 21.04994841963545 21.88146128512949 a51.362784398699894,51.362784398699894 0 0,0 -0.6424363289261595,0.6074636478535246 l -20.67017625631848 -22.240559569728937" fill="#aeff20" stroke="none" /><path d="M 113.75828350139079 115.86535959552629 l 19.91373655870317 22.963518040783683 a51.3953954496208,51.3953954496208 0 0,0 -0.6733641730078863,0.5738555565610772 l -19.515506909118237 -23.302897987567707" fill="#adff20" stroke="none" /><path d="M 113.20401910651253 116.32954008644616 l 19.234283664871413 23.787227480205576 a51.59068255687974,51.59068255687974 0 0,0 -0.6953502925391648,0.5524283266842651 l -18.821975879614897 -24.114789720894965" fill="#abff21" stroke="none" /><path d="M 112.63410532772338 116.77436683061366 l 4.241482236421686 5.631437849670806 a28.050054171180932,28.050054171180932 0 0,0 -0.3881793963199343,0.28716583733878304 l -4.143917869683188 -5.703613635749358" fill="#ff0500" stroke="none" /><path d="M 112.04921762599082 117.19931262002967 l 4.111485472704018 5.868822870724101 a28.165709642470205,28.165709642470205 0 0,0 -0.3994744146057439,0.2747621449680192 l -4.009854173475391 -5.9387258050572145" fill="#ff0701" stroke="none" /><path d="M 111.7513745106137 117.40417183066458 l 17.06516866906059 25.274075604292285 a51.495882990249186,51.495882990249186 0 0,0 -0.7389053550327807,0.48970617803822275 l -16.627588615287845 -25.564079803421826" fill="#acff21" stroke="none" /><path d="M 111.1453310114006 117.79835938074945 l 10.902822454724221 17.411089191984495 a41.54306608884073,41.54306608884073 0 0,0 -0.6093394501880808,0.37430605844378895 l -10.601503804603832 -17.596183717256665" fill="#ffcf13" stroke="none" /><line stroke="#e1ed5e" stroke-width="0.3" x1="143.8653032363475" x2="146.44561519142675" y1="172.8068346515853" y2="177.08958963109032" /><path d="M 144.38136562736335 173.6633856474863 a86.0,86.0 0 0,1 -40.68145358897372,12.25698825130547" fill="none" id="id78" stroke="none" /><text fill="#e1ed5e" style="font-size:6.75px; font-family:Arial;" text-anchor="middle"><textPath startOffset="21.466115282336833" xlink:href="#id78">June</textPath></text><path d="M 110.5260780823613 118.17145234162733 l 15.255210418353192 26.33548097492508 a51.434832069339116,51.434832069339116 0 0,0 -0.769933470676086,0.43718831867914054 l -14.799628180755906 -26.59417245939885" fill="#adff20" stroke="none" /><path d="M 109.57404056367764 118.69057910512821 l 3.5452302246178626 6.921049218289349 a28.776218851570963,28.776218851570963 0 0,0 -0.44280584159765896,0.22203204147554698 l -3.425570475337443 -6.981049100674198" fill="#ff1001" stroke="none" /><path d="M 109.2508944713604 118.85261126421891 l 13.700611461755813 27.920792175310694 a52.10108342361863,52.10108342361863 0 0,0 -0.8085277652962084,0.3881424614935617 l -13.21797102845937 -28.152488913303817" fill="#a5ff21" stroke="none" /><path d="M 108.92500713936063 119.00905698771935 l 12.893234853200946 27.46084482102765 a51.336998916576384,51.336998916576384 0 0,0 -0.803135578349936,0.3686801527078731 l -12.418631279083591 -27.678712044069595" fill="#aeff20" stroke="none" /><path d="M 108.2653958097858 119.30500536409082 l 11.907214573862785 27.810990121930836 a51.25281690140845,51.25281690140845 0 0,0 -0.8140132008462199,0.3402575839721453 l -11.426729913519104 -28.011832748922952" fill="#afff20" stroke="none" /><path d="M 107.59598834532513 119.57807347666477 l 13.028807095234537 33.58074433865855 a57.01966413867822,57.01966413867822 0 0,0 -0.9180974498825973,0.3471458970696284 l -12.448839424591664 -33.80003848583481" fill="#6aff28" stroke="none" /><path d="M 107.2578585660854 119.70592522655815 l 10.396377831896407 28.227367937385427 a51.081040086673895,51.081040086673895 0 0,0 -0.8277085125801678,0.2967868241529262 l -9.908949758686504 -28.402142302578312" fill="#b1ff20" stroke="none" /><path d="M 106.57524785965236 119.94407469862006 l 9.667324060608065 29.32297569855077 a51.875460455037924,51.875460455037924 0 0,0 -0.8504577975356462,0.2722897301988473 l -9.161144917981478 -29.485038275409323" fill="#a7ff21" stroke="none" /><path d="M 105.88484417918355 120.15858648285463 l 8.483718034190632 29.06105216741902 a51.2740520043337,51.2740520043337 0 0,0 -0.84936402749006,0.2400387582366463 l -7.982222838595967 -29.202779718994186" fill="#afff20" stroke="none" /><path d="M 104.83641907484287 120.43548508189849 l 6.9036432698700505 29.170197385503037 a50.97600216684724,50.97600216684724 0 0,0 -0.8556196965866406,0.19473625728454869 l -6.400503423890548 -29.28471037636527" fill="#b2ff20" stroke="none" /><path d="M 104.13013068566511 120.58985236759428 l 6.03955170309168 30.10884821749525 a51.708613217768146,51.708613217768146 0 0,0 -0.8742015379949201,0.16754280537392272 l -5.520382550525056 -30.20834822121764" fill="#a9ff21" stroke="none" /><path d="M 102.34483914955558 120.86867818915974 l 0.8106589085841691 7.214729371788593 a28.260130010834235,28.260130010834235 0 0,0 -0.483877217503988,0.05015585204886509 l -0.6863490944745784 -7.227614592293217" fill="#ff0801" stroke="none" /><path d="M 101.62511606390274 120.93702456842531 l 2.8759683091161286 37.0522576715979 a58.16370530877573,58.16370530877573 0 0,0 -0.9988570526392739,0.06888703048077076 l -2.2377484956979243 -37.09627304659495" fill="#5dff2a" stroke="none" /><path d="M 100.90346689309514 120.98055641714683 l 1.3162589262476596 30.56652642478617 a51.59485373781149,51.59485373781149 0 0,0 -0.8876271720854423,0.030571674535037948 l -0.7899114024875651 -30.5846548977473" fill="#abff21" stroke="none" /><line stroke="#e1ed5e" stroke-width="0.3" x1="102.19456741930631" x2="102.32365962044197" y1="184.97166512339345" y2="189.96999836594603" /><path d="M 102.22038585953345 185.97133177190398 a86.0,86.0 0 0,1 -42.740103519485714,-10.115201625700543" fill="none" id="id79" stroke="none" /><text fill="#e1ed5e" style="font-size:6.75px; font-family:Arial;" text-anchor="middle"><textPath startOffset="22.20632615414155" xlink:href="#id79">July</textPath></text><path d="M 100.18074693466247 120.99922214144158 l 0.06005641648111185 6.977368844793542 a27.977627302275188,27.977627302275188 0 0,0 -0.4816067022871298,0.0 l 0.06005641648110705 -6.977368844793542" fill="#ff0400" stroke="none" /><path d="M 99.81925306533755 120.99922214144158 l -0.26070901301618565 30.289235548182614 a51.29035752979415,51.29035752979415 0 0,0 -0.8827810824326062,-0.015197876909008024 l 0.7820497853414597 -30.280260193994447" fill="#afff20" stroke="none" /><path d="M 99.09653310690486 120.98055641714683 l -1.3034850985608786 30.269889088660733 a51.29794149512459,51.29794149512459 0 0,0 -0.8818651878841317,-0.04558235719048984 l 1.824338354858499 -30.242966924708043" fill="#aeff20" stroke="none" /><path d="M 98.01472825383883 120.90594882070398 l -2.919080769558657 30.739445766000436 a51.87773564463705,51.87773564463705 0 0,0 -0.8882639380820762,-0.09207218907431977 l 3.4477773042463262 -30.684644208470356" fill="#a7ff21" stroke="none" /><path d="M 97.2962882734958 120.8252237178851 l -3.874978393722723 29.846855032724044 a51.09734561213435,51.09734561213435 0 0,0 -0.8712618347595401,-0.12074895134174786 l 4.388168819669094 -29.775731515889692" fill="#b1ff20" stroke="none" /><path d="M 96.58105272829116 120.7198165907248 l -5.615704237566842 34.03280383788551 a55.4930119176598,55.4930119176598 0 0,0 -0.9411377747899203,-0.16362886571867807 l 6.200690983828812 -33.93109639364583" fill="#7cff26" stroke="none" /><path d="M 95.86986931433489 120.58985236759428 l -6.017178297427183 29.997310555698974 a51.59485373781149,51.59485373781149 0 0,0 -0.8692714189876012,-0.1821642776165516 l 6.53264117784417 -29.88929029735588" fill="#abff21" stroke="none" /><path d="M 95.16358092515715 120.4354850818985 l -2.4393437630644725 10.307041699306408 a31.591765980498373,31.591765980498373 0 0,0 -0.5281040798388162,-0.12979513411595406 l 2.6164011276464993 -10.263525306876424" fill="#ff3d05" stroke="none" /><path d="M 94.81253420990036 120.34920634021253 l -7.165784271264401 28.109683731062816 a50.00866738894908,50.00866738894908 0 0,0 -0.8323098664142433,-0.2198206004666604 l 7.648584580490133 -27.98217178129257" fill="#bfff1e" stroke="none" /><path d="M 94.11515582081647 120.15858648285463 l -8.736411415521388 29.926655610110036 a52.17578548212351,52.17578548212351 0 0,0 -0.8599688135047738,-0.2591015490772425 l 9.25025520346641 -29.771838691927066" fill="#a4ff21" stroke="none" /><path d="M 93.42475214034765 119.94407469862007 l -9.341292449510075 28.334054984892212 a50.834182015167926,50.834182015167926 0 0,0 -0.828670433579529,-0.2811300029866074 l 9.827632616026829 -28.169061995007482" fill="#b4ff20" stroke="none" /><path d="M 92.40401165467489 119.57807347666478 l -11.04257547319311 28.461385689045294 a51.5284940411701,51.5284940411701 0 0,0 -0.8241588157967495,-0.32794980150502756 l 11.530855365031718 -28.2670890431342" fill="#acff21" stroke="none" /><path d="M 91.7346041902142 119.30500536409082 l -11.975719750401089 27.97099368751621 a51.42686890574215,51.42686890574215 0 0,0 -0.8107796696084661,-0.35542198053821583 l 12.455420094667298 -27.76070715368354" fill="#adff20" stroke="none" /><path d="M 91.07499286063937 119.00905698771935 l -13.082435979629434 27.863817607296742 a51.782177681473456,51.782177681473456 0 0,0 -0.8035788442739427,-0.3857666786574442 l 13.56012749190362 -27.634496652139735" fill="#a8ff21" stroke="none" /><line stroke="#e1ed5e" stroke-width="0.3" x1="58.666819895761336" x2="56.23545636021788" y1="174.27360380694188" y2="178.64263932499728" /><path d="M 58.180547188652646 175.14741091055294 a86.0,86.0 0 0,1 -31.652253787137756,-30.449443065178592" fill="none" id="id80" stroke="none" /><text fill="#e1ed5e" style="font-size:6.75px; font-family:Arial;" text-anchor="middle"><textPath startOffset="22.20632615414155" xlink:href="#id80">August</textPath></text><path d="M 89.4739219176387 118.17145234162733 l -8.112188742419281 14.004290103659345 a37.184182015167934,37.184182015167934 0 0,0 -0.55109105393566,-0.32559430843038867 l 8.352047667383324 -13.862577222935206" fill="#ff910d" stroke="none" /><path d="M 85.97065885151581 115.62618273729859 l -20.465409065031494 22.79481398727706 a51.63391115926328,51.63391115926328 0 0,0 -0.6562435310093224,-0.5994629061930715 l 20.85475214550767 -22.439158314497412" fill="#aaff21" stroke="none" /><path d="M 85.70375840098266 115.38237550388516 l -7.831438811653824 8.426419748309208 a32.503737811484285,32.503737811484285 0 0,0 -0.40655081768729395,-0.38441917374591994 l 7.975325463731934 -8.290365937817356" fill="#ff4b06" stroke="none" /><path d="M 85.44109423537348 115.13401014063109 l -21.58388012075418 22.436484300579522 a52.1329360780065,52.1329360780065 0 0,0 -0.6413593580258407,-0.627705120079438 l 21.966889431155817 -22.061629077577514" fill="#a4ff21" stroke="none" /><path d="M 84.9287848128048 114.62390073753433 l -22.28161328009401 21.62029384047712 a52.04685807150596,52.04685807150596 0 0,0 -0.6183500052452363,-0.6483375083688867 l 22.650469836718205 -21.233549215525734" fill="#a5ff21" stroke="none" /><path d="M 84.43433777217949 114.09645910891817 l -8.660613041275429 7.843159886657557 a32.68423618634886,32.68423618634886 0 0,0 -0.37406509159011875,-0.4202660958383116 l 8.794336982513885 -7.6929196210783815" fill="#ff4e07" stroke="none" /><path d="M 84.19399662182784 113.82643327865904 l -23.187561077154957 20.283512438752183 a51.80720476706392,51.80720476706392 0 0,0 -0.5813693267409081,-0.6762638692895313 l 23.533272913466643 -19.881371470301122" fill="#a8ff21" stroke="none" /><path d="M 83.72743513129214 113.27417163493432 l -24.081221629016834 19.644000295071194 a52.07719393282774,52.07719393282774 0 0,0 -0.5606533685075059,-0.6995012816094207 l 24.4157929095792 -19.226571179883514" fill="#a5ff21" stroke="none" /><path d="M 83.28015986056508 112.70617746262583 l -24.339474040465234 18.496688600252252 a51.57020585048754,51.57020585048754 0 0,0 -0.5310226661611018,-0.7113916398066654 l 24.65425797332142 -18.07498408093628" fill="#abff21" stroke="none" /><path d="M 82.85270091963577 112.12312394758628 l -20.262794265388155 14.325776045105481 a45.81549295774648,45.81549295774648 0 0,0 -0.44973162648711923,-0.6478719505243908 l 20.506386799037408 -13.974862832394077" fill="#f5ff19" stroke="none" /><path d="M 82.6465618267979 111.8261652097733 l -25.703644392766726 17.516733113529863 a52.10487540628385,52.10487540628385 0 0,0 -0.49871038807732676,-0.7455043642615847 l 26.001357886254784 -17.071691835062456" fill="#a5ff21" stroke="none" /><path d="M 82.24976979558568 111.22182372390057 l -26.378867751056394 16.676910695210193 a52.20839653304442,52.20839653304442 0 0,0 -0.4736926497991362,-0.7637433784994413 l 26.662025040523485 -16.220370985345486" fill="#a3ff21" stroke="none" /><line stroke="#e1ed5e" stroke-width="0.3" x1="26.63291911575756" x2="22.317208475507996" y1="142.92168965132927" y2="145.44649492493687" /><path d="M 25.769776987707644 143.4266507060508 a86.0,86.0 0 0,1 -11.730757126820373,-40.83630448921669" fill="none" id="id81" stroke="none" /><text fill="#e1ed5e" style="font-size:6.75px; font-family:Arial;" text-anchor="middle"><textPath startOffset="21.46611528233685" xlink:href="#id81">September</textPath></text><path d="M 81.87401531095188 110.60418214915194 l -27.820669891099516 16.27583031198835 a53.231852654387865,53.231852654387865 0 0,0 -0.4558877352858304,-0.7948786933624209 l 28.096709622537723 -15.794531772767623" fill="#97ff23" stroke="none" /><path d="M 81.51974371655577 109.97397251340807 l -53.56671469201161 28.910472440272965 a81.87042253521126,81.87042253521126 0 0,0 -0.6586572637091764,-1.245931321467046 l 54.05642446394567 -27.984126103719795" fill="#4ae8ff" stroke="none" /><path d="M 81.35079622478065 109.6543875284942 l -55.92134484146761 28.949564856569218 a83.97042253521127,83.97042253521127 0 0,0 -0.6534551499673081,-1.2893290041916583 l 56.411378661221185 -27.982681640674873" fill="#4dd2ff" stroke="none" /><path d="M 81.02952815118164 109.00673069616217 l -56.9114155464551 27.020192088486496 a84.0,84.0 0 0,0 -0.6089015326406932,-1.3115197308846915 l 57.36809169593562 -26.03655229032298" fill="#4dd2ff" stroke="none" /><path d="M 80.45479744820244 107.68017299344265 l -28.460186597633726 11.183263817103928 a51.57854821235103,51.57854821235103 0 0,0 -0.31759053971995116,-0.8291286825452125 l 28.64847141694719 -10.691711567725559" fill="#abff21" stroke="none" /><line stroke="#e1ed5e" stroke-width="0.3" x1="15.007084014347285" x2="10.007500721073583" y1="101.09737516637583" y2="101.16192664675087" /><path d="M 14.007167355692545 101.11028546245083 a86.0,86.0 0 0,1 10.666146001902534,-42.60595125391555" fill="none" id="id82" stroke="none" /><text fill="#e1ed5e" style="font-size:6.75px; font-family:Arial;" text-anchor="middle"><textPath startOffset="22.20632615414155" xlink:href="#id82">October</textPath></text><line stroke="#e1ed5e" stroke-width="0.3" x1="26.266209847984243" x2="21.928928074336255" y1="57.711370442889674" y2="55.22380399835377" /><path d="M 25.398753493254645 57.213857153982495 a86.0,86.0 0 0,1 29.58750427330803,-30.492523968695096" fill="none" id="id83" stroke="none" /><text fill="#e1ed5e" style="font-size:6.75px; font-family:Arial;" text-anchor="middle"><textPath startOffset="21.46611528233685" xlink:href="#id83">November</textPath></text><line stroke="#e1ed5e" stroke-width="0.3" x1="56.762969772571076" x2="54.21961505331055" y1="26.818313649435495" y2="22.513508569990535" /><path d="M 56.25429882871897 25.957352633546506 a86.0,86.0 0 0,1 42.265352541879196,-11.944610805530505" fill="none" id="id84" stroke="none" /><text fill="#e1ed5e" style="font-size:6.75px; font-family:Arial;" text-anchor="middle"><textPath startOffset="22.20632615414155" xlink:href="#id84">December</textPath></text></svg>