<?xml version="1.0" encoding="utf-8" ?>
<svg baseProfile="full" height="200mm" version="1.1" viewBox="0,0,200,200" width="200mm" xmlns="http://www.w3.org/2000/svg" xmlns:ev="http://www.w3.org/2001/xml-events" xmlns:xlink="http://www.w3.org/1999/xlink"><defs /><rect fill="#1a1a1a" height="200" width="200" x="0" y="0" /><text alignment-baseline="middle" fill="#e1ed5e" style="dominant-baseline: central; font-size:9.0px; font-family:Arial;" text-anchor="middle" x="100.0" y="100.0">2023</text><line stroke="#e1ed5e" stroke-width="0.3" x1="100.0" x2="100.0" y1="15.0" y2="10.0" /><path d="M 100.0 14.0 a86.0,86.0 0 0,1 42.46469731375804,11.215312516191453" fill="none" id="id73" stroke="none" /><text fill="#e1ed5e" style="font-size:6.75px; font-family:Arial;" text-anchor="middle"><textPath startOffset="22.20632615414155" xlink:href="#id73">January</textPath></text><path d="M 100.0 79.0 l 0.0 -31.737628471006865 a52.737628471006865,52.737628471006865 0 0,0 0.9077915816855285,0.007813648743598047 l -0.5463111024130002 31.732926198871827" fill="#cdff1d" stroke="none" /><path d="M 100.36148047927253 79.00311137660856 l 0.5380694592239339 -31.254203628671597 a52.25883496238173,52.25883496238173 0 0,0 0.8992833824358081,0.023225836623906274 l -1.0759794768546098 31.24031099990533" fill="#d4ff1c" stroke="none" /><path d="M 101.08401301168833 79.027996857942 l 1.6212588071988474 -31.36590099200697 a52.40777332381752,52.40777332381752 0 0,0 0.9005101690973504,0.054321232586553414 l -2.1609310251358096 31.333346490040114" fill="#d2ff1c" stroke="none" /><path d="M 102.16513564639614 79.11191278185805 l 3.6529164159390475 -35.2414116980258 a56.43022575163171,56.43022575163171 0 0,0 0.9653150484975738,0.10846439323349343 l -4.258998167946347 35.17331135132171" fill="#99ff23" stroke="none" /><path d="M 103.59715602781102 79.31037775812273 l 5.098254604320313 -29.323432467422577 a50.76333132701993,50.76333132701993 0 0,0 0.8596042042361066,0.15708717387235074 l -5.60225392965932 29.231329812199487" fill="#eaff1a" stroke="none" /><path d="M 105.36241919743992 79.69619591428918 l 8.301328369502736 -31.43143768879606 a53.509188360877,53.509188360877 0 0,0 0.8885127108268501,0.24286408763107686 l -8.841138969553295 31.28388706033869" fill="#c2ff1e" stroke="none" /><path d="M 106.74666289553966 80.11325718540242 l 10.262292366875055 -30.249557766281107 a52.94292393752957,52.94292393752957 0 0,0 0.8604939379708634,0.30020943871665406 l -10.781468308909192 30.068427474392248" fill="#caff1d" stroke="none" /><path d="M 107.76421540070413 80.48803036053334 l 12.382842950785204 -31.118875924551595 a54.49207724748418,54.49207724748418 0 0,0 0.8685417730651704,0.3542999970184491 l -12.91666859343876 30.901115041349566" fill="#b4ff20" stroke="none" /><path d="M 108.43124777332544 80.76684994638697 l 12.550046793968006 -28.628850634886334 a52.25883496238173,52.25883496238173 0 0,0 0.8207570589850904,0.36824976787258995 l -13.040985971419877 28.40858053649721" fill="#d4ff1c" stroke="none" /><path d="M 109.41281617654863 81.2277094730956 l 14.448267512685913 -28.81465761907873 a53.23409573453034,53.23409573453034 0 0,0 0.8155958097753,0.41777985168002535 l -14.942123810049969 28.561685242086206" fill="#c6ff1e" stroke="none" /><path d="M 109.73455568895987 81.39251694778311 l 16.256055784478836 -31.073249994207256 a56.06859299815989,56.06859299815989 0 0,0 0.8513213624595872,0.4547463887000679 l -16.788522193466736 30.788824879005432" fill="#9eff22" stroke="none" /><path d="M 110.05341064243156 81.56283822128135 l 16.56348659775309 -30.37612735458209 a55.59852888976259,55.59852888976259 0 0,0 0.8362969504432635,0.46539834748217945 l -17.08390763726839 30.08651360953973" fill="#a5ff21" stroke="none" /><line stroke="#e1ed5e" stroke-width="0.3" x1="143.23703022742887" x2="145.7803849466894" y1="26.81831364943548" y2="22.513508569990506" /><path d="M 143.74570117128098 25.957352633546492 a86.0,86.0 0 0,1 28.547481713284135,27.462654790039103" fill="none" id="id74" stroke="none" /><text fill="#e1ed5e" style="font-size:6.75px; font-family:Arial;" text-anchor="middle"><textPath startOffset="19.985693538727396" xlink:href="#id74">February</textPath></text><path d="M 110.68208982089419 81.91981866633111 l 16.1964052358662 -27.4135444026375 a52.840633776352064,52.840633776352064 0 0,0 0.7791173648695318,0.46940949473019655 l -16.66588466695337 27.13068829844869" fill="#cbff1d" stroke="none" /><path d="M 111.2981086023043 82.29822771554956 l 18.836964401556784 -29.513581972353276 a56.012608424742275,56.012608424742275 0 0,0 0.8082698725966733,0.5257212086260851 l -19.342201299937734 29.184961839567663" fill="#9fff22" stroke="none" /><path d="M 111.60114157652 82.49532879139004 l 34.803424729560035 -52.514013625829904 a84.0,84.0 0 0,0 1.1983812223738326,0.8091523508053196 l -35.70221064634041 51.90714936272591" fill="#4dd2ff" stroke="none" /><path d="M 111.90073688211348 82.69761687909136 l 17.969343873630113 -26.125480733902695 a52.7086433457234,52.7086433457234 0 0,0 0.7431137128314337,0.520598645107279 l -18.4163887260452 25.81229724603148" fill="#cdff1d" stroke="none" /><path d="M 112.19680574252982 82.90503203632743 l 20.423021873109178 -28.624781931615 a56.16358859761058,56.16358859761058 0 0,0 0.7821573588452457,0.5682705847934176 l -20.912724548308212 28.268992112004906" fill="#9dff22" stroke="none" /><path d="M 112.77801427241765 83.33499621200491 l 31.72494419461243 -41.37546757310969 a73.13829112125487,73.13829112125487 0 0,0 0.9924777114680821,0.7746445962214417 l -32.43245446123994 40.82324458766502" fill="#3cffa7" stroke="none" /><path d="M 113.34407831869373 83.78471172551755 l 22.221638107719688 -27.003009068308042 a55.97089788572187,55.97089788572187 0 0,0 0.7386624999361281,0.6186086009002271 l -22.683158144614932 26.616499310013996" fill="#a0ff22" stroke="none" /><path d="M 114.16331599549186 84.49514656593476 l 23.34267769815024 -25.553676595483886 a55.61027289210967,55.61027289210967 0 0,0 0.7011981829451326,0.6516872917088538 l -23.779083764890217 25.148084717700392" fill="#a4ff21" stroke="none" /><path d="M 114.68862486808459 84.99185889309783 l 24.643926969080226 -25.179997222461452 a56.2328738053047,56.2328738053047 0 0,0 0.6859451963156099,0.682999529649965 l -25.07370796556316 24.752061842161368" fill="#9cff22" stroke="none" /><path d="M 115.19652480421416 85.50635884689758 l 9.533652816856343 -9.092693532633316 a34.17450612777362,34.17450612777362 0 0,0 0.4023359366812522,0.4291839251896298 l -9.688756075508058 8.92724019056563" fill="#ff0400" stroke="none" /><path d="M 115.4437574822437 85.77008943001954 l 36.895161917946055 -33.99527965658305 a71.16903439254882,71.16903439254882 0 0,0 0.8223627993603831,0.9080735427714791 l -37.474868357922475 33.35515332654202" fill="#39ff8c" stroke="none" /><path d="M 115.68641384162765 86.03803664274999 l 10.299368938602733 -9.167131071218085 a34.788157694570614,34.788157694570614 0 0,0 0.39427926583069967,0.45072935890720894 l -10.45564006801128 8.988486156107928" fill="#ff0f01" stroke="none" /><path d="M 115.9244219780498 86.31012108654704 l 26.89841919322032 -23.123985424780958 a56.47173039223891,56.47173039223891 0 0,0 0.6273454923107777,0.7425791879416551 l -27.292475299018218 22.657547287210196" fill="#99ff23" stroke="none" /><path d="M 116.38621287248628 86.86637796730983 l 13.840723678192319 -11.093401194213941 a38.73778965913907,38.73778965913907 0 0,0 0.4125499325750376,0.5238965192687063 l -14.029627691361322 10.853512280992197" fill="#ff5507" stroke="none" /><path d="M 116.60985879189232 87.15038557335679 l 15.034289948302172 -11.630732773498282 a40.00799355792575,40.00799355792575 0 0,0 0.41670051307033495,0.5483290301154555 l -15.232266401596622 11.370218967501794" fill="#ff6a09" stroke="none" /><path d="M 116.82858285166822 87.43820079747576 l 29.71836056869477 -22.18345307995743 a58.08485601214632,58.08485601214632 0 0,0 0.5911859703123017,0.8063769991178231 l -30.095809151520697 21.668613637168114" fill="#83ff25" stroke="none" /><path d="M 117.04232023915458 87.72973835380427 l 26.937569414492668 -19.39471974414567 a54.193189059121224,54.193189059121224 0 0,0 0.5385445071057564,0.761733012988647 l -27.26742654140231 18.92816023082523" fill="#b8ff1f" stroke="none" /><path d="M 117.2510076193507 88.02491185347247 l 26.015659709588935 -18.05922442831303 a52.669388012358354,52.669388012358354 0 0,0 0.5105808955960315,0.7492144619137927 l -26.3226650708537 17.60873194312883" fill="#ceff1d" stroke="none" /><path d="M 117.45458315368197 88.32363383020206 l 29.153538789101596 -19.502464828279237 a56.07527559843144,56.07527559843144 0 0,0 0.5297868262838309,0.8069016830152147 l -29.484922250743352 18.997745081286347" fill="#9eff22" stroke="none" /><line stroke="#e1ed5e" stroke-width="0.3" x1="172.23445277983987" x2="176.4835382374775" y1="55.19839476539836" y2="52.563006222186495" /><path d="M 173.08426987136738 54.67131705675599 a86.0,86.0 0 0,1 12.851231095245387,41.99856678651699" fill="none" id="id75" stroke="none" /><text fill="#e1ed5e" style="font-size:6.75px; font-family:Arial;" text-anchor="middle"><textPath startOffset="22.20632615414155" xlink:href="#id75">March</textPath></text><path d="M 117.84615892207809 88.93136811851018 l 42.502867539632376 -26.361336170883572 a71.01413593981076,71.01413593981076 0 0,0 0.6353540114973771,1.0443549398127039 l -42.950337349415975 25.62581345786379" fill="#39ff8a" stroke="none" /><path d="M 118.03404312379186 89.2402003453031 l 16.106376506030994 -9.609680046698921 a39.75530097742904,39.75530097742904 0 0,0 0.34556883723571485,0.5906891606202461 l -16.269405017737036 9.33101147372478" fill="#ff6609" stroke="none" /><path d="M 118.3937258080291 89.86733742301442 l 11.327035987067362 -6.239792571237881 a33.93200508754905,33.93200508754905 0 0,0 0.2774214500385723,0.5140198139051958 l -11.4327655363244 6.043891774000226" fill="#ff0000" stroke="none" /><line stroke="#e1ed5e" stroke-width="0.3" x1="184.98032266829074" x2="189.97916517819016" y1="98.17113171792111" y2="98.06355123074" /><path d="M 185.9800911702706 98.14961562048488 a86.0,86.0 0 0,1 -9.607161424134198,41.387399972396054" fill="none" id="id76" stroke="none" /><text fill="#e1ed5e" style="font-size:6.75px; font-family:Arial;" text-anchor="middle"><textPath startOffset="21.466115282336823" xlink:href="#id76">April</textPath></text><line stroke="#e1ed5e" stroke-width="0.3" x1="174.80103733775053" x2="179.2010983576182" y1="140.37084112569926" y2="142.7455964860345" /><path d="M 175.68104954172406 140.8457921977663 a86.0,86.0 0 0,1 -30.038265399797805,32.042727171017184" fill="none" id="id77" stroke="none" /><text fill="#e1ed5e" style="font-size:6.75px; font-family:Arial;" text-anchor="middle"><textPath startOffset="22.206326154141568" xlink:href="#id77">May</textPath></text><line stroke="#e1ed5e" stroke-width="0.3" x1="143.8653032363475" x2="146.44561519142675" y1="172.8068346515853" y2="177.08958963109032" /><path d="M 144.38136562736335 173.6633856474863 a86.0,86.0 0 0,1 -40.68145358897372,12.25698825130547" fill="none" id="id78" stroke="none" /><text fill="#e1ed5e" style="font-size:6.75px; font-family:Arial;" text-anchor="middle"><textPath startOffset="21.466115282336833" xlink:href="#id78">June</textPath></text><line stroke="#e1ed5e" stroke-width="0.3" x1="102.19456741930631" x2="102.32365962044197" y1="184.97166512339345" y2="189.96999836594603" /><path d="M 102.22038585953345 185.97133177190398 a86.0,86.0 0 0,1 -42.740103519485714,-10.115201625700543" fill="none" id="id79" stroke="none" /><text fill="#e1ed5e" style="font-size:6.75px; font-family:Arial;" text-anchor="middle"><textPath startOffset="22.20632615414155" xlink:href="#id79">July</textPath></text><line stroke="#e1ed5e" stroke-width="0.3" x1="58.666819895761336" x2="56.23545636021788" y1="174.27360380694188" y2="178.64263932499728" /><path d="M 58.180547188652646 175.14741091055294 a86.0,86.0 0 0,1 -31.652253787137756,-30.449443065178592" fill="none" id="id80" stroke="none" /><text fill="#e1ed5e" style="font-size:6.75px; font-family:Arial;" text-anchor="middle"><textPath startOffset="22.20632615414155" xlink:href="#id80">August</textPath></text><line stroke="#e1ed5e" stroke-width="0.3" x1="26.63291911575756" x2="22.317208475507996" y1="142.92168965132927" y2="145.44649492493687" /><path d="M 25.769776987707644 143.4266507060508 a86.0,86.0 0 0,1 -11.730757126820373,-40.83630448921669" fill="none" id="id81" stroke="none" /><text fill="#e1ed5e" style="font-size:6.75px; font-family:Arial;" text-anchor="middle"><textPath startOffset="21.46611528233685" xlink:href="#id81">September</textPath></text><line stroke="#e1ed5e" stroke-width="0.3" x1="15.007084014347285" x2="10.007500721073583" y1="101.09737516637583" y2="101.16192664675087" /><path d="M 14.007167355692545 101.11028546245083 a86.0,86.0 0 0,1 10.666146001902534,-42.60595125391555" fill="none" id="id82" stroke="none" /><text fill="#e1ed5e" style="font-size:6.75px; font-family:Arial;" text-anchor="middle"><textPath startOffset="22.20632615414155" xlink:href="#id82">October</textPath></text><line stroke="#e1ed5e" stroke-width="0.3" x1="26.266209847984243" x2="21.928928074336255" y1="57.711370442889674" y2="55.22380399835377" /><path d="M 25.398753493254645 57.213857153982495 a86.0,86.0 0 0,1 29.58750427330803,-30.492523968695096" fill="none" id="id83" stroke="none" /><text fill="#e1ed5e" style="font-size:6.75px; font-family:Arial;" text-anchor="middle"><textPath startOffset="21.46611528233685" xlink:href="#id83">November</textPath></text><line stroke="#e1ed5e" stroke-width="0.3" x1="56.762969772571076" x2="54.21961505331055" y1="26.818313649435495" y2="22.513508569990535" /><path d="M 56.25429882871897 25.957352633546506 a86.0,86.0 0 0,1 42.265352541879196,-11.944610805530505" fill="none" id="id84" stroke="none" /><text fill="#e1ed5e" style="font-size:6.75px; font-family:Arial;" text-anchor="middle"><textPath startOffset="22.20632615414155" xlink:href="#id84">December</textPath></text></svg>