<?xml version="1.0" encoding="utf-8" ?>
<svg baseProfile="full" height="300mm" version="1.1" viewBox="0,0,200,300" width="200mm" xmlns="http://www.w3.org/2000/svg" xmlns:ev="http://www.w3.org/2001/xml-events" xmlns:xlink="http://www.w3.org/1999/xlink"><defs /><rect fill="#222222" height="300" width="200" x="0" y="0" /><text fill="#FFFFFF" style="font-size:12px; font-family:Arial; font-weight:bold;" x="10" y="20">Over 10km Runs</text><text fill="#FFFFFF" style="font-size:4px; font-family:Arial" x="10" y="280">ATHLETE</text><text fill="#FFFFFF" style="font-size:9px; font-family:Arial" x="10" y="290">malinkang</text><text fill="#FFFFFF" style="font-size:4px; font-family:Arial" x="120" y="280">STATISTICS</text><text fill="#FFFFFF" style="font-size:3px; font-family:Arial" x="120" y="285">Number: 6</text><text fill="#FFFFFF" style="font-size:3px; font-family:Arial" x="120" y="290">Weekly: 1.2</text><text fill="#FFFFFF" style="font-size:3px; font-family:Arial" x="141" y="285">Total: 64.0 km</text><text fill="#FFFFFF" style="font-size:3px; font-family:Arial" x="141" y="290">Avg: 10.7 km</text><text fill="#FFFFFF" style="font-size:3px; font-family:Arial" x="167" y="285">Min: 10.2 km</text><text fill="#FFFFFF" style="font-size:3px; font-family:Arial" x="167" y="290">Max: 11.7 km</text><polyline fill="none" points="23.46613545808941,80.4461005514022 23.32270916318521,78.4788680979982 22.103585657197982,78.01047852524789 20.669322709087282,77.07369834958808 16.868525895755738,72.6708131164196 16.007968127261847,71.3593095196411 15.649402390234172,70.60987768345512 15.147410358302295,69.01733211160172 14.215139442123473,67.05006445158506 14.0,65.7385493114125 14.143426294438541,63.115510950330645 14.0,62.45974967640359 14.0,61.054544679354876 15.649402390234172,55.246331220900174 17.083665338344872,52.62324976193486 18.37450199201703,51.03065933351172 19.80876494012773,48.68860737083014 20.812749003525823,47.751784180582035 22.53386454191059,46.814959615818225 26.90836653392762,45.878133676887956 25.47410358535126,45.40972019173205 30.278884462080896,46.06549897440709 30.996015936136246,45.878133676887956 32.64541832637042,45.78445100726094 36.51792828645557,46.44022940524155 38.0239043822512,46.34654681792017 39.4581673303619,46.06549897440709 42.398406374268234,45.59708562702872 43.76095617515966,45.03498915641103 46.48605577647686,43.34869677608367 47.77689243014902,42.5055489159422 49.99999999953434,40.725566444394644 51.21912350598723,40.069782177743036 53.944223107304424,38.94557901110966 56.095617529936135,38.289792916562874 58.892430278938264,38.10242533701239 60.25498007936403,37.82137386506656 63.69721115520224,36.8845347315073 65.20318725099787,36.69716673978837 69.14741035876796,35.38558925903635 71.37051792815328,35.01085234101629 73.37848605588078,37.352954470261466 73.880478087347,39.32031361979898 74.81274900399148,44.19184352271259 75.17131474101916,45.316037453652825 75.52988047804683,47.56441937730415 76.10358565766364,49.719111292564776 76.39043824700639,50.37488564971136 77.60956175299361,55.99578108714195 78.11155378492549,57.58835913299117 78.39840637426823,59.274613911053166 79.40239043813199,63.2091910772142 79.68924302794039,66.67534611484734 80.83665338624269,69.57940747280372 81.19521912373602,71.3593095196411 81.84063745010644,72.5771343773813 82.9880478088744,79.69667937880149 83.56175298802555,82.225972311222 83.63346613571048,82.97539051563945 83.49003984080628,84.38054727850249 83.13147410331294,87.09717491955962 82.91633466118947,87.84658740775194 82.41434262972325,89.25173345260555 81.69721115520224,90.65687640587566 80.90836653392762,91.78098854247946 79.90438247006387,92.811422929517 78.32669322704896,94.12288247200195 76.46215139422566,95.3406639212044 75.17131474101916,96.09006673604017 72.3027888443321,97.02681901777396 69.4342629481107,97.68254479760071 63.12350597605109,98.80664456787053 57.601593625266105,100.30544118379476 56.31075697205961,100.39911585563095 51.721115537919104,101.8979087342741 48.85258964123204,102.2726064043818 44.19123505987227,103.20934961771127 40.175298804882914,104.52078780817101 36.733067728579044,102.92832679802086 35.944223107304424,98.61929474381031 35.227091633249074,95.99639143235981 35.0119521911256,94.59126022725832 34.65338645409793,92.99877445760649 34.15139442216605,89.90746721549658 33.50597609532997,87.84658740775194 33.36254980089143,87.09717491955962 31.569721115287393,83.44377644662745 30.63745019910857,82.5070042409352 28.055776892229915,81.00816585368011 27.410358565859497,81.00816585368011 25.47410358535126,79.88403475441737 20.45418326696381,81.10184335580561 16.366533864289522,61.522946688812226 20.310756972059608,80.53977813600795 21.529880478046834,80.25874534045579 20.167330677155405,81.10184335580561 24.03984063724056,79.97771242173621 23.896414342336357,77.72944461688166 22.60557768912986,76.60530774615472 21.816733067389578,76.23059501644457 20.45418326696381,75.20013387547806 17.155378486029804,71.26563058805186 15.792828685138375,68.54893559945049 15.003984063863754,65.64486955560278 14.86055776849389,62.55342989967903 15.075697210617363,59.461975278216414 15.721115537453443,57.21363524423214 16.581673306878656,54.96528729441343 18.23107569711283,52.248522959591355 19.665338645223528,50.468567645933945 22.60557768912986,48.40756055811653 24.03984063724056,47.56441937730415 27.12350597558543,46.44022940524155 28.701195219065994,46.06549897440709 30.278884462080896,45.878133676887956 31.92828685278073,45.78445100726094 33.64940239023417,45.97181633254513 36.1593625494279,46.44022940524155 40.892430278938264,45.97181633254513 45.266932270955294,44.09816060605226 46.629482071846724,43.25501373555744 50.57370517961681,40.53819957980886 52.7250996013172,39.50768084189622 59.752988047897816,37.82137386506656 61.40239043813199,37.25927054986823 67.5697211152874,36.04137833614368 71.44223107537255,35.10453659121413 73.7370517924428,36.69716673978837 74.31075697159395,38.94557901110966 74.23904382484034,39.78873157151975 74.66932270908728,41.10030000843108 74.95617529843003,41.84976647736039 75.38645418314263,43.44237980298931 75.74501992017031,47.47073695535073 75.96015936275944,48.31387825962156 76.24701195210218,50.843295492755715 77.25099601596594,53.4663842630689 77.25099601596594,54.02847331209341 77.89641434280202,57.21363524423214 78.68525896407664,59.36829460161971 80.83665338624269,70.79723572498187 82.27091633481905,75.38749057025416 82.41434262972325,76.88634214946069 83.41832669312134,81.38287578010932 83.56175298802555,82.8817132882541 83.2749003986828,86.06673131277785 82.41434262972325,89.06438082497334 81.76892430288717,90.5632003050996 81.33864541817456,91.31260872603161 78.75697211129591,94.2165580507135 76.89243027893826,95.52801470755367 73.52191235078499,97.40151954599423 72.08764940220863,97.77621985401493 70.50996015919372,97.77621985401493 69.00398406386375,98.05724494106835 64.55776892416179,99.46236852015136 54.5896414341405,101.7105598167982 52.22310756938532,102.45995515701361 46.98804780840874,103.02200108516263 45.62549800798297,103.3030238635838 43.258964143227786,104.14609145722352 39.4581673303619,104.8954839396174 36.804780876263976,102.92832679802086 36.3027888443321,101.52321084431605 35.227091633249074,95.62169007997727 34.509960159193724,92.62407134636305 34.15139442216605,90.37584806251107 33.003984063863754,87.00349829683546 32.57370517915115,86.44143827114021 31.99999999953434,84.94260911777383 31.139442231040448,83.44377644662745 30.135458167642355,82.31964963505743 27.840637450106442,80.35242295271019 24.03984063724056,77.63576661999105 21.96015936229378,76.41795140889008 20.239043824374676,75.10645550757181 19.09163346607238,73.88863547315123 17.58565737027675,72.01506165467435 16.366533864289522,69.95412410545396 15.50597609532997,67.89317990513518 15.075697210617363,65.45751000213204 14.86055776849389,61.522946688812226 15.147410358302295,59.274613911053166 15.434262947645038,57.77572099480312 16.007968127261847,56.276824560482055 16.653386454097927,54.87160595791647 17.800796812400222,52.997976344428025 18.37450199201703,52.5295680820127 19.7370517924428,50.7496135517722 21.529880478046834,49.34438278625021 24.90039840620011,47.283372069941834 25.617529880721122,47.00232463871362 28.557768924161792,46.25286421721103 31.569721115287393,46.06549897440709 36.94820717116818,46.44022940524155 39.96015936229378,45.97181633254513 42.97211155388504,45.316037453652825 45.55378486029804,44.19184352271259 49.8565737050958,41.00661663815845 51.21912350598723,40.25714917998994 52.65338645409793,39.6950480088708 71.298804780934,34.91716807731427 73.45019920310006,36.322430591797456 73.45019920310006,37.25927054986823 74.09561752993613,40.069782177743036 74.52589641418308,43.44237980298931 75.6015936252661,46.34654681792017 75.96015936275944,48.032831282005645 75.96015936275944,48.87597184401238 76.24701195210218,50.468567645933945 76.46215139422566,51.21802311966894 76.74900398449972,53.37270270695444 78.6135458163917,60.398781289346516 78.90039840620011,61.897668048914056 79.8326693228446,64.98911087901797 79.9760956177488,66.48798686405644 80.33466135477647,67.89317990513518 81.19521912373602,70.70355671120342 81.41035856539384,72.9518492508796 82.12749003991485,75.10645550757181 82.91633466118947,79.79035707359435 83.2749003986828,81.38287578010932 83.41832669312134,84.38054727850249 83.20318725099787,85.97305453865556 82.91633466118947,86.81614500988508 82.41434262972325,89.06438082497334 81.76892430288717,90.46952419081936 80.0478087645024,92.99877445760649 78.5418326696381,94.3102336153388 86.0,100.21176649851259 78.32669322704896,94.40390916657634 76.67729083681479,95.71536543860566 73.30677290819585,97.30784443451557 66.1354581671767,98.71296966267982 68.71713147405535,98.33826990413945 63.84063745010644,99.55604331567883 61.115537848323584,99.93074235966196 55.378486055415124,101.52321084431605 51.64940239023417,102.17893200734397 49.56972111528739,103.02200108516263 46.55776892416179,103.49037231400143 42.82868525898084,104.23976556584239 40.74900398403406,104.80180992739042 39.31474103592336,105.08283192268573 36.804780876263976,103.11567535833456 36.087649402208626,99.27501888829283 35.44223107583821,96.55844304861967 34.36653386428952,90.93790462525794 33.721115537919104,88.87702814297518 32.28685258934274,85.50467046257108 29.92031872505322,81.5702306610765 73.59362549800426,104.80180992739042 24.470119521953166,80.72713326429948 20.382470119278878,81.19552084442694" stroke="#4dd2ff" stroke-linecap="round" stroke-linejoin="round" stroke-width="0.5"><title>2022-08-17 10.5km</title><desc>9361519812</desc></polyline><polyline fill="none" points="154.56672158138826,49.99703819170827 156.87973640835844,49.68689962447388 161.86161449737847,48.8340176238562 164.3525535420049,48.8340176238562 165.77594728162512,48.36880867858417 167.25864909379743,48.13620405236725 168.85996705084108,48.058669154008385 170.22405271814205,47.82606439082883 172.47775947279297,47.28331954445457 173.96046128473245,47.12824948609341 177.8747940689791,47.438389557763 178.58649093913846,47.360854556784034 179.41680395393632,45.03479923348641 177.45963756134734,45.96522259351332 173.96046128473245,46.818109232059214 172.00329489260912,46.895644312608056 169.27512355847284,47.438389557763 167.7924217460677,47.438389557763 167.080724876374,47.593459525262006 166.07248764415272,47.98113424418261 161.09060955489986,48.756482828059234 158.65897858305834,48.67894802102819 156.227347610984,48.756482828059234 153.79571663890965,49.144156692666 150.83031301479787,49.68689962447388 146.61943986802362,50.152107407397125 143.53542009857483,51.082521742268 140.3327841842547,51.00498727691593 133.6309719933197,52.09046875324566 130.48764415131882,52.09046875324566 129.30148270144127,52.40060590772191 126.573311367305,52.245537353504915 124.20098846778274,52.55567441659514 121.59143327828497,53.175947996322066 119.99011532100849,53.95128894521622 118.4481054362841,54.33895899262279 117.61779242148623,54.416492967749946 115.30477759451605,55.114298232248984 115.36408566706814,56.5874396484578 117.4398682040628,56.044703815772664 119.57495881384239,55.191832093463745 121.29489291575737,54.80416267301189 123.5485996704083,54.02882297744509 125.7429983522743,53.718686780077405 129.24217462935485,52.94334548932966 130.66556836874224,52.86581129767001 132.56342668854631,53.175947996322066 135.70675453008153,52.63320865383139 136.5963756176643,52.40060590772191 141.5782537064515,52.168003058992326 147.86490939022042,51.70279705384746 148.57660625991412,51.4701938975486 151.83855024701916,50.92745280015515 153.32125205895863,50.307176576927304 155.33772652363405,49.919503567158245 158.1845140028745,49.60936495399801 160.49752883031033,49.68689962447388 163.10708401957527,49.454295579052996 163.70016474463046,49.531830272171646 167.080724876374,48.523878372623585 169.80889621097594,48.291273814451415 170.93574958806857,48.058669154008385 173.36738056014292,47.98113424418261 174.01976935751736,47.74852944689337 175.02800658973865,47.74852944689337 175.56177924200892,47.438389557763 177.69686985155568,47.438389557763 180.00988467875868,46.97317938186461 179.9505766062066,45.26740522729233 177.04448105441406,46.12029299407732 175.50247116945684,46.66303903667722 173.24876441503875,47.205784521240275 166.962108731037,47.67099449184025 164.76771004940383,47.98113424418261 162.0395387148019,48.291273814451415 158.59967051050626,48.8340176238562 158.06589785800315,48.756482828059234 155.87149917613715,48.8340176238562 154.80395387136377,48.989087180874776 151.9571663918905,49.06662194250384 150.23723228974268,49.376760874467436 147.80560131790116,49.84196893079206 146.8566721577663,50.22964199783746 145.25535420095548,50.38471114466665 142.52718286635354,51.082521742268 140.45140032912605,51.00498727691593 139.38385502481833,51.315125069522765 138.25700164749287,51.392659489123616 137.6046128498856,51.23759063851321 136.83360790763982,51.315125069522765 135.46952224057168,51.85786576772807 133.80889621074311,52.09046875324566 131.37726523866877,52.09046875324566 130.13179571623914,52.245537353504915 127.52224052720703,52.168003058992326 125.62438220740296,52.32307163631776 124.37891268497333,52.94334548932966 123.19275123532861,52.94334548932966 120.82042833627202,53.175947996322066 119.21911037876271,53.87375490163686 116.37232289952226,54.494026931526605 114.29654036229476,55.5795012289891 115.06754530454054,56.50990599236684 116.96540362411179,55.967170079937205 117.4398682040628,55.734568803571165 119.57495881384239,55.191832093463745 122.7182866553776,55.191832093463745 126.21746293222532,54.57156088389456 129.83525535394438,53.40855040057795 134.46128500811756,53.40855040057795 135.46952224057168,53.175947996322066 136.0626029651612,52.94334548932966 137.72322899498977,52.47814016789198 138.7907742995303,52.245537353504915 140.3327841842547,52.32307163631776 143.95057660597377,52.09046875324566 145.4332784183789,52.245537353504915 146.5008237233851,52.168003058992326 148.63591433269903,51.54772829421563 150.94892915943637,51.23759063851321 152.0757825372275,50.77238381287316 155.2191103787627,50.07457280525705 157.41350906086154,49.99703819170827 162.57331136707217,49.06662194250384 165.65733113675378,49.06662194250384 169.92751235561445,48.291273814451415 170.28336079069413,48.291273814451415 172.47775947279297,47.593459525262006 173.66392092243768,47.438389557763 175.32454695203342,46.97317938186461 177.4003294892609,47.12824948609341 178.52718286635354,46.895644312608056 179.654036243679,46.43043365806807 181.55189456325024,47.438389557763 181.4332784183789,49.60936495399801 181.848434925545,50.77238381287316 182.61943986802362,54.33895899262279 182.9159802305512,57.517842634173576 183.80560131790116,62.324898587248754 184.04283360787667,64.57334520790027 185.40691927471198,72.86925500910729 185.58484349260107,76.28061932051787 185.94069192721508,77.90876269340515 186.0,78.91665845370153 185.58484349260107,80.46726355631836 184.3986820424907,81.24256439867895 182.4415156506002,81.55268441676162 181.31466227327473,81.86280425242148 180.24711696850136,82.01786410168279 179.00164744630456,82.94822224159725 177.22240527160466,83.4134006962413 176.57001647446305,83.25834125705296 175.56177924200892,83.33587098232238 174.1383855023887,84.49881549563725 172.77429983508773,85.0415220578434 171.17298187781125,85.35163984267274 169.21581548568793,86.04940419254126 165.77594728162512,87.0572844016715 165.18286655656993,87.0572844016715 163.34431630955078,87.98763365519699 161.44645798997954,89.15056791540701 158.54036243795417,89.69326969282702 149.64415156492032,92.25171341042733 147.50906095537357,92.56182695744792 145.967051070882,93.02699693618342 144.54365733102895,93.25958177167922 142.8237232286483,93.72475113533437 135.94398682028987,94.96520076645538 135.17298187804408,93.72475113533437 134.16474464558996,91.32137167576002 132.38550247089006,88.45280766685028 131.7924217460677,87.67751741973916 128.94563426659442,83.18081152037485 127.8187808895018,81.00997426576214 126.33607907732949,78.91665845370153 124.08237232267857,75.11765669245506 123.07413509045728,73.33444235048955 122.3031301482115,71.47369052411523 121.65074135037139,70.54331214982085 121.11696869833395,69.61293213494355 120.46457990119234,68.83761420263909 118.86326194391586,66.58918575552525 117.91433278424665,64.80594258720521 117.32125205895863,63.9530850283918 116.4909390443936,62.092300114105456 114.47446457971819,58.9134440360358 114.0,57.98304351180559 115.00823723198846,56.5874396484578 116.96540362411179,55.967170079937205 119.04118616133928,54.88169658003608 120.04942339356057,54.72662875481183 121.41350906086154,55.0367643594509 122.65897858305834,55.0367643594509 123.84514003270306,54.88169658003608 127.04777594702318,54.02882297744509 129.30148270144127,53.25348214246333 130.3097199338954,53.02087966958061 131.91103789117187,53.175947996322066 132.91927512339316,53.02087966958061 134.0461285004858,53.40855040057795 135.113673805492,53.175947996322066 136.24052718258463,52.55567441659514 137.42668863246217,52.32307163631776 140.21416803938337,52.168003058992326 142.1713344315067,51.85786576772807 146.02635914296843,51.70279705384746 148.33937397017144,51.78033141663764 149.4662273474969,51.625262679648586 151.06754530454054,51.4701938975486 154.1515650737565,50.69484930217732 155.5749588138424,50.22964199783746 159.84514003270306,49.454295579052996 164.3525535420049,48.989087180874776 166.48764415131882,48.60141320253024 170.28336079069413,48.36880867858417 173.30807248759083,47.74852944689337 173.66392092243768,47.74852944689337 174.73146622721106,47.360854556784034 175.6803953871131,47.205784521240275 177.22240527160466,47.28331954445457 179.53542009857483,47.05071443977067 180.12850082363002,47.12824948609341 181.25535420095548,47.67099449184025 181.492586490931,48.36880867858417 181.61120263580233,49.68689962447388 182.02635914320126,51.625262679648586 182.4415156506002,54.80416267301189 182.32289950549603,57.05264134646859 182.56013179547153,58.68084405869013 184.16144975298084,65.50373411015607 184.2207578253001,66.82178224617383 184.75453047757037,69.6904638655833 184.69522240525112,70.93097000516718 185.28830313007347,73.48950470628915 185.4662273474969,75.04012575943489 185.4662273474969,76.04802700004075 186.0,79.76949182408862 185.58484349260107,80.62232381606009 184.69522240525112,81.00997426576214 183.9242174627725,81.16503436589846 182.56013179547153,81.70774435740896 181.4332784183789,81.86280425242148 177.93410214176401,82.79316266562091 175.26523887971416,84.03363799786894 172.95222405251116,84.42128594114911 171.88467874773778,84.8089335996192 169.80889621097594,85.73928681772668 167.02141680382192,86.43705065466929 165.5387149916496,87.13481356890406 162.39538714988157,87.91010461346013 160.37891268520616,88.76292344671674 159.42998352530412,89.30562562285922 156.64250411838293,90.15844220051076 155.04118616133928,90.8562001932296 152.55024711694568,91.32137167576002 151.06754530454054,91.94159968121676 147.56836902792566,92.639355315594 146.6787479405757,92.71688366256421 145.49258649069816,93.1820535044535 142.1120263589546,93.72475113533437 139.14662273461,94.34497631550767 137.1894563427195,94.5775605700328 136.24052718258463,94.5775605700328 135.6474464579951,94.18992008862551 132.62273476086557,89.22809677483747 131.7924217460677,88.14269170479383 131.02141680382192,86.74716761946911 130.5469522238709,86.1269335077377 128.88632619427517,82.4830433766474 127.52224052720703,81.00997426576214 126.33607907732949,78.68406729534036 122.48105436563492,72.71419247082667 120.10873146587983,68.29489097208716 119.04118616133928,67.20944283599965 116.84678747924045,63.02269339154009 114.11861614487134,58.44824397895718 114.17792421742342,57.750443124212325 114.83031301479787,56.82004054880235 115.77924217446707,56.27730495540891 116.84678747924045,55.812102573749144 118.56672158115543,55.34689978213282 121.94728171336465,55.0367643594509 123.13344316300936,54.80416267301189 124.20098846778274,54.33895899262279 125.7429983522743,54.10635699832346 126.98846787470393,54.959230475418735 127.34431630931795,56.044703815772664 128.29324546921998,57.750443124212325 129.65733113652095,59.456176917476114 130.4283360785339,60.85177319176728 131.6144975288771,62.479964179045055 132.68204283365048,64.57334520790027 133.09719934104942,65.11607226682827 134.5205930804368,68.29489097208716 135.70675453008153,70.31071729992982 137.1894563427195,71.93887909600744 138.49423393723555,73.0243175017531 140.57001647446305,75.11765669245506 145.37397034582682,78.68406729534036 146.79736408567987,78.14135419356171 148.81383855012245,76.97839566710172 150.77100494224578,76.20308855851181 153.61779242171906,74.80753289198037 155.39703459618613,74.49740890914109 156.227347610984,74.10975367453648 159.42998352530412,72.24900458281627 159.90444810525514,70.31071729992982 159.01482701813802,66.7442500940524 156.7611202634871,63.255291454494 155.99011532124132,61.704635764006525 155.15980230621062,60.619174069026485 154.80395387136377,59.68877655279357 153.4991762766149,57.59537614212604 152.60955518926494,57.98304351180559 151.71993410214782,55.5795012289891 148.28006589761935,54.02882297744509 144.60296540358104,53.87375490163686 141.8747940689791,54.18389100773493 141.4003294892609,54.494026931526605 140.68863261933438,55.26936594332801 140.6293245467823,56.044703815772664 139.85831960453652,56.897574159374926 139.44316309690475,59.22357717936393 139.85831960453652,60.23150863661431 140.3327841842547,63.02269339154009 140.92586490954272,63.87555245455587 141.34102141670883,64.80594258720521 141.45963756158017,66.20152470999165 142.1713344315067,68.29489097208716 142.88303130143322,69.61293213494355 146.02635914296843,68.52748671069276 147.09390444797464,68.29489097208716 149.28830313007347,67.364506992104 149.88138385489583,66.97684651619056 150.59308072458953,64.96100744995056 153.61779242171906,62.790095225849655 154.62602965370752,62.16983294975944 154.86326194391586,61.08437221188797 154.27018121886067,60.1539755158592 153.26194398663938,57.82797659793869 153.14332784176804,56.6649732934311 152.7874794069212,55.812102573749144 150.77100494224578,54.57156088389456 146.79736408567987,54.02882297744509 145.78912685299292,54.02882297744509 142.9423393739853,54.416492967749946 140.39209225703962,55.6570350221009 139.73970345919952,56.82004054880235 139.91762767685577,60.38657484372379 140.68863261933438,63.9530850283918 141.16309719905257,65.03853986412287 141.2224052718375,65.50373411015607 142.46787479380146,69.14774151239544 144.00988467852585,69.38033687492134 146.73805601289496,68.21735903632361 148.28006589761935,67.364506992104 149.88138385489583,66.89931438671192 150.4151565071661,66.35658916219836 150.5337726525031,65.42620176426135 150.35584843461402,65.11607226682827 151.30477759451605,64.7284101388068 153.20263591432013,63.56542204582365 154.62602965370752,62.479964179045055 154.38879736396484,60.85177319176728 152.7874794069212,59.06851063051727 150.4151565071661,55.50196742481785 149.88138385489583,56.12223754049046 146.08566721575335,55.812102573749144" stroke="#4dd2ff" stroke-linecap="round" stroke-linejoin="round" stroke-width="0.5"><title>2022-03-26 11.7km</title><desc>9361447915</desc></polyline><polyline fill="none" points="17.47063978947699,153.83604857960017 26.304995617829263,152.35114887770033 28.7028921993915,152.1036652122275 30.974583698436618,151.52620290161576 33.94040315481834,151.11372945882613 36.27519719512202,151.27871887240326 40.881682734470814,150.53626612992957 42.522348816739395,149.8763073120499 45.42506573186256,149.79381240537623 46.49780893931165,149.9588022068492 48.201577563304454,149.8763073120499 49.968448728788644,149.9588022068492 52.11393514438532,149.5463276122464 56.02629272523336,148.30890201032162 58.929009640589356,147.81393100548303 62.841367221670225,147.48395009344677 65.11305872024968,146.98897836124524 66.24890446965583,147.07147368014557 67.13234005263075,146.98897836124524 68.26818580180407,146.6589969639317 74.389132339973,145.66905160812894 75.77738825581037,145.75154712132644 78.30148992105387,145.33906943519833 80.32077125320211,145.42156499653356 86.0,144.1841303012916 85.05346187530085,142.53421313053695 83.7914110426791,142.53421313053695 78.74320771219209,143.6891556592891 76.47151621384546,144.5141131533892 75.27256792294793,144.76160016527865 73.12708150758408,144.8440958117717 70.79228746704757,145.1740782757406 70.2874671339523,145.0915826780256 61.70552147226408,146.41151078877738 59.93865030677989,146.24651994463056 58.17177914106287,146.32901537278667 56.02629272523336,146.90648303017952 54.82734443433583,147.07147368014557 53.628396143671125,146.98897836124524 52.42944785254076,147.07147368014557 51.29360210336745,147.48395009344677 47.00262927263975,148.0614165625302 44.541630148654804,148.7213775140117 42.459246275015175,149.5463276122464 40.692375109530985,149.38133768981788 35.8334794039838,149.21634771861136 34.69763365434483,149.62882255553268 33.056967572076246,149.62882255553268 32.36283961404115,149.46383265702752 30.091148115694523,149.2988427101518 28.89219982456416,149.38133768981788 27.819456616882235,149.8763073120499 25.989482909673825,150.20628681825474 24.91673970152624,150.123791959777 23.27607361925766,150.28878166427603 22.708150744903833,150.53626612992957 21.19368974585086,150.53626612992957 20.184049079660326,150.8662452478893 18.417177914176136,151.85618143773172 16.650306748226285,152.51613792753778 14.504820332862437,153.67105991777498 14.315512707922608,154.99096785404254 15.009640665492043,154.82597953174263 16.082383873406798,154.2485200217925 19.61612620484084,153.42357683408773 21.761612620204687,153.2585880512488 24.538124452112243,152.84611588151893 25.800175284501165,152.51613792753778 30.65907099004835,151.7736868216889 33.498685363680124,151.85618143773172 35.076248904224485,152.0211706327973 36.21209465386346,151.9386760412599 41.57581069227308,150.53626612992957 44.98334794025868,150.20628681825474 46.182296231156215,150.20628681825474 47.31814198056236,149.9588022068492 51.546012269798666,149.5463276122464 55.1428571427241,148.8038725783117 56.08939526695758,148.3913971351576 57.54075372451916,148.1439117238042 58.5503943907097,148.1439117238042 62.33654688857496,147.23646428174106 65.23926380369812,146.90648303017952 67.38475021906197,146.74149233131902 69.65644171764143,146.41151078877738 71.86503067449667,146.24651994463056 75.14636283926666,145.50406054593623 77.48115687957034,145.2565738616977 79.94215600355528,145.1740782757406 81.51971954433247,145.2565738616977 83.72830850118771,144.76160016527865 83.41279579279944,143.0291887911735 82.40315512707457,143.11168469203403 76.9763365467079,144.3491217517294 75.84049079753458,144.5141131533892 70.85539000853896,145.9165381109342 69.21472392603755,146.08152905199677 65.870289220009,146.82398768683197 62.4627519720234,146.6589969639317 60.31726555642672,146.90648303017952 57.79316389118321,146.74149233131902 56.46801051683724,146.82398768683197 53.502191060455516,146.6589969639317 49.779141104081646,147.56644533958752 46.9395267306827,147.64894057362108 45.80368098127656,147.89642620336963 44.79404031531885,148.30890201032162 43.34268185775727,148.55638734909007 41.82822085893713,149.2988427101518 37.032427694648504,149.21634771861136 36.40140227857046,149.5463276122464 34.76073619630188,149.71131748665357 33.056967572076246,149.62882255553268 29.649430323857814,149.79381240537623 27.314636284019798,149.62882255553268 25.358457493130118,149.9588022068492 22.96056091133505,149.79381240537623 21.824715162161738,149.8763073120499 19.742331288056448,150.61876092746388 17.78615249786526,151.85618143773172 16.713409289717674,152.35114887770033 15.7037686239928,152.68112692859722 14.0,152.76362141116988 14.378615249413997,154.4960027417983 15.76687116548419,154.2485200217925 17.78615249786526,153.67105991777498 18.480280455434695,153.67105991777498 20.815074495971203,153.09359921969008 22.455740578239784,152.92861033964437 24.72743207681924,152.26865433470812 26.93602103390731,151.9386760412599 30.40666082361713,151.03123473387677 32.67835232242942,150.94873999693664 33.87730061355978,150.61876092746388 35.95968448696658,150.61876092746388 38.16827344428748,150.37127649819013 42.01752848387696,149.46383265702752 44.98334794025868,149.1338527148473 46.37160385586321,149.05135769880144 48.264680105028674,149.21634771861136 51.861524977954105,148.63888243760448 53.06047326885164,148.63888243760448 59.433829973684624,147.1539689869387 61.83172655571252,146.98897836124524 66.1858019279316,146.24651994463056 67.88957055192441,146.24651994463056 69.97195442579687,145.9165381109342 72.43295354931615,145.9165381109342 77.35495179658756,144.92659144563368 79.68974583689123,144.92659144563368 83.28659070981666,144.3491217517294 82.65556529350579,143.0291887911735 81.64592462731525,143.11168469203403 80.25766871171072,143.52416401490336 75.58808063087054,144.1841303012916 74.07361963158473,144.8440958117717 72.93777388241142,145.1740782757406 71.67572304978967,145.2565738616977 71.10780017520301,145.1740782757406 69.34092900971882,145.50406054593623 66.56441717781126,145.66905160812894 66.05959684494883,145.50406054593623 64.86064855381846,145.50406054593623 63.21998247154988,145.83404262230033 60.758983347564936,146.08152905199677 58.61349693220109,145.83404262230033 57.351446099579334,146.08152905199677 54.82734443433583,146.16402450436726 51.16739701991901,146.98897836124524 49.02191060455516,147.64894057362108 48.51709027169272,147.64894057362108 46.434706397820264,147.97892138920724 44.92024539876729,148.47389224817744 43.72129710763693,148.55638734909007 41.51270815031603,149.05135769880144 40.31375985965133,149.05135769880144 35.89658194570802,150.123791959777 33.246275197248906,150.45377132017165 31.731814197963104,150.20628681825474 27.503943908493966,148.7213775140117 25.29535495163873,149.05135769880144 24.475021910388023,149.46383265702752 20.751971954479814,150.70125571312383 18.417177914176136,151.60869755380554 16.965819456614554,151.9386760412599 14.946538124233484,152.76362141116988 14.757230499293655,154.4960027417983 17.912357580848038,153.42357683408773 19.23751095496118,153.2585880512488 24.538124452112243,152.1036652122275 27.567046450218186,152.0211706327973 29.964943032478914,151.60869755380554 30.911481156479567,151.69119219382992 32.4259421559982,151.52620290161576 35.013146362733096,150.8662452478893 38.925503943813965,150.45377132017165 41.6389132339973,149.9588022068492 43.91060473257676,149.8763073120499 49.5267309374176,149.1338527148473 51.16739701991901,148.7213775140117 55.1428571427241,148.30890201032162 57.225241016596556,147.81393100548303 62.21034180512652,147.23646428174106 65.3654688866809,146.32901537278667 66.69062226102687,146.5765015844372 67.9526730934158,146.5765015844372 72.18054338288493,145.58655608311528 76.40841367212124,144.92659144563368 78.42769500426948,144.92659144563368 83.28659070981666,144.5141131533892 82.52936021005735,143.0291887911735 79.94215600355528,143.60665984323714 77.670464504743,144.3491217517294 74.01051709032618,145.0915826780256 68.77300613489933,145.75154712132644 65.93339176173322,145.9165381109342 62.33654688857496,146.41151078877738 59.370727431960404,146.32901537278667 56.40490797534585,146.6589969639317 50.28396143717691,147.73143579578027 44.85714285704307,149.05135769880144 42.648553899955004,149.2988427101518 39.11481156852096,149.2988427101518 36.02278702892363,148.8038725783117 34.69763365434483,149.2988427101518 34.25591586320661,149.71131748665357 32.4259421559982,149.9588022068492 28.261174408253282,149.79381240537623 25.673970201518387,150.123791959777 24.91673970152624,150.45377132017165 24.222611743956804,150.94873999693664 23.21297107776627,151.4437082373188 21.950920245144516,151.69119219382992 20.562664329539984,151.85618143773172 18.543382997158915,152.43364340887638 14.757230499293655,153.2585880512488 14.567922874353826,154.66099116113037 17.78615249786526,153.50607120775385 20.815074495971203,152.84611588151893 28.76599474111572,151.69119219382992 31.290096406359226,150.70125571312383 34.82383873779327,150.61876092746388 36.27519719512202,150.28878166427603 41.38650306733325,149.5463276122464 45.80368098127656,149.2988427101518 48.012269938364625,149.38133768981788 53.754601226653904,148.96886267099762 56.40490797534585,148.1439117238042 58.42418930749409,147.97892138920724 63.09377738786861,146.98897836124524 66.12269938644022,146.5765015844372 66.81682734424248,146.6589969639317 74.45223488146439,145.58655608311528 79.18492550379597,145.33906943519833 80.3838737946935,145.0915826780256 83.09728308487684,144.5966088361456 82.21384750213474,143.0291887911735 74.07361963158473,144.67910450691124 67.9526730934158,145.0915826780256 64.29272567899898,145.99903358740266 53.94390885159373,146.49400619260268 51.861524977954105,146.90648303017952 49.652936020866036,147.1539689869387 46.75021910574287,147.81393100548303 43.15337423281744,148.1439117238042 41.13409290090203,148.7213775140117 37.97896581934765,148.96886267099762 35.89658194570802,149.71131748665357 34.06660823803395,150.123791959777 29.712532865582034,150.28878166427603 28.008764241589233,149.9588022068492 25.989482909673825,150.123791959777 24.159509202465415,151.52620290161576 23.27607361925766,151.7736868216889 18.921998247038573,152.43364340887638 14.0,153.50607120775385 14.189307624474168,154.7434853524901 17.4075372479856,153.50607120775385 20.688869412522763,153.01110478583723 25.29535495163873,151.85618143773172 28.45048203319311,151.7736868216889 30.848378614755347,151.60869755380554 31.921121822670102,151.1962241717847 32.48904469725676,150.8662452478893 33.6248904466629,150.53626612992957 34.82383873779327,150.28878166427603 39.49342681840062,150.0412970893085 39.99824715149589,149.79381240537623 43.46888694120571,149.5463276122464 44.60473269037902,149.21634771861136 46.308501314604655,149.21634771861136 51.609114811290056,148.63888243760448 52.42944785254076,148.8038725783117 53.06047326885164,149.62882255553268 54.19631901825778,152.1861597795505 54.76424189307727,153.09359921969008 54.95354951778427,153.75355425459566 55.395267309155315,154.33101427397924 55.584574934095144,155.07346199714812 55.26906222617254,155.89840275992174 54.44872918492183,155.23845024668844 54.25942155974917,154.57849695743062 52.42944785254076,152.76362141116988 51.672217353247106,152.76362141116988 50.78878177027218,152.43364340887638 47.31814198056236,152.92861033964437 46.182296231156215,153.17609364143573 42.333041191799566,154.00103719288018 42.14373356709257,154.41350851382595 41.32340052560903,155.15595612791367 40.818580192513764,156.88833007519133 41.13409290090203,157.46578686940484" stroke="#4dd2ff" stroke-linecap="round" stroke-linejoin="round" stroke-width="0.5"><title>2022-02-27 10.7km</title><desc>9361446431</desc></polyline><polyline fill="none" points="132.36095879087225,165.34585926454747 133.33054667990655,167.6840961156413 134.74763667117804,174.60133193735965 135.64264087658376,177.4266610587365 137.05973086785525,183.66182762704557 140.49058032082394,185.90257631568238 143.99601345788687,185.02576251147548 147.20311185903847,184.5386432313826 155.481900756713,182.1030414723209 161.5977628249675,181.1287982678623 168.6832127822563,179.66743078210857 172.2632296020165,178.49833447823767 176.1415811581537,177.524085986719 178.90117745753378,176.0627105697058 180.3928511319682,174.69875727960607 182.55577796138823,172.16569373832317 184.644121106714,167.19696411729092 185.0916232089512,161.7410613252432 184.644121106714,159.50023112347117 183.6745332176797,155.50568896951154 182.8541126968339,150.53683471289696 182.55577796138823,147.80882049060892 181.21327165374532,144.20392736716894 180.54201849969104,141.28102668683277 180.0199327133596,139.6247105912771 179.49784692702815,137.28637495375006 179.12492850841954,135.0454622420366 177.85700588440523,130.36875048821094 177.2603364144452,127.54322117817355 176.73825062811375,124.23051633336581 175.8432464231737,121.40496090805391 175.09740958549082,116.24098372418666 172.33781328611076,114.0 164.28277544025332,116.43585151684238 154.4377291840501,118.48195988644147 151.08146341471002,119.94346200529253 146.15894028684124,123.64591964532156 143.47392767108977,124.91254515218316 138.849739278201,125.88687082135584 136.68681244924664,125.98430330958217 133.40513036353514,125.59457327052951 130.1234482782893,125.59457327052951 127.28926829528064,126.08173578343121 124.67883936362341,127.2509243565728 121.84465938108042,128.6149750900222 118.71214466309175,131.4404998406535 116.54921783367172,133.77885606035125 115.80338099598885,135.43518673500512 114.8337931074202,138.45554380165413 114.53545837197453,140.59901467716554 114.38629100471735,144.6910762297921 115.13212784240022,147.61396190308733 116.77296888548881,151.1214077314944 117.66797309042886,152.5828380266321 119.23423044895753,154.433978450601 122.14299411606044,156.96710961760255 128.63177460292354,160.76678825350245 130.8692851155065,162.9101871245657 133.5542977307923,168.17122775659664 134.37471825256944,172.36054512299597 135.2697224575095,175.18588377616834 135.86639192793518,178.69318400509655 136.9105635001324,182.59016253863228 137.20889823511243,183.56440359936096 140.49058032082394,185.4154576783767 144.5926829278469,184.83091484225588 146.60644238907844,184.24637149192858 149.4406223720871,183.75925164012006 151.45438183331862,182.8824350068462 155.481900756713,182.39531415497186 159.50941967964172,181.22622265247628 164.43194280797616,180.44682717463002 167.3407064746134,179.76485538110137 168.31029436318204,179.66743078210857 176.66366694448516,177.2318111603381 180.09451639745384,175.18588377616834 182.33202691050246,172.84767333458876 184.345786371734,169.14548996748636 185.16620689304546,166.51497871923493 185.46454162849113,163.5921762243379 185.01703952532262,160.47450605308404 184.19661900401115,157.84396046295296 183.52536585042253,154.0442651057383 182.33202691050246,148.58825426886324 181.80994112417102,145.17822473554406 180.76576955150813,142.4501885024947 179.79618166247383,138.45554380165413 179.27409587614238,135.33775563328527 178.08075693575665,129.78415920340922 177.2603364144452,127.15349205414532 176.43991589313373,123.06132244277978 175.24657695321366,119.16399460891262 174.64990748278797,115.94868192821741 172.71073170518503,114.38973684317898 165.6998654315248,115.94868192821741 156.22773759393021,117.79992446367396 154.5123128676787,118.38452629756648 149.21687132073566,121.50239405373577 145.18935239780694,124.42538178170798 138.62598822638392,125.78943831881043 136.68681244924664,125.98430330958217 130.27261564554647,125.3997081653215 125.57384356856346,126.27660068846308 123.78383515868336,127.05605973722413 122.14299411606044,128.0303822615533 119.23423044895753,130.85590949904872 117.96630782540888,132.4148159326869 116.69838520139456,134.55830630427226 115.05754415877163,138.65040507609956 114.38629100471735,141.57331733359024 114.98296047467738,146.05509114492452 115.35587889328599,148.0036790210288 116.47463415004313,150.4394058266189 117.89172414131463,152.77769515610998 119.68173255166039,154.82369156670757 122.44132885104045,157.35682124708546 126.76718250894919,159.79251375241438 128.25885618384928,160.8642156246351 129.452195124235,161.9359157680883 132.13720773952082,165.15100582205923 132.8830445772037,166.32012561970623 132.8830445772037,167.39181695925072 133.70346509851515,169.82747266464867 134.3001345684752,172.45797079394106 135.04597140662372,174.89360792114167 136.38847771426663,180.93394945550244 137.35806560283527,184.5386432313826 140.63974768808112,186.0 142.57892346568406,185.12318632478127 145.26393608143553,184.73349098640028 146.4572750213556,184.73349098640028 149.66437342343852,183.56440359936096 153.39355761138722,182.59016253863228 162.86568544898182,181.03137386898743 168.45946173090488,179.4725815411075 171.29364171344787,179.2777322428883 173.0836501242593,178.8880334747373 175.99241379043087,177.91378555458505 178.67742640618235,176.45241099526174 180.46743481606245,175.38073427480413 181.9591084914282,173.91935414186446 183.59994953405112,171.58113924175268 184.7187047903426,169.0480638105655 185.6137089957483,166.32012561970623 185.38995794439688,162.71533296786947 185.01703952532262,160.57193346734857 183.59994953405112,154.14169346354902 182.55577796138823,150.34197692602174 182.03369217505679,147.7113912041532 181.66077375644818,144.88593567494536 180.98952060285956,142.2553283428424 180.54201849969104,141.3784569168347 179.647014294751,136.79922065942083 178.6028427220881,133.09683634672547 177.55867114989087,128.51754298765445 176.73825062811375,125.88687082135584 175.69407905545086,119.35886154405307 175.39574432047084,118.48195988644147 175.02282590139657,116.63071925222175 172.412396970205,114.29230265371734 170.4732211921364,114.4871710180887 169.50363330356777,114.97434167878237 166.52028595330194,115.75381399266189 163.76068965392187,115.94868192821741 158.316080739256,117.50762335385662 157.2719091665931,117.60505707137054 154.21397813223302,118.57939346128842 150.55937762837857,120.04089536576066 148.99312026938424,121.2100945735001 147.05394449131563,123.25618823443074 145.18935239780694,124.23051633336581 143.39934398746118,124.8151125064469 137.73098402144387,125.78943831881043 132.06262405589223,125.20484300312819 130.1234482782893,125.30227559135528 126.39426408987492,126.08173578343121 124.52967199590057,126.66633032733807 123.41091673960909,127.2509243565728 121.69549201335758,128.42011087137507 118.93589571397752,131.14820473402506 116.17629941459745,135.0454622420366 115.2812952096574,137.18894412339432 114.61004205606878,140.98873591114534 114.8337931074202,145.5679432824254 115.20671152602881,147.61396190308733 115.57962994510308,148.39339591027237 116.47463415004313,150.34197692602174 118.48839361174032,153.84940834762529 120.65132044069469,155.9928295427817 122.06841043243185,157.0645375464228 127.14010092802346,159.88994126667967 129.452195124235,161.64363408222562 131.24220353458077,163.68960318143945 132.28637510724366,165.34585926454747 133.10679562855512,166.90468474652153 137.05973086785525,183.56440359936096 140.19224558584392,185.90257631568238 145.04018503054976,184.92833868414164 147.4268629103899,184.6360671162256 151.37979814969003,183.17470734677045 153.84105971409008,182.8824350068462 158.76358284195885,181.22622265247628 167.3407064746134,179.57000616862206 170.39863750850782,179.4725815411075 173.0836501242593,178.98545818810817 175.8432464231737,178.01121041114675 177.7824222012423,177.0369612047798 179.34867955977097,176.0627105697058 181.4370227055624,173.91935414186446 182.77952901273966,172.36054512299597 183.59994953405112,170.7043065316393 185.16620689304546,167.19696411729092 185.46454162849113,165.2484325505793 185.31537426030263,162.2281973249046 184.345786371734,158.1362438206561 183.74911690177396,154.433978450601 182.8541126968339,150.6342635852634 182.25744322687387,148.78311257064342 181.88452480733395,146.34737969073467 180.84035323467106,142.83990865020314 179.79618166247383,136.79922065942083 179.12492850841954,134.85059991001617 178.30450798710808,131.73279481829377 178.2299243034795,129.49186336807907 177.93158956849948,127.93295007332927 177.55867114989087,127.05605973722413 175.76866273907945,121.50239405373577 175.39574432047084,118.67682702175807 175.02282590139657,117.50762335385662 172.63614802155644,114.19486845022766 169.65280067082494,114.68203932553297 164.65569385886192,115.94868192821741 161.89609755948186,116.72815309860744 155.8548191753216,117.89735813828884 152.94605550868437,118.87169409927446 149.29145500436425,120.82036173285451 146.68102607270703,123.35362110851565 145.93518923548982,123.93821805377956 139.67015979951248,125.88687082135584 138.62598822638392,126.08173578343121 134.8222203552723,125.49714072514325 130.79470143234357,125.3997081653215 125.94676198763773,126.37403311976232 124.15675357729197,126.95862740604207 122.3667451669462,128.12781443551648 119.68173255166039,130.66104593750788 118.26464256038889,132.31738438794855 115.8779646800831,136.50692791154142 114.75920942332596,139.13755801232764 114.38629100471735,140.98873591114534 114.46087468834594,145.17822473554406 114.75920942332596,147.12681518425234 115.05754415877163,148.0036790210288 117.44422203907743,152.4854094402399 118.71214466309175,154.14169346354902 120.05465097073466,155.60311711288523 123.18716568825766,158.03881604917115 125.49925988540053,159.2079483657144 128.25885618384928,160.8642156246351 131.54053826956078,164.5664451517514 133.2559629958123,167.09953767451225 133.852632466238,168.85321145423222" stroke="#4dd2ff" stroke-linecap="round" stroke-linejoin="round" stroke-width="0.5"><title>2021-09-23 10.6km</title><desc>9361375595</desc></polyline><polyline fill="none" points="20.38423645333387,239.1802536105679 20.56157635478303,239.23816766179516 21.62561576371081,238.71694089483935 22.290640394203365,239.29608170464053 24.064039408927783,241.26515410351567 24.99507389171049,242.65508164887433 25.79310344858095,245.5507483194233 25.97044335003011,246.5352701494703 26.502463054144755,248.56221912844921 26.857142857275903,249.54673344930052 27.56650246330537,253.48476618342102 29.517241379478946,254.64300363027724 30.58128078840673,254.41135641283472 32.709359606029466,253.7164139446395 32.97536945831962,253.7164139446395 34.660098522435874,253.19520629086765 37.85221674898639,252.55817377968924 40.37931034481153,252.32652533892542 43.482758620753884,251.5157547261624 48.00492610852234,250.06794591937796 50.75369458156638,249.31508324167226 52.305418719304726,248.6780444700271 54.03448275872506,247.28813812782755 55.23152709379792,245.60866143618478 56.073891625739634,243.6975240969332 56.20689655188471,240.80184383428423 56.02955665043555,239.5856517907814 55.54187192139216,238.0219708016084 54.43349753716029,231.5355242722144 53.679802955826744,229.1030793483078 53.19211822678335,227.07603046344593 53.01477832510136,225.91771214196342 52.61576354689896,224.29606078230427 51.72906403965317,221.16857149201678 51.684729064116254,220.58940408975468 51.37438423652202,219.7206513932324 51.15270935976878,218.62022856631665 51.0197044336237,216.9406299168768 49.82266009878367,212.8863968384685 47.472906404174864,212.19138127283077 44.280788177624345,212.94431474694284 42.684729064116254,213.17598629606073 40.55665024649352,213.6972467850137 40.15763546805829,213.87100012827432 38.73891625623219,214.10267113376176 35.19211822678335,215.7243643651018 33.06403940892778,217.2881336720311 29.827586207073182,218.79397974302992 28.852216748753563,218.90981381825986 27.344827586319298,218.8518967848213 24.640394088812172,218.50439440621994 23.088669950840995,218.62022856631665 20.871921182610095,219.02564785949653 19.541871921159327,219.6627344788576 18.477832512464374,220.1839864026697 18.078817734261975,220.53148730279645 17.236453202320263,221.22648818560992 16.39408867014572,222.09523756837007 15.463054187595844,223.48523260463844 14.753694581566378,224.93313889656565 14.310344827827066,226.38103987829527 14.088669950840995,228.00268267368665 14.044334975536913,230.02972680077073 14.310344827827066,231.59343944481225 14.665024630725384,232.57799608039204 15.374384236522019,233.85212455221335 16.704433497739956,235.76330954991863 17.502463054377586,236.45828361911117 19.275862069102004,237.73239956842735 21.22660098527558,238.77485501399497 22.15763546829112,239.4119097646908 23.665024630725384,240.80184383428423 24.330049261217937,241.72846382905846 25.57142857182771,244.1608309680014 25.837438423885033,245.20326944024418 26.01477832533419,246.36153118146467 25.926108374493197,246.9406607777346 26.103448275942355,247.92517914201017 26.502463054144755,248.90969505126122 27.078817734261975,251.0524564855441 27.344827586319298,252.67399794905214 27.699507389450446,253.7164139446395 29.162561576347798,254.29553275293438 30.98029556660913,253.89014967627008 35.36945812823251,253.07938227438717 36.699507389450446,252.67399794905214 42.0197044336237,251.63157920117374 43.881773398956284,251.16828109664493 46.05418719234876,250.76289480918786 48.270935960812494,250.12585837353254 49.6009852217976,249.95212098537013 52.26108374400064,248.56221912844921 54.43349753716029,246.709009041253 55.40886699501425,245.3770089179743 55.80788177368231,244.45039748644922 56.118226601043716,242.59716809890233 56.295566502725706,240.51227463997202 55.54187192139216,237.90614233375527 55.40886699501425,236.97951336807455 55.18719211826101,236.11079673745553 55.00985221681185,234.72084615260246 54.78817733982578,233.96795420942362 54.61083743837662,232.17259070425644 54.43349753716029,231.6513546090864 54.300492611015216,230.89845681216684 53.901477832812816,229.33474141531042 53.679802955826744,228.87141714530298 53.458128079073504,228.75558599305805 53.103448276175186,226.26520799528225 52.4384236454498,223.77481428784085 51.95073891640641,221.4002382150502 51.463054187363014,219.77856829905068 51.15270935976878,218.04105742555112 50.39901477866806,215.1451889758173 50.0,213.29182201990625 48.62561576371081,211.67011879567872 45.92118226620369,212.3651352788729 44.19211822655052,212.8863968384685 42.684729064116254,213.06015053860028 41.04433497553691,213.46557554163155 37.00985221681185,214.62393039889866 35.5467980299145,215.3768592333945 32.93103448301554,217.34605093495338 30.62561576371081,218.50439440621994 29.56157635478303,218.73606269271113 28.098522167885676,218.8518967848213 26.36945812823251,218.73606269271113 24.77339901495725,218.44647731332225 23.133004926377907,218.50439440621994 19.054187192115933,219.54690062452573 16.482758620753884,221.97940442778054 15.551724138204008,223.31148349278374 14.753694581566378,224.75939042196842 14.266009852290154,226.2072920409264 14.088669950840995,227.24977791847778 14.0,229.04516381036956 14.0,230.1455575794389 14.088669950840995,230.66679566266248 14.39901477843523,231.70926976483315 15.241379310609773,233.6204651358712 16.482758620753884,235.41582205684972 17.19211822678335,236.2845402166131 18.522167487768456,237.32699948496884 20.871921182610095,238.54319848617888 22.20197044336237,239.52773779057316 22.6009852217976,239.8752216648718 24.99507389171049,243.11838974335114 25.748768473044038,245.02952988588368 26.059113300638273,247.80935357967974 26.236453202087432,248.33056834334275 27.21182266040705,252.731910020957 27.522167487768456,253.7164139446395 29.02955665020272,254.58509183852584 30.58128078840673,254.00597345494316 33.24137931060977,253.36894225183642 33.81773399026133,253.36894225183642 37.7635467981454,252.26861320759053 41.709359606029466,251.57366696791723 43.9261083744932,251.3420179496461 45.43349753716029,250.87871950521367 46.896551724290475,250.53124531521462 47.91625615791418,250.1837708193052 49.55665024649352,249.7783835209848 51.108374384464696,249.31508324167226 51.99507389194332,248.7938697777281 53.81280788173899,247.40396384330234 54.92118226620369,246.07196606474463 55.674876847537234,244.62413729555556 55.85221674898639,244.218744288577 55.98522167513147,242.65508164887433 56.16256157658063,241.67055014302605 56.25123152718879,240.68601618203684 55.94088669959456,238.9485973206174 55.71921182284132,238.42737017112086 55.098522167652845,235.5895658416266 54.876847290899605,233.27297575664124 54.03448275872506,230.3772190347081 53.32512315292843,228.4080923316942 52.74876847304404,224.93313889656565 52.61576354689896,224.5856418707117 51.95073891640641,221.16857149201678 51.72906403965317,220.6473208683601 51.108374384464696,217.75147153649596 50.57635468011722,215.95603428295 50.35467980313115,214.91351858215057 50.17733990168199,213.5234933650936 50.04433497553691,213.11806842160877 48.53694581286982,211.9597091457108 46.80788177368231,212.24929928331403 45.3448275863193,212.77056099567562 38.02955665043555,214.3922596993798 36.522167487768456,215.02935379598057 35.05911330063827,215.8981168162136 33.24137931060977,217.23021640087245 31.689655172405764,218.04105742555112 30.1822660099715,218.50439440621994 28.63054187200032,218.90981381825986 27.477832512697205,218.90981381825986 24.59605911350809,218.44647731332225 24.0197044336237,218.44647731332225 22.15763546829112,218.73606269271113 21.62561576371081,218.9677308430255 20.16256157658063,219.31523281385307 19.320197044406086,219.6627344788576 17.147783251479268,221.45815487450454 15.729064039653167,223.13773430432775 14.487684729276225,225.97562813869445 14.266009852290154,227.13394629018148 14.17733990168199,228.75558599305805 14.443349753972143,230.84054153741454 14.79802955687046,232.57799608039204 15.551724138204008,233.96795420942362 16.527093596057966,235.41582205684972 17.857142857508734,236.45828361911117 22.512315271189436,239.5856517907814 23.22167487698607,240.2806191315758 25.083743842784315,243.35004358671722 26.01477832533419,246.12987910502125 26.41379310353659,248.2726556257403 27.78817734005861,254.00597345494316 30.35960591165349,254.29553275293438 31.334975369507447,253.9480615699431 33.59605911350809,253.42685422190698 37.63054187200032,252.67399794905214 39.315270936116576,251.57366696791723 44.41379310353659,251.11036879537278 46.98522167489864,250.64707007911056 47.56157635501586,250.41542051712167 48.669950739014894,250.24168325640494 50.53201970458031,249.720471015753 51.55172413797118,249.19925808691187 52.482758620986715,248.62013180353097 54.2561576354783,247.0564865952183 55.275862069102004,245.5507483194233 55.71921182284132,244.50831076464965 55.94088669959456,243.40795702624018 56.295566502725706,240.8597576477914 56.20689655188471,239.70147976605222 55.98522167513147,239.1223395509296 55.80788177368231,238.0219708016084 55.497536946088076,237.1532564649242 55.275862069102004,235.5895658416266 54.92118226620369,233.56255026042345 54.876847290899605,232.92548607144272 55.80788177368231,231.6513546090864 57.492610837565735,231.24594828145928 61.305418719304726,229.68223426106852 62.99014778342098,229.3926569109317 64.54187192115933,228.987248263933 65.60591133031994,228.5818392004876 66.80295566515997,226.96019878418883 66.53694581286982,225.97562813869445 65.51724137947895,221.16857149201678 64.76354679837823,218.73606269271113 64.09852216765285,215.3768592333945 63.65517241391353,213.92891789230634 63.699507389217615,211.90179109276505 66.71428571431898,210.8013464708929 71.9458128081169,209.64298039712594 73.89655172429048,208.9479591214331 75.22660098550841,208.25293662204058 75.7142857145518,208.13709941980778 77.00000000023283,207.61583158926805 77.97536945831962,207.49999420018867 80.50246305437759,207.09456307045184 83.07389162573963,206.10994287906215 83.65024630539119,205.9941050481866 83.65024630539119,205.93618611982674 84.04926108382642,205.53075338405324 85.33497536974028,205.47283438782324 86.0,205.35699636972276" stroke="#4dd2ff" stroke-linecap="round" stroke-linejoin="round" stroke-width="0.5"><title>2021-09-22 10.2km</title><desc>9361375473</desc></polyline><polyline fill="none" points="127.45737934857607,201.7024342494551 121.82172418478876,202.70709766680375 120.02856117952615,203.71176064154133 119.26006274856627,206.05597252608277 116.95456745382398,208.4001819989644 120.54089346714318,234.85609314916655 126.43271477334201,254.61410492123105 130.27520693093538,262.3163342878688 140.77801882475615,262.65121323545463 145.64517555758357,261.3116971512791 163.8329717637971,253.27458411245607 164.85763633903116,249.59089782973751 168.9562946408987,243.89791640662588 178.94677424710244,238.8746856932994 181.76460182853043,225.81423401436768 174.3357836594805,213.7583660238888 174.3357836594805,210.7443890599534 165.3699686266482,199.69310608529486 155.6356551637873,197.34888765541837 125.66421634238213,196.00933318352327 120.79705961141735,201.03265839233063 117.21073359809816,217.77699577412568 119.77239503525198,227.15377096482553 123.102554904297,247.58161189360544 127.45737934857607,256.2885048238095 128.99437621049583,260.97681800764985 133.09303451236337,263.655849781353 139.24102196190506,260.97681800764985 148.46300313808024,258.967542110011 156.147987450473,254.94898500014096 162.03980875760317,250.59554013353772 164.34530405234545,246.91184952063486 164.34530405234545,245.57232418446802 168.9562946408987,242.55838929954916 175.36044823471457,240.21421496663243 178.94677424710244,237.87003822205588 182.0207679728046,235.1909761314746 183.3015986913815,233.18167749792337 183.04543254710734,225.81423401436768 178.17827581614256,217.44211023277603 174.07961751520634,212.08393487054855 169.98095921427011,201.7024342494551 164.85763633903116,197.68377615045756 160.24664575140923,198.01866459590383 158.96581503283232,197.34888765541837 148.97533542569727,197.0139991112519 138.216357386671,195.0046668134164 134.63003137428313,197.0139991112519 129.76287464238703,197.68377615045756 124.89571791049093,196.679110518191 115.67373673524708,216.77233900199644 118.23539817240089,223.47004245663993 120.02856117952615,237.87003822205588 122.59022261667997,243.56303470372222 128.99437621049583,261.9814552911557 133.60536679904908,263.99072853126563 145.1328432681039,261.3116971512791 150.00000000093132,260.3070595720783 157.94115045759827,255.28386502945796 164.85763633903116,245.57232418446802 179.71527267899364,238.5398032523226 183.04543254710734,235.52585906581953 182.5331002594903,226.48400258785114 178.94677424710244,218.7816521055065 174.59194980282336,213.08859371044673 170.74945764616132,200.36288233753294 159.7343134637922,198.01866459590383 156.4041535956785,196.34422187623568 151.5369968637824,197.68377615045756 146.92600627616048,197.68377615045756 142.57118183095008,197.0139991112519 124.3833856228739,196.34422187623568 120.79705961141735,200.69777038902976 118.49156431574374,205.7210852620192 115.92990287858993,217.44211023277603 117.97923202905804,222.46538819279522 118.7477304590866,236.86539030703716 124.12721947953105,250.93042080360465 127.2012132043019,256.2885048238095 128.7382100680843,260.6419388144277 134.37386523094028,264.995364487404 153.5863260133192,257.9629034965765 157.1726520266384,255.61874501034617 159.7343134637922,252.60482341353782 163.32063947618008,246.24208694999106 166.1384670585394,244.23279806110077 172.2864545090124,241.88862544950098 182.5331002594903,236.86539030703716 182.7892664037645,224.80958078429103 175.36044823471457,211.41416206327267 171.0056237904355,200.36288233753294 164.85763633903116,198.01866459590383 162.5521410452202,199.69310608529486 149.48766771238297,197.68377615045756 146.92600627616048,196.34422187623568 142.82734797429293,195.67444444284774 133.34920065570623,196.679110518191 127.71354549191892,195.33955565281212 123.61488719284534,195.67444444284774 116.44223516527563,215.43279594765045 117.72306588571519,218.1118812672794 119.26006274856627,226.48400258785114 119.0038966042921,232.17702751676552 120.28472732193768,240.88397930702195 123.8710533361882,251.60018199519254 130.5313730733469,264.995364487404 138.47252353001386,262.9860921334475 144.87667712476104,259.97218028013594 151.02466457523406,255.95362494210713 155.6356551637873,254.27922479319386 161.78364261426032,249.92577864741907 168.1877962090075,243.89791640662588 178.17827581614256,238.8746856932994 181.50843568518758,236.1956247847993 182.7892664037645,227.48865508008748 175.61661437805742,216.10256757377647 171.26178993284702,204.04664820060134 170.2371253594756,199.0233296379447 167.16313163377345,198.35355299222283 164.34530405234545,199.69310608529486 159.99047960806638,200.36288233753294 157.94115045759827,199.35821788641624 138.72868967428803,196.679110518191 123.8710533361882,196.679110518191 115.16140444669873,213.7583660238888 118.23539817240089,220.79096343670972 119.0038966042921,225.47934965393506 119.5162288909778,235.1909761314746 123.35872104763985,243.56303470372222 125.66421634238213,252.93970378674567 129.76287464238703,262.9860921334475 133.60536679904908,263.3209709820803 142.05884954333305,258.967542110011 155.6356551637873,254.61410492123105 163.32063947618008,250.2606594148092 167.4192977771163,245.57232418446802 177.15361123997718,240.21421496663243 180.99610339663923,236.1956247847993 180.99610339663923,225.47934965393506 178.4344419585541,217.10722464206629 175.87278052140027,213.7583660238888 173.5672852275893,208.73506887024269 170.49329150281847,198.35355299222283 164.0891379090026,197.34888765541837 161.52747647091746,198.6884413403459 155.6356551637873,197.34888765541837 146.92600627616048,197.68377615045756 134.37386523094028,199.69310608529486 129.25054235477,198.35355299222283 120.79705961141735,200.02799423621036 116.1860690228641,213.7583660238888 118.7477304590866,221.79561843792908 119.0038966042921,229.16307491459884 120.28472732193768,233.85144390608184 123.102554904297,240.5490971612744 123.8710533361882,250.2606594148092 129.25054235477,262.65121323545463 134.11769908573478,264.995364487404 142.31501568760723,261.3116971512791 149.48766771238297,258.967542110011 153.07399372477084,256.9582644409966 157.6849843133241,254.94898500014096 161.52747647091746,252.60482341353782 165.11380248330534,247.24673073133454 165.11380248330534,246.24208694999106 167.93163006473333,244.23279806110077 182.0207679728046,238.5398032523226 183.04543254710734,227.82353914505802 174.84811594616622,209.7397291867528 175.87278052140027,211.07927558664232 175.36044823471457,211.7490484912414 174.3357836594805,211.41416206327267 172.79878679662943,210.0746158605907 170.49329150281847,200.69777038902976 159.22198117617518,198.35355299222283 152.56166143808514,194.0 150.00000000093132,194.0 142.82734797429293,194.334888987476 134.37386523094028,196.34422187623568 128.7382100680843,196.679110518191 123.61488719284534,196.34422187623568 120.54089346714318,201.7024342494551 115.92990287858993,217.77699577412568 118.23539817240089,222.13050334062427 119.5162288909778,233.18167749792337 125.66421634238213,250.2606594148092 130.27520693093538,259.3024215491023 130.7875392176211,261.9814552911557 135.14236366190016,264.995364487404 137.44785895664245,263.655849781353 143.8520125504583,261.9814552911557 151.79316300712526,257.6280238600448 162.5521410452202,252.93970378674567 165.88230091519654,247.24673073133454 168.70012849662453,244.56767966598272 179.45910653378814,238.8746856932994 182.5331002594903,235.86074195010588 183.04543254710734,225.81423401436768 174.59194980282336,213.7583660238888 169.98095921427011,202.03732210490853 156.66031973902136,198.01866459590383 151.28083071950823,198.35355299222283 145.64517555758357,196.34422187623568 137.19169281143695,198.35355299222283 128.48204392381012,196.00933318352327 125.92038248572499,196.00933318352327 121.56555804237723,200.02799423621036 116.95456745382398,214.76302412664518 120.28472732193768,224.47469627694227 120.28472732193768,229.83284250414 122.07789032999426,239.5444504278712 125.66421634238213,254.61410492123105 127.45737934857607,258.967542110011 136.42319438047707,263.99072853126563 148.20683699380606,259.97218028013594 156.9164858823642,256.2885048238095 164.34530405234545,245.9072055919096 168.70012849662453,243.89791640662588 175.36044823471457,241.88862544950098 178.94677424710244,239.20956808514893 182.5331002594903,228.49330712808296 179.45910653378814,219.78630799171515 175.1042820904404,213.08859371044673 172.03028836566955,204.7164231732022 165.11380248330534,198.6884413403459 152.30549529381096,199.35821788641624 142.82734797429293,197.0139991112519 136.16702823713422,197.34888765541837 125.40805019810796,196.00933318352327 117.97923202905804,210.7443890599534 117.72306588571519,216.10256757377647 119.77239503525198,227.82353914505802 120.02856117952615,235.86074195010588 124.12721947953105,249.59089782973751 129.50670849811286,262.65121323545463 134.11769908573478,264.995364487404 151.28083071950823,257.6280238600448 166.39463320188224,243.2281529516913 175.1042820904404,239.5444504278712 179.9714388223365,236.1956247847993 182.0207679728046,224.47469627694227 174.59194980282336,209.7397291867528 170.2371253594756,198.35355299222283 151.28083071950823,196.34422187623568 146.41367398761213,195.0046668134164 137.44785895664245,197.34888765541837 128.99437621049583,197.0139991112519 122.33405647333711,199.69310608529486 122.07789032999426,205.38619794882834 119.5162288909778,209.40484246378765 118.23539817240089,217.44211023277603 120.28472732193768,224.80958078429103 120.28472732193768,234.18632703693584 124.89571791049093,252.93970378674567 127.45737934857607,256.62338465754874 129.50670849811286,262.65121323545463 133.86153294239193,264.32560723205097 137.7040250999853,262.3163342878688 146.41367398761213,259.97218028013594 158.96581503283232,253.27458411245607 164.0891379090026,246.91184952063486 168.70012849662453,242.89327115006745 172.2864545090124,241.5537434516009 175.61661437805742,239.20956808514893 179.9714388223365,237.20027299411595 183.5577648356557,234.52121011773124 183.3015986913815,222.80027299700305 173.5672852275893,209.7397291867528 171.26178993284702,199.69310608529486 159.7343134637922,199.0233296379447 145.9013416999951,195.33955565281212 138.98485581949353,195.33955565281212 125.92038248572499,197.34888765541837 121.56555804237723,204.38153571193106 117.72306588571519,216.77233900199644 119.0038966042921,221.12584848725237 119.77239503525198,235.86074195010588 128.22587777953595,260.3070595720783 130.27520693093538,263.655849781353 136.93552666716278,263.3209709820803 146.66984013095498,260.3070595720783 158.19731660094112,255.95362494210713 163.57680562045425,250.2606594148092 164.0891379090026,248.25137406843714 167.93163006473333,243.2281529516913 174.59194980282336,241.21886140434071 180.48377110995352,237.87003822205588 184.0700971223414,234.85609314916655 184.8385955542326,226.14911832520738 174.07961751520634,212.75370747898705 170.2371253594756,201.3675463453401 155.12332287617028,198.6884413403459 153.07399372477084,199.0233296379447 145.3890094133094,198.01866459590383 141.03418496903032,198.01866459590383 135.39852980617434,199.35821788641624 126.94504706095904,198.6884413403459 121.56555804237723,204.38153571193106 120.79705961141735,206.05597252608277 118.49156431574374,226.14911832520738 118.7477304590866,231.17237709159963 119.77239503525198,235.86074195010588 123.102554904297,242.22350739920512 124.3833856228739,252.60482341353782 129.50670849811286,262.9860921334475 136.16702823713422,262.9860921334475 142.31501568760723,258.967542110011 156.4041535956785,254.27922479319386 166.65079934615642,241.88862544950098 169.21246078331023,241.21886140434071 182.0207679728046,234.85609314916655 183.04543254710734,225.81423401436768 176.3851128090173,216.43745331233367 174.07961751520634,208.4001819989644 169.4686269275844,198.6884413403459 160.24664575140923,200.36288233753294 156.66031973902136,198.35355299222283 127.9697116361931,197.68377615045756 115.67373673524708,217.10722464206629 116.95456745382398,220.12119318987243 119.0038966042921,235.52585906581953 122.07789032999426,243.89791640662588 124.63955176621675,254.61410492123105 130.5313730733469,265.3302430405747 133.60536679904908,266.0 137.19169281143695,263.99072853126563 156.147987450473,256.9582644409966 164.34530405234545,244.23279806110077 176.12894666474313,239.20956808514893 181.76460182853043,226.81888680136763 175.1042820904404,213.7583660238888 172.79878679662943,206.05597252608277 170.49329150281847,201.3675463453401 163.06447333376855,198.01866459590383 153.5863260133192,196.679110518191 143.8520125504583,196.34422187623568 127.2012132043019,198.01866459590383 119.0038966042921,209.40484246378765 115.67373673524708,217.77699577412568 116.95456745382398,222.46538819279522 117.97923202905804,232.17702751676552 119.0038966042921,236.86539030703716" stroke="#4dd2ff" stroke-linecap="round" stroke-linejoin="round" stroke-width="0.5"><title>2020-12-06 10.3km</title><desc>9361308001</desc></polyline></svg>