<?xml version="1.0" encoding="utf-8" ?>
<svg baseProfile="full" height="300mm" version="1.1" viewBox="0,0,200,300" width="200mm" xmlns="http://www.w3.org/2000/svg" xmlns:ev="http://www.w3.org/2001/xml-events" xmlns:xlink="http://www.w3.org/1999/xlink"><defs /><rect fill="#222222" height="300" width="200" x="0" y="0" /><text fill="#FFFFFF" style="font-size:12px; font-family:Arial; font-weight:bold;" x="10" y="20">Over 10km Runs</text><text fill="#FFFFFF" style="font-size:4px; font-family:Arial" x="10" y="280">ATHLETE</text><text fill="#FFFFFF" style="font-size:9px; font-family:Arial" x="10" y="290">malinkang</text><text fill="#FFFFFF" style="font-size:4px; font-family:Arial" x="120" y="280">STATISTICS</text><text fill="#FFFFFF" style="font-size:3px; font-family:Arial" x="120" y="285">Number: 8</text><text fill="#FFFFFF" style="font-size:3px; font-family:Arial" x="120" y="290">Weekly: 1.3</text><text fill="#FFFFFF" style="font-size:3px; font-family:Arial" x="141" y="285">Total: 84.8 km</text><text fill="#FFFFFF" style="font-size:3px; font-family:Arial" x="141" y="290">Avg: 10.6 km</text><text fill="#FFFFFF" style="font-size:3px; font-family:Arial" x="167" y="285">Min: 10.2 km</text><text fill="#FFFFFF" style="font-size:3px; font-family:Arial" x="167" y="290">Max: 11.7 km</text><polyline fill="none" points="31.893071000929922,63.20065131387673 32.077844311483204,62.53637284584693 32.03165098372847,61.9928714823327 32.12403763900511,61.388980235293275 32.4011976046022,60.96625583409332 33.09409751929343,60.48314170059166 34.895637296838686,60.36236307834042 35.44995722849853,60.060416367661674 36.55859709135257,59.87924823455978 37.621043626917526,59.93963762119529 41.13173652696423,59.6980800217716 41.824636441422626,59.75846943486249 44.041916167596355,59.39613282296341 44.50384944397956,59.21496439713519 46.028229255694896,59.15457490400877 48.10692899907008,58.61106906729401 49.723695466062054,58.36951068698545 50.231822070199996,58.12795216444647 52.40290846885182,58.00717285016435 53.97348160808906,57.70522440853529 54.98973481613211,57.463665495743044 55.68263473059051,57.40327574516414 60.34816082101315,56.61820818207343 64.87510692887008,56.31625871991855 66.2609067580197,56.43703853143961 66.76903336169198,56.31625871991855 66.86142001696862,56.13508893613471 66.63045337889344,55.41040900204098 66.39948674058542,55.28962888891692 66.21471343026496,55.28962888891692 65.05988023942336,55.59157910547219 62.88879384077154,55.77274912883877 60.48674080404453,56.43703853143961 59.470487596001476,56.557818307424895 58.962360992096364,56.4974284239579 57.899914456764236,56.79937775290455 57.76133447396569,56.73898790488602 56.92985457670875,56.92015742242802 54.666381522780284,57.161716654896736 53.14200171059929,57.58444497000892 50.73994867410511,57.82600381175871 48.3378956373781,58.188341808418045 47.04448246373795,58.248731443454744 42.7023096664343,58.7318482043047 39.930710008367896,59.27535388121032 38.036783575545996,59.33574335643789 35.81950384937227,59.93963762119529 31.615911035099998,60.42275239393348 29.90675791283138,60.78508810067433 28.520958083681762,60.84547735415981 27.643284858902916,60.664309567189775 25.70316509855911,60.84547735415981 24.686911890516058,61.20781268822611 23.116338750813156,61.32859106169781 21.40718562854454,61.81170420127455 18.35842600511387,62.35520580448792 13.277159965829924,63.98570630073664 13.046193327754736,64.1064838579332 13.0,64.22726137959398 13.138579982798547,64.58959373144899 13.461933276383206,64.64998242584988 14.247219846118242,64.28765012702206 16.0487596236635,63.74415107991081 18.173652694560587,63.261040212382795 20.483319076243788,63.019484565389575 21.222412318224087,62.71753980725771 22.423438836820424,62.59676184185082 23.532078699674457,61.9928714823327 24.317365269409493,62.23442773264833 24.594525235239416,62.23442773264833 25.472198460251093,61.9928714823327 28.33618477312848,61.63053684064653 29.537211291724816,61.20781268822611 30.599657827056944,61.268201879400294 31.939264328218997,60.96625583409332 34.57228400348686,60.48314170059166 35.634730538818985,60.42275239393348 36.88195038493723,60.241584420669824 38.12917023082264,60.18119507844676 39.37639007694088,59.93963762119529 41.50128314783797,59.87924823455978 42.563729683635756,59.75846943486249 45.05816937563941,59.27535388121032 47.04448246373795,58.97340637157322 48.661248930729926,58.55067948560463 54.25064157391898,57.82600381175871 55.68263473059051,57.58444497000892 58.962360992096364,57.222106440749485 60.117194182937965,56.98054724378744 62.93498716852628,56.92015742242802 63.76646706601605,56.859767592017306 64.6441402907949,56.67859804775799 65.3832335327752,56.67859804775799 66.72284003417008,56.43703853143961 66.86142001696862,56.13508893613471 66.72284003417008,55.77274912883877 66.5380667236168,55.41040900204098 66.02994011947885,55.41040900204098 64.45936698024161,55.77274912883877 62.334473909344524,55.953919072577264 60.48674080404453,56.4974284239579 58.82378100929782,56.61820818207343 50.462788708275184,57.82600381175871 47.090675791027024,58.12795216444647 43.90333618479781,58.61106906729401 42.147989734774455,58.7318482043047 39.88451668084599,59.15457490400877 37.7596236099489,59.33574335643789 36.697177074383944,59.75846943486249 35.542343883542344,60.00002699898323 33.5560307954438,60.12080572746345 31.431137724546716,60.48314170059166 29.49101796397008,60.96625583409332 26.44225834030658,60.48314170059166 24.594525235239416,61.08703427884029 22.88537211273797,61.32859106169781 20.945252352394164,61.93248239762033 19.651839178986847,62.11364962521475 17.9426860564854,62.53637284584693 13.692899914458394,63.86492870809161 13.0,64.22726137959398 13.230966638075188,64.52920502840425 13.41573994862847,64.52920502840425 13.970059880055487,64.3480388657481 16.14114627894014,63.80453989832313 18.45081266039051,63.32142910180846 19.975192472105846,63.07987349049654 20.806672369362786,62.83831773730344 22.377245509065688,62.59676184185082 23.347305389121175,62.05326055831392 23.6244653549511,61.93248239762033 24.7792985457927,62.05326055831392 25.9341317366343,61.9928714823327 28.613344738958403,61.57014770258684 29.444824636215344,61.20781268822611 31.29255774151534,61.14742348791333 34.52609067596495,60.54353099828586 36.32763045327738,60.30197375404532 37.71343028219417,60.30197375404532 39.88451668084599,60.12080572746345 40.43883661250584,59.93963762119529 42.51753635588102,59.81885883928044 44.50384944397956,59.39613282296341 46.62874251510948,59.09418540203478 48.984602224081755,58.55067948560463 56.83746792119928,57.463665495743044 58.454234388424084,57.161716654896736 61.04106073547155,56.859767592017306 66.07613344723359,56.67859804775799 66.81522668944672,56.557818307424895 67.0,56.37664863016107 66.67664670664817,55.65196912208921 66.49187339609489,55.47079904543352 66.21471343026496,55.41040900204098 65.05988023942336,55.71235912994598 63.07356715132482,55.89352910016896 60.02480752766132,56.67859804775799 54.20444824616425,57.28249621792929 49.16937553440221,58.06756251177285 45.05816937563941,58.36951068698545 43.626176218967885,58.61106906729401 42.794696321710944,58.61106906729401 40.669803250581026,59.03379589127144 38.40633019665256,59.33574335643789 36.697177074383944,59.81885883928044 35.17279726243578,60.060416367661674 29.07527801534161,60.905866598535795 27.550898203626275,60.96625583409332 26.396065012551844,60.78508810067433 25.887938408646733,60.84547735415981 23.162532078567892,61.268201879400294 21.17621899046935,61.9928714823327 19.467065868200734,62.11364962521475 16.46449957229197,63.019484565389575 13.32335329358466,64.04609508390422 13.092386655276641,64.16687262314372 13.092386655276641,64.40842759545194 13.32335329358466,64.64998242584988 13.600513259181753,64.64998242584988 14.385799828683957,64.28765012702206 16.325919589493424,63.86492870809161 17.29597946954891,63.502595717058284 20.113772454904392,63.019484565389575 22.65440547489561,62.475983840966364 22.97775876824744,62.35520580448792 23.347305389121175,61.9928714823327 23.6244653549511,61.87209330382757 24.594525235239416,62.17403868335532 27.227544910041615,61.75131508996128 28.9828913602978,61.268201879400294 31.431137724546716,61.026645061007 32.30881094955839,60.84547735415981 33.83319076127373,60.724698838283075 34.34131736517884,60.60392028730712 35.49615055578761,60.54353099828586 36.88195038493723,60.18119507844676 38.72968349023722,60.241584420669824 40.53122326778248,59.93963762119529 41.77844311366789,59.93963762119529 43.07185628754087,59.75846943486249 44.91958939260803,59.27535388121032 46.9059024809394,59.03379589127144 48.06073567154817,58.671458640135825 49.076988879358396,58.49028989486396 50.60136869107373,58.36951068698545 52.864841744769365,57.88639349996811 56.421727972337976,57.463665495743044 57.16082121478394,57.28249621792929 59.23952095792629,57.0409370562993 60.117194182937965,56.859767592017306 63.81266039330512,56.79937775290455 65.3832335327752,56.557818307424895 66.67664670664817,56.61820818207343 66.95380667224526,56.43703853143961 66.72284003417008,55.65196912208921 66.5380667236168,55.41040900204098 66.2609067580197,55.41040900204098 65.1060735671781,55.77274912883877 62.103507271269336,56.07469899053103 60.39435414876789,56.61820818207343 56.652694610878825,57.161716654896736 53.83490162529051,57.40327574516414 49.12318220711313,58.188341808418045 47.36783575685695,58.248731443454744 46.351582549279556,58.429900295392144 45.10436270292848,58.429900295392144 43.25662959786132,58.671458640135825 40.577416595537215,59.15457490400877 38.82207014528103,59.33574335643789 35.311377245467156,60.060416367661674 31.47733105230145,60.42275239393348 29.90675791283138,60.905866598535795 28.105218135053292,61.026645061007 26.257485029986128,60.905866598535795 24.594525235239416,61.32859106169781 23.39349871687591,61.268201879400294 21.591958939330652,61.87209330382757 17.434559452580288,62.7779287766607 13.230966638075188,64.1064838579332 13.046193327754736,64.28765012702206 13.230966638075188,64.64998242584988 13.508126603905112,64.71037111108308 14.201026518363506,64.28765012702206 16.002566295908764,63.74415107991081 20.113772454904392,63.07987349049654 22.007698887726292,62.65715082900715 23.763045337982476,61.93248239762033 24.04020530357957,61.93248239762033 24.502138579962775,62.17403868335532 25.010265183867887,62.17403868335532 26.257485029986128,61.93248239762033 28.844311377266422,61.63053684064653 30.045337895629928,61.32859106169781 32.12403763900511,61.08703427884029 34.61847733100876,60.60392028730712 37.89820359274745,60.36236307834042 39.37639007694088,60.00002699898323 42.60992301092483,59.81885883928044 44.457656116224825,59.39613282296341 45.935842600418255,59.27535388121032 48.753635585773736,58.61106906729401 49.816082121571526,58.49028989486396 51.20188195025548,58.188341808418045 52.125748503021896,58.06756251177285 53.188195038354024,58.00717285016435 59.054747647605836,57.0409370562993 60.1633875106927,56.98054724378744 60.99486740818247,57.0409370562993 65.1060735671781,56.557818307424895 66.21471343026496,56.73898790488602 66.86142001696862,56.67859804775799 67.0,56.557818307424895 66.81522668944672,55.59157910547219 66.63045337889344,55.35001894994639 66.3071000855416,55.28962888891692 65.47562018828467,55.59157910547219 64.08982035913505,55.71235912994598 62.0573139435146,56.07469899053103 60.625320786843076,56.4974284239579 58.03849443956278,56.98054724378744 55.72882805834524,57.161716654896736 51.34046193328686,57.82600381175871 49.8622754488606,57.94678317953367 48.568862275453284,58.188341808418045 46.53635585960001,58.248731443454744 43.4414029084146,58.7318482043047 41.316509837284684,58.91301684308564 37.020530367968604,59.6980800217716 35.03421727963723,60.18119507844676 33.46364414039999,60.18119507844676 32.493584259878844,60.42275239393348 30.96920444839634,60.48314170059166 30.23011120618321,60.724698838283075 29.49101796397008,60.664309567189775 28.75192472175695,60.905866598535795 26.95038494421169,60.96625583409332 25.564585115294904,61.14742348791333 24.317365269409493,61.20781268822611 23.254918734077364,61.14742348791333 21.638152266619727,61.87209330382757 20.621899059042335,62.17403868335532 19.882805817062035,62.23442773264833 19.097519247327,62.53637284584693 18.219846022315323,62.65715082900715 14.201026518363506,63.86492870809161 13.184773310553282,64.04609508390422 13.092386655276641,64.22726137959398 13.461933276383206,64.58959373144899 13.73909324221313,64.58959373144899 14.339606501162052,64.3480388657481 16.603079555323347,63.683762252592715 17.896492728730664,63.502595717058284 22.746792129939422,62.475983840966364 23.763045337982476,61.9928714823327 24.54833190748468,62.23442773264833 24.825491873314604,62.17403868335532 27.042771599721164,61.81170420127455 28.798118049511686,61.268201879400294 30.276304533705115,61.08703427884029 31.431137724546716,61.14742348791333" stroke="#4dd2ff" stroke-linecap="round" stroke-linejoin="round" stroke-width="0.5"><title>2023-10-28 10.3km</title><desc>10117898346</desc></polyline><polyline fill="none" points="153.82185273151845,63.80085997271817 153.9501187647693,64.13622494429 153.7790973871015,63.85675415516016 153.82185273151845,62.347608344920445 153.6508313540835,61.62098044878803 153.82185273151845,61.17382413026644 154.035629453836,60.950245773856295 154.54869358660653,60.67077264349791 155.48931116401218,60.279509915882954 158.6532066508662,59.329298759199446 161.81710213795304,58.93803465165547 162.97149643697776,58.770349910802906 164.29691211413592,58.770349910802906 165.5795724466443,58.602665096201235 167.37529691215605,58.658560042706085 168.61520190024748,58.43498020750121 170.1971496436745,58.043715180043364 172.93349168635905,57.59655465555261 173.9168646079488,57.59655465555261 176.61045130621642,57.205288765369914 177.593824228039,57.14939360541757 179.56057007121854,56.702232029347215 180.88598574814387,56.31096521895961 181.9121140143834,56.3668605023704 183.23752969130874,56.08738400391303 186.1021377670113,56.31096521895961 186.82897862233222,56.14327932012384 186.9144893111661,55.97559334701509 186.87173396674916,55.75201193479006 186.7007125893142,55.41663956976845 186.40142517816275,55.13716237299377 186.1021377670113,55.13716237299377 184.64845605683513,55.64022117937566 183.06650831364095,56.08738400391303 181.441805225797,56.64633679535473 179.64608076005243,57.205288765369914 178.2351543942932,57.76423991378397 177.8503562945407,57.76423991378397 176.39667458436452,57.59655465555261 173.7885985749308,58.15550522884587 172.12114014243707,58.32319024080061 170.62470308784395,58.602665096201235 167.67458432307467,58.770349910802906 166.00712589058094,58.658560042706085 165.1947743468918,58.82624483274412 163.44180522556417,58.93803465165547 160.36342042777687,59.60877287527546 155.7030878860969,59.72056246417924 151.98337292158976,60.50308866685373 150.9144893111661,60.5589833339036 148.81947743450291,61.11792955335113 147.40855106897652,61.22971869877074 145.05700712581165,61.17382413026644 140.5676959620323,62.40350274107186 139.71258907369338,62.57118587990408 138.64370546326973,62.57118587990408 138.04513064143248,62.68297459799214 137.27553444169462,62.96244624978863 136.93349168659188,63.074234852945665 136.80522565334104,63.241917696082965 136.97624703100882,63.57728316064458 137.44655581959523,63.689071583154146 138.47268408560194,63.52138893713709 139.24228028510697,63.13012914234423 140.0973871734459,62.90655193573912 141.0380047506187,62.40350274107186 143.3040380049497,61.62098044878803 146.85273159155622,60.167720491444925 148.3064133017324,60.391299307724694 149.28978622332215,60.391299307724694 152.15439429925755,60.05593103377032 152.5391923992429,59.94414154358674 153.1377672208473,59.496983253455255 153.60807600943372,59.329298759199446 154.8052256531082,59.273403911240166 157.66983372927643,58.714454980858136 158.86698337295093,58.658560042706085 160.36342042777687,58.37908522825455 162.88598574814387,58.15550522884587 165.06650831364095,58.26729524511029 166.94774346798658,58.043715180043364 168.23040380049497,58.099610208533704 170.15439429925755,57.54065955308033 173.66033254167996,57.31707906071097 174.38717339676805,57.03760326068732 175.37054631812498,57.03760326068732 176.35391923994757,56.869917682080995 177.2945368171204,56.869917682080995 179.68883610446937,56.590441553184064 182.72446555807255,56.64633679535473 184.81947743473575,56.14327932012384 185.71733966749161,56.19917462792364 186.7007125893142,56.03148867961136 187.0,55.80790730009903 186.95724465535022,55.58432578924112 186.78622327791527,55.19305782884476 186.40142517816275,55.08126690911013 186.14489311166108,55.08126690911013 183.70783847989514,56.14327932012384 181.86935866973363,56.42275577739929 180.0736342042219,57.03760326068732 178.87648456078023,57.09349843702512 176.35391923994757,57.59655465555261 174.90023752953857,57.76423991378397 173.74584323051386,57.87603004495031 171.9501187647693,57.82013498348533 169.4703087885864,58.602665096201235 168.1876484558452,58.82624483274412 167.50356294540688,58.88213974618702 163.91211401415057,58.602665096201235 162.58669833745807,58.99392954891664 157.4560570071917,59.664667673932854 156.25890736328438,60.000036292738514 155.44655581959523,59.94414154358674 154.46318289777264,59.72056246417924 153.6935866982676,59.77645724642207 152.15439429925755,60.22361520776758 149.93111638957635,60.50308866685373 148.22090261266567,61.11792955335113 145.570071258815,61.56508593756007 142.61995249427855,61.844558410783065 140.3966745841317,61.78866393258795 138.77197149652056,61.95634734252235 137.01900237519294,62.51529150840361 135.39429928758182,63.57728316064458 133.76959619950503,64.19211907751742 133.08551068860106,64.69516590665444 133.0,65.0305300897453 133.34204275533557,65.25410604738863 133.76959619950503,65.14231808495242 135.82185273151845,63.85675415516016 136.97624703100882,63.241917696082965 139.15676959627308,62.62708024305175 140.65320665063336,62.40350274107186 142.83372921613045,61.78866393258795 143.7743467935361,61.39740235515637 145.86935866996646,60.44719399136375 146.80997624690644,60.167720491444925 151.72684085508808,59.496983253455255 153.60807600943372,58.99392954891664 156.30166270793416,58.770349910802906 157.4560570071917,58.54677014146 160.06413301662542,58.26729524511029 161.9026128265541,58.15550522884587 163.69833729229867,58.43498020750121 164.25415676948614,58.43498020750121 166.00712589058094,58.211400241125375 167.71733966749161,57.93192509820801 172.20665083127096,57.31707906071097 174.2589073635172,57.484764442255255 175.4560570071917,57.31707906071097 178.10688836104237,56.81402247265214 179.04750593821518,56.53454630289343 180.71496437047608,56.19917462792364 181.7410926364828,56.3668605023704 182.98099762457423,56.31096521895961 184.34916864614934,56.42275577739929 186.82897862233222,56.08738400391303 186.95724465535022,56.03148867961136 187.0,55.75201193479006 186.9144893111661,55.472534984437516 186.65795724466443,55.19305782884476 186.3586698337458,55.08126690911013 185.8883610451594,55.13716237299377 183.36579572455958,55.863802657229826 182.04038004763424,56.42275577739929 179.5178147268016,57.205288765369914 177.97862232779153,57.37297419607057 176.99524940620176,57.70834483590443 174.94299287418835,58.099610208533704 173.66033254167996,58.099610208533704 171.7790973871015,58.26729524511029 167.418052256573,58.770349910802906 165.023752969224,58.54677014146 164.29691211413592,58.54677014146 161.60332541563548,58.88213974618702 156.6437054630369,59.94414154358674 154.3349168645218,59.94414154358674 150.95724465558305,60.391299307724694 148.7767220903188,60.83845654633478 147.79334916872904,60.89435116422828 145.69833729229867,60.89435116422828 143.56057007145137,61.78866393258795 141.7648456057068,62.29171394070727 140.14014251786284,62.459397128841374 138.9857482186053,62.68297459799214 136.84798099752516,63.409600465383846 137.2327790975105,63.63317737591569 137.9168646079488,63.4654947053059 140.3966745841317,62.459397128841374 142.36342042754404,61.453296890860656 143.4323040379677,61.17382413026644 145.8266033255495,60.22361520776758 147.023752969224,59.88824678599485 147.36579572432674,59.94414154358674 148.00712589081377,60.167720491444925 149.03325415658765,60.05593103377032 149.63182897865772,59.88824678599485 150.48693586722948,59.44108843032154 151.94061757740565,58.99392954891664 155.57482185284607,58.82624483274412 159.593824228039,58.043715180043364 160.53444180521183,57.93192509820801 162.6294536816422,57.87603004495031 163.1852731590625,57.98782014314202 164.3824228029698,58.37908522825455 166.39192399056628,58.37908522825455 167.20427553448826,58.043715180043364 167.93111638957635,58.043715180043364 172.37767220893875,57.37297419607057 174.64370546326973,57.205288765369914 176.05463182879612,56.92581288292422 176.5676959620323,56.9817080758512 177.67933491710573,57.26118391708587 178.2351543942932,57.14939360541757 179.09026128263213,56.81402247265214 180.88598574814387,56.702232029347215 181.9121140143834,56.869917682080995 182.5961995248217,56.81402247265214 183.4940617578104,56.590441553184064 184.81947743473575,56.53454630289343 186.23040380049497,56.25506992757437 186.78622327791527,56.03148867961136 186.9144893111661,55.69611656112829 186.87173396674916,55.472534984437516 186.7007125893142,55.13716237299377 186.48693586699665,54.969475956400856 186.05938242282718,54.969475956400856 184.73396674590185,55.58432578924112 183.1092636580579,56.08738400391303 181.18527315929532,56.53454630289343 180.15914489305578,56.869917682080995 176.95249406178482,57.205288765369914 175.58432304044254,57.59655465555261 173.7885985749308,57.70834483590443 172.93349168635905,57.87603004495031 171.26603325409815,57.6524497497594 169.29928741091862,58.15550522884587 168.52969121164642,58.211400241125375 165.23752969130874,58.82624483274412 164.29691211413592,58.82624483274412 162.75771971489303,59.10571931843879 160.406175771961,59.16161419087439 157.96912113996223,59.72056246417924 154.59144893102348,60.000036292738514 153.73634204268456,59.88824678599485 151.5558194774203,60.83845654633478 149.88836104539223,61.06203496834496 147.70783847989514,61.17382413026644 145.95486935880035,60.83845654633478 144.50118764862418,61.06203496834496 143.94536817120388,61.06203496834496 143.00475059379824,61.56508593756007 141.72209026152268,62.01224179621204 139.11401425185613,62.57118587990408 137.06175771984272,63.186023423302686 136.84798099752516,63.409600465383846 136.93349168659188,63.57728316064458 137.36104513076134,63.63317737591569 138.85748218535446,62.68297459799214 139.71258907369338,62.29171394070727 141.97862232779153,61.73276944615645 145.05700712581165,60.72666728598415 146.5534441806376,60.05593103377032 148.64845605683513,59.832352020341204 149.71733966749161,59.44108843032154 151.04275534441695,58.82624483274412 152.62470308784395,58.4908751786279 153.35154394293204,58.4908751786279 154.8052256531082,58.88213974618702 155.44655581959523,58.99392954891664 156.30166270793416,58.770349910802906 157.88361045136116,58.658560042706085 159.0380047506187,58.26729524511029 161.94536817097105,58.043715180043364 162.67220902605914,58.32319024080061 164.55344418040477,58.770349910802906 165.40855106897652,58.770349910802906 167.46080760098994,58.043715180043364 170.15439429925755,57.428869323193794 172.2921615203377,57.484764442255255 173.66033254167996,57.31707906071097 175.88361045136116,57.205288765369914 176.86698337295093,57.09349843702512 179.09026128263213,56.31096521895961 181.99762470298447,56.03148867961136 182.68171021388844,56.19917462792364 183.36579572455958,56.25506992757437 185.58907363424078,55.863802657229826 186.61520190024748,55.97559334701509 186.87173396674916,55.80790730009903 186.95724465535022,55.472534984437516 186.78622327791527,54.91358046786627 186.61520190024748,54.74589395261137 186.18764845607802,54.8017894657969 183.7505938243121,55.58432578924112 182.29691211413592,56.42275577739929 180.97149643697776,56.75812725519063 179.77434679330327,56.92581288292422 177.8503562945407,56.9817080758512 176.69596199528314,56.869917682080995 173.5320665081963,57.6524497497594 171.99287410918623,57.76423991378397 170.36817102134228,57.98782014314202 167.8883610451594,58.54677014146 166.13539192383178,58.4908751786279 164.51068883622065,58.88213974618702 163.14251781487837,58.93803465165547 161.3467933491338,59.72056246417924 160.8764845605474,59.832352020341204 159.0380047506187,60.05593103377032 157.02850356302224,59.832352020341204 156.0878859856166,60.000036292738514 154.16389548685402,60.05593103377032 152.66745843249373,60.391299307724694 151.17102137766778,61.06203496834496 149.54631828982383,61.006140375189716 148.56294536823407,61.11792955335113 145.91211401415057,61.006140375189716 142.91923990519717,61.73276944615645 141.85035629477352,62.17992510739714 140.90973871736787,62.17992510739714 140.0973871734459,62.29171394070727 136.97624703100882,63.4654947053059 137.10451306425966,63.63317737591569 137.48931116377935,63.80085997271817 137.74584323028103,63.80085997271817 138.21615201886743,63.689071583154146 140.90973871736787,62.51529150840361 143.13301662704907,61.22971869877074 145.1852731590625,60.279509915882954 145.78384798089974,59.832352020341204 146.16864608065225,59.664667673932854 146.98099762480706,59.496983253455255 147.964370546164,59.60877287527546 148.73396674590185,59.60877287527546 153.2232779096812,58.93803465165547 153.7790973871015,58.93803465165547" stroke="#4dd2ff" stroke-linecap="round" stroke-linejoin="round" stroke-width="0.5"><title>2023-10-28 10.5km</title><desc>10128361631</desc></polyline><polyline fill="none" points="20.099601593334228,127.83457541355165 19.992031872505322,126.35915107349865 19.077689243014902,126.00785889392137 18.001992031931877,125.30527376214741 15.151394421933219,122.00310983727104 14.50597609532997,121.01948213973083 14.23705179267563,120.45740826259134 13.860557768959552,119.26299908367218 13.161354581592605,117.78754833867424 13.0,116.80391198353027 13.107569720828906,114.83663321271888 13.0,114.34481225730269 13.0,113.29090850951616 14.23705179267563,108.93474841566058 15.312749003991485,106.96743732143659 16.280876493779942,105.77299450011924 17.356573705095798,104.0164555280935 18.109561752760783,103.31383813542197 19.40039840643294,102.61121971186367 22.681274900445715,101.90860025765141 21.60557768912986,101.55729014379904 25.209163346560672,102.04912423080532 25.747011951869354,101.90860025765141 26.984063744777814,101.8383382554166 29.88844621484168,102.33017205391661 31.017928286688402,102.25991011341102 32.09362549800426,102.04912423080532 34.298804780701175,101.69781422024244 35.32071713148616,101.27624186730827 37.364541832357645,100.01152258203365 38.332669322611764,99.37916168695665 39.99999999976717,98.04417483328143 40.91434262949042,97.55233663329273 42.95816733059473,96.70918425833224 44.57171314721927,96.2173446874076 46.66932270908728,96.07681900274474 47.69123505963944,95.86603039881447 50.272908366518095,95.16340104860137 51.40239043813199,95.02287505482673 54.36055776895955,94.03919194423361 56.02788844634779,93.75813925574766 57.53386454191059,95.51471585265244 57.910358565626666,96.99023521484924 58.60956175299361,100.64388264203444 58.878486055647954,101.48702809019596 59.147410358535126,103.17331453299266 59.57768924324773,104.78933346940903 59.792828685138375,105.28116423729807 60.707171314628795,109.49683581537101 61.0836653385777,110.69126934971428 61.298804780934006,111.95596043328987 62.05179282859899,114.9068933079252 62.266932270955294,117.50650958609185 63.127490039914846,119.68455560458824 63.39641434280202,121.01948213973083 63.88047808757983,121.93285078302142 64.74103585653938,127.27250953408657 65.17131474101916,129.1694792334165 65.22509960155003,129.73154288670048 65.11752988072112,130.7854104588332 64.84860557760112,132.82288118966972 64.68725099600852,133.38494055581396 64.31075697229244,134.4388000894396 63.772908366285264,135.4926573043922 63.181274900212884,136.3357414068305 62.4282868525479,137.10856719710864 61.24501992040314,138.09216185400146 59.84661354590207,139.0054979408742 58.878486055647954,139.56755005204468 56.727091633249074,140.27011426331592 54.575697211083025,140.7619085982151 49.84262948203832,141.6049834259029 45.701195219065994,142.72908088783151 44.733067729044706,142.79933689170866 41.29083665343933,143.92343155070557 39.13944223104045,144.20445480325725 35.6434262949042,144.90701221325435 32.63147410354577,145.8905908561137 30.049800796667114,144.69624509848654 29.458167330594733,141.46447105781408 28.92031872505322,139.49729357426986 28.758964143460616,138.44344517041463 28.490039840573445,137.24908084317576 28.113545816624537,134.93060041160788 27.629482071613893,133.38494055581396 27.521912350552157,132.82288118966972 26.17729083658196,130.0828323349706 25.478087649215013,129.38025318071595 23.541832669405267,128.25612439023098 23.057768924161792,128.25612439023098 21.60557768912986,127.41302606576937 17.840637450106442,128.3263825168542 14.774900398217142,113.64221001660917 17.733067729044706,127.90483360196231 18.647410358535126,127.69405900532729 17.62549800798297,128.3263825168542 20.529880477814004,127.48328431628761 20.422310756752267,125.7970834626467 19.45418326696381,124.95398080960149 18.8625498006586,124.67294626231887 17.840637450106442,123.90010040660854 15.366533864289522,120.9492229410098 14.344621513970196,118.91170169957331 13.752988047897816,116.73365216667298 13.645418326370418,114.41507242477383 13.806772908195853,112.0964814586332 14.290836653206497,110.41022643315955 14.936254980042577,108.72396547079552 16.173306772951037,106.68639221967896 17.24900398403406,105.3514257344359 19.45418326696381,103.80567041857284 20.529880477814004,103.17331453299266 22.84262948180549,102.33017205391661 24.02589641418308,102.04912423080532 25.209163346560672,101.90860025765141 26.446215139469132,101.8383382554166 27.73705179290846,101.97886224937974 29.619521912187338,102.33017205391661 33.16932270908728,101.97886224937974 36.450199203100055,100.57362045452464 37.47211155388504,99.94126030165353 40.430278884479776,97.90364968482754 42.04382470110431,97.13076063137851 47.31474103592336,95.86603039881447 48.55179282859899,95.44445291237207 53.17729083634913,94.53103375210776 56.081673306645826,93.8284024434106 57.80278884456493,95.02287505482673 58.233067728811875,96.70918425833224 58.17928286851384,97.3415486786107 58.50199203193188,98.32522500632331 58.71713147405535,98.88732485799119 59.03984063724056,100.08178485222743 59.30876494012773,103.1030527164985 59.470119521953166,103.73540869468707 59.68525896407664,105.63247161952313 60.438247011974454,107.59978819725802 60.438247011974454,108.0213549840555 60.9223107569851,110.41022643315955 61.51394422305748,112.02622095120023 63.127490039914846,120.5979267937364 64.20318725099787,124.04061792767607 64.31075697229244,125.16475661206641 65.06374501995742,128.537156835082 65.17131474101916,129.66128496619058 64.95617529889569,132.05004848458339 64.31075697229244,134.29828561871545 63.82669322704896,135.4224002287956 63.503984063630924,135.98445654450916 61.56772908358835,138.16241853800602 60.16932270932011,139.1460110306507 57.641434262972325,140.55113965948112 56.56573705165647,140.8321648905112 55.38247011951171,140.8321648905112 54.252988047897816,141.0429337057867 50.918326693121344,142.09677639009897 43.44223107560538,143.78291986256954 41.667330677155405,144.3449663677602 37.74103585653938,144.76650081385742 36.71912350598723,144.97726789768785 34.944223107304424,145.60956859288854 32.09362549800426,146.1716129546985 30.103585657430813,144.69624509848654 29.727091633481905,143.64240813319338 28.92031872505322,139.2162675599684 28.382470119278878,136.9680535097723 28.113545816624537,135.28188604689785 27.252988047897816,132.7526237226266 26.930278884479776,132.3310787033115 26.49999999976717,131.20695683828671 25.85458167316392,130.0828323349706 25.101593625498936,129.23973722627852 23.380478087347,127.76431721454719 20.529880477814004,125.72682496500784 18.970119521720335,124.81346355666756 17.679282868513837,123.82984163067886 16.818725099554285,122.91647660484887 15.689243027707562,121.51129624099121 14.774900398217142,119.96559307907592 14.129482071613893,118.41988492885139 13.806772908195853,116.59313250158448 13.645418326370418,113.64221001660917 13.860557768959552,111.95596043328987 14.075697210850194,110.83179074610234 14.50597609532997,109.70761842036154 14.990039840573445,108.6537044683937 15.850597609532997,107.24848225832102 16.280876493779942,106.89717606149497 17.3027888443321,105.56221016382915 18.647410358535126,104.5082870896731 21.175298804650083,102.96252905245638 21.713147410424426,102.75174347902066 23.918326693121344,102.18964816289372 26.17729083658196,102.04912423080532 30.21115537825972,102.33017205391661 32.470119521953166,101.97886224937974 34.72908366541378,101.48702809019596 36.66533864522353,100.64388264203444 39.89243027870543,98.25496247861884 40.91434262949042,97.6928618849779 41.990039840573445,97.27128600660944 55.97410358558409,93.6878760579857 57.587649402208626,94.74182294381899 57.587649402208626,95.44445291237207 58.0717131474521,97.55233663329273 58.39442231087014,100.08178485222743 59.201195219065994,102.25991011341102 59.470119521953166,103.52462346147513 59.470119521953166,104.15697888302384 59.68525896407664,105.3514257344359 59.84661354590207,105.91351733973715 60.06175298825838,107.52952703018673 61.46015936229378,112.79908596698078 61.675298804882914,113.92325103664189 62.37450199201703,116.24183315923437 62.4820717133116,117.36599014801322 62.75099601596594,118.41988492885139 63.39641434280202,120.52766753337346 63.55776892416179,122.21388693814515 64.0956175297033,123.82984163067886 64.68725099600852,127.34276780518121 64.95617529889569,128.537156835082 65.06374501995742,130.7854104588332 64.90239043836482,131.97979090397712 64.68725099600852,132.61210875739926 64.31075697229244,134.29828561871545 63.82669322704896,135.35214314309997 62.535856573609635,137.24908084317576 61.40637450199574,138.2326752115041 67.0,142.65882487385534 61.24501992040314,138.30293187490315 60.00796812749468,139.28652407895424 57.48007968114689,140.48088332585758 52.101593625498936,141.53472724699532 54.03784860554151,141.25370242807548 50.38047808757983,142.16703248673002 48.33665338647552,142.44805676973192 44.03386454167776,143.64240813319338 41.23705179290846,144.13419900549343 39.67729083658196,144.76650081385742 37.418326693121344,145.11777923547197 34.621513944119215,145.6798241743527 33.061752988025546,146.10135744552827 31.98605577694252,146.3121239419852 30.103585657430813,144.8367565187218 29.56573705165647,141.95626416621963 29.081673306878656,139.91883228646475 28.274900398449972,135.7034284689289 27.790836653206497,134.15777110718773 26.715139442123473,131.6285028469283 24.94023904390633,128.67767299577827 57.69521912350319,146.10135744552827 20.852589641464874,128.0453499481955 17.786852589342743,128.3966406333202" stroke="#4dd2ff" stroke-linecap="round" stroke-linejoin="round" stroke-width="0.5"><title>2022-08-17 10.5km</title><desc>9361519812</desc></polyline><polyline fill="none" points="163.4250411861576,104.99777864382486 165.15980230644345,104.76517471839907 168.89621087303385,104.1255132179067 170.76441515656188,104.1255132179067 171.83196046133526,103.77660650896723 172.9439868205227,103.60215303930454 174.14497528830543,103.54400186552084 175.16803953866474,103.36954829312162 176.85831960476935,102.96248965838458 177.97034596372396,102.84618711459916 180.90609555202536,103.07879216838046 181.43986820429564,103.02064091758803 182.06260296539403,101.27609942515846 180.59472817112692,101.9739169451932 177.97034596372396,102.61358192408807 176.50247116968967,102.67173323451425 174.45634266897105,103.07879216838046 173.3443163097836,103.07879216838046 172.81054365751334,103.19509464397561 172.05436573317274,103.48585068315151 168.31795716634952,104.06736212107353 166.49423393746838,104.00921101580025 164.6705107083544,104.06736212107353 162.84678747924045,104.35811751955771 160.6227347610984,104.76517471839907 157.46457990119234,105.1140805555624 155.15156507422216,105.81189130671555 152.74958813842386,105.7537404577015 147.7232289952226,106.56785156493424 145.36573311360553,106.56785156493424 144.47611202625558,106.80045443080598 142.42998352553695,106.68415301517234 140.65074135083705,106.91675581250456 138.69357495894656,107.38196099727065 137.49258649069816,107.96346670895582 136.3360790773295,108.2542192444671 135.7133443162311,108.31236972584156 133.97858319594525,108.83572367421584 134.02306425059214,109.94057973637246 135.57990115322173,109.53352786187315 137.1812191104982,108.89387407011236 138.47116968687624,108.60312200480257 140.16144975298084,108.02161723311292 141.80724876420572,107.78901508511626 144.43163097207434,107.20750911702635 145.4991762766149,107.14935847328161 146.92257001646794,107.38196099727065 149.28006589761935,106.9749064903881 149.94728171336465,106.80045443080598 153.68369027995504,106.62600229427335 158.39868204295635,106.2770977904147 158.93245469522662,106.102645423176 161.378912685439,105.69558960013092 162.4909390443936,105.23038243272458 164.00329489284195,104.93962767536868 166.1383855023887,104.70702371554216 167.87314662290737,104.76517471839907 169.83031301479787,104.5907216843334 170.27512355847284,104.64887270415784 172.81054365751334,103.89290877949679 174.85667215823196,103.71845536088222 175.70181219116785,103.54400186552084 177.5255354202818,103.48585068315151 178.01482701813802,103.31139708519913 178.7710049424786,103.31139708519913 179.1713344315067,103.07879216838046 180.77265238878317,103.07879216838046 182.507413509069,102.72988453644211 182.46293245488778,101.45055392049835 180.28336079092696,102.09021974555799 179.12685337732546,102.49727927753702 177.43657331145369,102.90433839094476 172.72158154845238,103.25324586889474 171.07578253699467,103.48585068315151 169.02965403627604,103.71845536088222 166.44975288305432,104.1255132179067 166.0494233937934,104.06736212107353 164.40362438210286,104.1255132179067 163.60296540358104,104.24181538567063 161.4678747940343,104.29996645692154 160.17792421742342,104.53257065586513 158.3542009885423,104.88147669812315 157.64250411838293,105.1722314984072 156.44151565083303,105.28853335851454 154.39538714988157,105.81189130671555 152.83855024701916,105.7537404577015 152.03789126873016,105.98634380218573 151.19275123556145,106.04449461685726 150.7034596374724,105.92819297889946 150.12520593078807,105.98634380218573 149.10214168042876,106.39339932583971 147.85667215799913,106.56785156493424 146.032948929118,106.56785156493424 145.09884678735398,106.68415301517234 143.14168039546348,106.62600229427335 141.71828665561043,106.74230372725287 140.7841845138464,107.20750911702635 139.89456342649646,107.20750911702635 138.11532125226222,107.38196099727065 136.91433278424665,107.9053161762422 134.7792421746999,108.37052019868861 133.2224052718375,109.18462592177093 133.80065897852182,109.88242949428968 135.22405271814205,109.47537755998201 135.57990115322173,109.30092660273658 137.1812191104982,108.89387407011236 139.5387149916496,108.89387407011236 142.1630971992854,108.42867066295003 144.8764415155165,107.55641280044802 148.345963756321,107.55641280044802 149.10214168042876,107.38196099727065 149.5469522238709,107.20750911702635 150.79242174630053,106.85860512594809 151.59308072482236,106.68415301517234 152.74958813842386,106.74230372725287 155.46293245465495,106.56785156493424 156.5749588138424,106.68415301517234 157.37561779259704,106.62600229427335 158.9769357496407,106.16079622067627 160.7116968696937,105.92819297889946 161.55683690286241,105.57928785969852 163.91433278424665,105.05592960395734 165.56013179570436,104.99777864382486 169.42998352530412,104.29996645692154 171.74299835273996,104.29996645692154 174.94563426682726,103.71845536088222 175.2125205930788,103.71845536088222 176.85831960476935,103.19509464397561 177.74794069188647,103.07879216838046 178.99341021408327,102.72988453644211 180.55024711717851,102.84618711459916 181.39538714988157,102.67173323451425 182.24052718281746,102.32282524358016 183.66392092243768,103.07879216838046 183.5749588138424,104.70702371554216 183.88632619427517,105.57928785969852 184.46457990119234,108.2542192444671 184.68698517302983,110.63838197567384 185.3542009885423,114.24367394048022 185.5321252059657,115.93000890593976 186.55518945632502,122.15194125685957 186.68863261956722,124.71046449040296 186.95551894558594,125.93157202008297 187.0,126.6874938402907 186.68863261956722,127.85044766726787 185.79901153198443,128.43192329903832 184.33113673818298,128.66451331260032 183.48599670501426,128.89710318934522 182.68533772649243,129.0133980762912 181.75123558472842,129.71116668125615 180.4168039537035,130.06005052221008 179.92751235608011,129.94375594283338 179.1713344315067,130.00190323678544 178.10378912696615,130.87411162175704 177.080724876374,131.28114154341165 175.87973640859127,131.5137298820191 174.41186161455698,132.0370531444205 171.83196046133526,132.79296330129728 171.38714991766028,132.79296330129728 170.0082372322213,133.49072524139774 168.58484349260107,134.36292593658436 166.40527182864025,134.76995226967847 159.73311367374845,136.68878505783505 158.1317957167048,136.9213702181005 156.97528830333613,137.27024770216667 155.90774299832992,137.44468632878852 154.61779242171906,137.79356335150078 149.4579901152756,138.72390057487064 148.8797364088241,137.79356335150078 148.12355848425068,135.99102875686367 146.78912685345858,133.8396057501668 146.3443163097836,133.25813806484803 144.20922570000403,129.8856086403248 143.36408566730097,128.25748069936526 142.25205930811353,126.6874938402907 140.56177924200892,123.83824251935584 139.80560131790116,122.50083176288172 139.22734761121683,121.10526789311552 138.73805601289496,120.40748411239474 138.33772652386688,119.70969910125132 137.84843492601067,119.12821065200842 136.6474464579951,117.4418893166876 135.9357495883014,116.10445694043301 135.4909390443936,115.4648137713084 134.8682042832952,114.0692250856373 133.35584843484685,111.68508302705595 133.0,110.98728263389785 133.75617792410776,109.94057973637246 135.22405271814205,109.47537755998201 136.78088962100446,108.66127243504161 137.53706754534505,108.54497156612342 138.56013179570436,108.77757326961728 139.49423393746838,108.77757326961728 140.3838550245855,108.66127243504161 142.7858319603838,108.02161723311292 144.47611202625558,107.4401116068766 145.23228995036334,107.26565975221456 146.43327841861174,107.38196099727065 147.1894563427195,107.26565975221456 148.03459637542255,107.55641280044802 148.8352553541772,107.38196099727065 149.6803953871131,106.91675581250456 150.57001647446305,106.74230372725287 152.66062602959573,106.62600229427335 154.12850082363002,106.39339932583971 157.01976935728453,106.2770977904147 158.7545304778032,106.33524856250733 159.5996705107391,106.21894700973644 160.80065897852182,106.102645423176 163.113673805492,105.52113697666209 164.1812191104982,105.1722314984072 167.3838550245855,104.5907216843334 170.76441515656188,104.24181538567063 172.36573311360553,103.95105990194133 175.2125205930788,103.77660650896723 177.48105436586775,103.31139708519913 177.74794069188647,103.31139708519913 178.5485996704083,103.02064091758803 179.26029654033482,102.90433839094476 180.4168039537035,102.96248965838458 182.15156507422216,102.78803582987166 182.5963756176643,102.84618711459916 183.44151565083303,103.25324586889474 183.61943986848928,103.77660650896723 183.70840197708458,104.76517471839907 184.01976935751736,106.21894700973644 184.33113673818298,108.60312200480257 184.24217462935485,110.28948100988055 184.42009884677827,111.51063304403215 185.62108731479384,116.62780058264616 185.66556836897507,117.61633668467402 186.06589785823599,119.76784789923113 186.02141680405475,120.69822750391904 186.4662273474969,122.61712852976052 186.5996705107391,123.78009431960527 186.5996705107391,124.53602025005966 187.0,127.32711886812467 186.68863261956722,127.96674286210327 186.02141680405475,128.25748069936526 185.44316309713759,128.3737757744384 184.42009884677827,128.78080826808582 183.5749588138424,128.89710318934522 180.95057660643943,129.59487199923024 178.94892915990204,130.52522849844536 177.2141680396162,130.81596445586183 176.41350906086154,131.1067001997435 174.85667215823196,131.8044651133241 172.76606260286644,132.32778799103107 171.65403624391183,132.85111017670715 169.2965403625276,133.43257846013876 167.78418451407924,134.07219258506666 167.07248764415272,134.47921921717352 164.98187808902003,135.11883165041218 163.78088962100446,135.64215014496585 161.91268533770926,135.99102875686367 160.80065897852182,136.45619976092712 158.17627677111886,136.9795164867246 157.5090609556064,137.03766274696682 156.61943986825645,137.38654012835468 154.0840197694488,137.79356335150078 151.8599670510739,138.25873223665985 150.39209225703962,138.43317042756826 149.6803953871131,138.43317042756826 149.23558484367095,138.14244006649824 146.967051070882,134.42107258114265 146.3443163097836,133.60701877865358 145.76606260286644,132.5603757146455 145.4102141680196,132.09520013083238 144.1647446458228,129.3622825325292 143.14168039546348,128.25748069936526 142.25205930811353,126.51305047151982 139.36079077445902,122.03564435316366 137.5815485995263,118.72116822906537 136.78088962100446,117.90708212702884 135.13509060954675,114.76702004368417 133.0889621085953,111.33618298423244 133.1334431632422,110.81283234318835 133.6227347610984,110.11503041163087 134.33443163102493,109.70797871661489 135.13509060954675,109.35907693035551 136.4250411861576,109.01017483664327 138.96046128496528,108.77757326961728 139.85008237231523,108.60312200480257 140.65074135083705,108.2542192444671 141.80724876420572,108.0797677487717 142.74135090620257,108.71942285660771 143.0082372322213,109.53352786187315 143.71993410214782,110.81283234318835 144.74299835250713,112.09213268812164 145.32125205919147,113.13882989386912 146.21087314677425,114.35997313432745 147.01153212529607,115.93000890593976 147.32289950572886,116.3370542001503 148.39044481050223,118.72116822906537 149.28006589761935,120.23303797497647 150.39209225703962,121.45415932204924 151.37067545298487,122.26823812635848 152.92751235608011,123.83824251935584 156.53047775942832,126.51305047151982 157.59802306443453,126.10601564520039 159.11037891265005,125.23379675036995 160.57825370691717,124.65231641891296 162.7133443162311,123.60564966901438 164.047775947256,123.37305668188492 164.6705107083544,123.08231525591691 167.07248764415272,121.68675343712675 167.42833607899956,120.23303797497647 166.76112026371993,117.5581875705684 165.07084019784816,114.9414685908996 164.492586490931,113.7784768230631 163.86985172959976,112.96438055179897 163.60296540358104,112.26658241462428 162.6243822076358,110.69653210663819 161.95716639212333,110.98728263389785 161.2899505768437,109.18462592177093 158.71004942338914,108.02161723311292 155.952224052744,107.9053161762422 153.90609555202536,108.13791825581575 153.55024711717851,108.37052019868861 153.0164744646754,108.95202445753966 152.97199341002852,109.53352786187315 152.393739703577,110.17318061957485 152.0823723229114,111.91768288452295 152.393739703577,112.67363147751894 152.74958813842386,114.76702004368417 153.19439868209884,115.40666434096056 153.50576606253162,116.10445694043301 153.59472817135975,117.15114353253739 154.12850082363002,118.72116822906537 154.66227347613312,119.70969910125132 157.01976935728453,118.89561503301957 157.82042833603919,118.72116822906537 159.4662273474969,118.02338024412165 159.91103789117187,117.73263488715747 160.44481054344214,116.22075558750657 162.7133443162311,114.5925714194309 163.46952224033885,114.12737471234868 163.6474464579951,113.31327915893053 163.20263591432013,112.6154816368944 162.44645799021237,110.87098244851222 162.35749588138424,109.99872997010243 162.0906095551327,109.35907693035551 160.57825370691717,108.42867066295003 157.59802306443453,108.02161723311292 156.8418451398611,108.02161723311292 154.7067545305472,108.31236972584156 152.79406919283792,109.24277626659023 152.30477759451605,110.11503041163087 152.43822075775824,112.7899311328365 153.0164744646754,115.4648137713084 153.37232289952226,116.27890489815036 153.41680395393632,116.62780058264616 154.3509060954675,119.36080613432568 155.507413509069,119.53525265623466 157.55354200978763,118.66301927724271 158.71004942338914,118.02338024412165 159.91103789117187,117.6744857900485 160.31136738043278,117.26744187169243 160.40032948949374,116.56965132319601 160.26688632601872,116.3370542001503 160.97858319594525,116.04630760414875 162.4019769357983,115.1740665344114 163.46952224033885,114.35997313432745 163.29159802314825,113.13882989386912 162.0906095551327,111.80138297291705 160.31136738043278,109.12647556862794 159.91103789117187,109.5916781553824 157.06425041193143,109.35907693035551" stroke="#4dd2ff" stroke-linecap="round" stroke-linejoin="round" stroke-width="0.5"><title>2022-03-26 11.7km</title><desc>9361447915</desc></polyline><polyline fill="none" points="15.602979842107743,182.87703643471468 22.228746713371947,181.7633616583189 24.027169149601832,181.57774890915607 25.730937773827463,181.14465217621182 27.955302366055548,180.83529709413415 29.70639789639972,180.959039154317 33.161262050736696,180.40219959747628 34.391761612612754,179.90723048403743 36.56879929895513,179.84535930404672 37.373356704600155,179.96910165515146 38.651183172594756,179.90723048403743 39.9763365467079,179.96910165515146 41.585451358230785,179.6597457091848 44.51971954386681,178.7316765077412 46.69675723044202,178.36044825412682 49.63102541631088,178.11296257007052 51.33479404007085,177.74173377093393 52.18667835230008,177.80360526012373 52.84925503935665,177.74173377093393 53.70113935135305,177.49424772296334 58.29184925486334,176.75178870614036 59.3330411920324,176.81366034099483 61.226117440732196,176.5043020764133 62.74057843978517,176.56617374741472 67.0,175.63809772598324 66.29009640659206,174.40065984791727 65.34355828212574,174.40065984791727 61.55740578426048,175.26686674449593 59.85363716026768,175.88558486505644 58.95442594215274,176.071200123959 57.34531113062985,176.13307185887243 55.59421560028568,176.38055870682 55.21560035063885,176.3186870085483 48.779141104081646,177.3086330916267 47.4539877299685,177.18488995850203 46.12883435585536,177.2467615296191 44.51971954386681,177.67986227263464 43.62050832575187,177.80360526012373 42.72129710763693,177.74173377093393 41.822085889521986,177.80360526012373 40.970201577525586,178.11296257007052 37.751971954479814,178.54606242192676 35.906222611432895,179.04103313552332 34.34443470626138,179.6597457091848 33.01928133214824,179.5360032673634 29.375109552871436,179.41226078895852 28.523225240875036,179.7216169166495 27.292725678998977,179.7216169166495 26.772129710530862,179.5978744927561 25.068361086770892,179.4741320325993 24.16914986842312,179.5360032673634 23.36459246254526,179.90723048403743 21.992112182313576,180.15471511372016 21.187554776202887,180.0928439698473 19.95705521455966,180.21658624822157 19.53111305856146,180.40219959747628 18.395267309388146,180.40219959747628 17.63803680962883,180.6496839359461 16.312883435515687,181.3921360783279 14.987730061169714,181.88710344568244 13.378615249646828,182.75329493836034 13.236634531058371,183.7432258905319 13.757230499060825,183.61948464883608 14.561787905171514,183.18639001637348 17.21209465363063,182.56768262558035 18.821209465153515,182.44394103842205 20.903593339258805,182.13458691115375 21.85013146349229,181.88710344568244 25.49430324253626,181.33026511626667 27.624014022760093,181.3921360783279 28.80718667828478,181.51587797459797 29.65907099028118,181.45400703095947 33.68185801920481,180.40219959747628 36.23751095519401,180.15471511372016 37.136722173308954,180.15471511372016 37.988606485305354,179.96910165515146 41.159509202232584,179.6597457091848 43.85714285704307,179.1029044337629 44.567046450218186,178.79354785135365 45.65556529350579,178.6079337928968 46.412795793032274,178.6079337928968 49.25241016643122,177.92734821132035 51.42944785277359,177.67986227263464 53.03856266429648,177.55611924850382 54.74233128828928,177.3086330916267 56.39877300593071,177.18488995850203 58.85977212944999,176.62804540948127 60.61086765979417,176.44243039627327 62.456617002608255,176.38055870682 63.63978965813294,176.44243039627327 65.29623137577437,176.071200123959 65.059596844716,174.77189159338013 64.30236634518951,174.83376351904008 60.23225241014734,175.76184131379705 59.38036809815094,175.88558486505644 55.64154250640422,176.93740358322975 54.41104294452816,177.06114678899758 51.902716914890334,177.61799076513853 49.34706397890113,177.49424772296334 47.73794916737825,177.67986227263464 45.84487291844562,177.55611924850382 44.85100788762793,177.61799076513853 42.626643295399845,177.49424772296334 39.83435582788661,178.17483400469064 37.70464504812844,178.23670543020125 36.85276073589921,178.42231965254177 36.095530236605555,178.7316765077412 35.00701139331795,178.9172905118321 33.87116564414464,179.4741320325993 30.274320770986378,179.41226078895852 29.801051709102467,179.6597457091848 28.570552147226408,179.78348811500473 27.292725678998977,179.7216169166495 24.737072743009776,179.84535930404672 22.985977212898433,179.7216169166495 21.518843119964004,179.96910165515146 19.72042068350129,179.84535930404672 18.868536371504888,179.90723048403743 17.306748466100544,180.4640706955979 15.839614373398945,181.3921360783279 15.035056967288256,181.7633616583189 14.2778264679946,182.01084519646247 13.0,182.0727160584065 13.283961437176913,183.37200205636327 14.325153374113142,183.18639001637348 15.839614373398945,182.75329493836034 16.36021034163423,182.75329493836034 18.111305871978402,182.32019941476756 19.34180543362163,182.19645775473327 21.04557405761443,181.7014907510311 22.70201577525586,181.45400703095947 25.304995617829263,180.77342605040758 27.008764241822064,180.71155499771703 27.907975460169837,180.4640706955979 29.46976336534135,180.4640706955979 31.12620508321561,180.2784573736717 34.01314636296593,179.5978744927561 36.23751095519401,179.35038953612093 37.27870289189741,179.28851827414474 38.69851007894613,179.41226078895852 41.396143733523786,178.97916182823246 42.29535495163873,178.97916182823246 47.075372480321676,177.86547674020403 48.87379491678439,177.74173377093393 52.139351445948705,177.18488995850203 53.417177913943306,177.18488995850203 54.97896581934765,176.93740358322975 56.82471516192891,176.93740358322975 60.51621384732425,176.1949435842398 62.267309377668425,176.1949435842398 64.96494303224608,175.76184131379705 64.49167397012934,174.77189159338013 63.734443470602855,174.83376351904008 62.693251533666626,175.14312301122118 59.19106047321111,175.63809772598324 58.055214723804966,176.13307185887243 57.203330411808565,176.38055870682 56.25679228734225,176.44243039627327 55.83085013157688,176.38055870682 54.50569675723091,176.62804540948127 52.42331288335845,176.75178870614036 52.04469763371162,176.62804540948127 51.14548641536385,176.62804540948127 49.91498685372062,176.8755319667398 48.0692375106737,177.06114678899758 46.460122699150816,176.8755319667398 45.5135845746845,177.06114678899758 43.62050832575187,177.12301837827545 40.87554776505567,177.74173377093393 39.266432953299955,178.23670543020125 38.88781770365313,178.23670543020125 37.32602979824878,178.48419104190543 36.19018404907547,178.85541918614763 35.290972830727696,178.9172905118321 33.63453111285344,179.28851827414474 32.735319894738495,179.28851827414474 29.42243645922281,180.0928439698473 27.434706397820264,180.34032849015784 26.29886064864695,180.15471511372016 23.12795793148689,179.04103313552332 21.47151621361263,179.28851827414474 20.856266432907432,179.5978744927561 18.06397896585986,180.52594178487197 16.312883435515687,181.2065231653687 15.224364592460915,181.45400703095947 13.709903593175113,182.0727160584065 13.567922874586657,183.37200205636327 15.934268185636029,182.56768262558035 16.928133216220886,182.44394103842205 20.903593339258805,181.57774890915607 23.17528483760543,181.51587797459797 24.973707274300978,181.2065231653687 25.68361086747609,181.268394145387 26.819456616882235,181.14465217621182 28.759859771933407,180.6496839359461 31.694127958035097,180.34032849015784 33.72918492555618,179.96910165515146 35.43295354931615,179.90723048403743 39.64504820317961,179.35038953612093 40.87554776505567,179.04103313552332 43.85714285704307,178.7316765077412 45.41893076244742,178.36044825412682 49.157756353961304,177.92734821132035 51.524101665010676,177.2467615296191 52.51796669582836,177.43237618834246 53.46450482006185,177.43237618834246 56.63540753722191,176.68991706235101 59.80631025414914,176.1949435842398 61.32077125320211,176.1949435842398 64.96494303224608,175.88558486505644 64.39702015765943,174.77189159338013 62.456617002608255,175.20499488242785 60.752848378615454,175.76184131379705 58.007887817686424,176.3186870085483 54.07975460123271,176.81366034099483 51.95004382124171,176.93740358322975 49.25241016643122,177.3086330916267 47.0280455739703,177.2467615296191 44.80368098150939,177.49424772296334 40.21297107776627,178.2985768468352 36.14285714295693,179.28851827414474 34.48641542484984,179.4741320325993 31.836108676390722,179.4741320325993 29.517090271692723,179.1029044337629 28.523225240875036,179.4741320325993 28.19193689734675,179.78348811500473 26.819456616882235,179.96910165515146 23.695880806073546,179.84535930404672 21.755477651022375,180.0928439698473 21.187554776202887,180.34032849015784 20.666958807967603,180.71155499771703 19.909728308441117,181.08278117800364 18.963190183974802,181.268394145387 17.921998247038573,181.3921360783279 16.4075372479856,181.82523255664273 13.567922874586657,182.44394103842205 13.42594215576537,183.49574337084778 15.839614373398945,182.62955340580083 18.111305871978402,182.13458691115375 24.074496055953205,181.268394145387 25.967572304885834,180.52594178487197 28.61787905334495,180.4640706955979 29.70639789639972,180.21658624822157 33.53987730038352,179.6597457091848 36.85276073589921,179.4741320325993 38.50920245377347,179.5360032673634 42.81595092010684,179.22664700323367 44.80368098150939,178.6079337928968 46.31814198079519,178.48419104190543 49.820333041017875,177.74173377093393 52.09202453983016,177.43237618834246 52.61262050829828,177.49424772296334 58.33917616121471,176.68991706235101 61.8886941280216,176.5043020764133 62.78790534613654,176.3186870085483 64.82296231365763,175.94745662715286 64.16038562660106,174.77189159338013 58.055214723804966,176.00932838019799 53.46450482006185,176.3186870085483 50.71954425936565,176.9992751905811 42.9579316386953,177.37050464443746 41.396143733523786,177.67986227263464 39.73970201564953,177.86547674020403 37.562664329307154,178.36044825412682 34.865030674729496,178.6079337928968 33.350569675676525,179.04103313552332 30.984224364394322,179.22664700323367 29.42243645922281,179.78348811500473 28.049956178525463,180.0928439698473 24.784399649128318,180.21658624822157 23.506573181133717,179.96910165515146 21.992112182313576,180.0928439698473 20.61963190184906,181.14465217621182 19.95705521455966,181.33026511626667 16.691498685162514,181.82523255664273 13.0,182.62955340580083 13.141980718355626,183.55761401439668 15.555652935989201,182.62955340580083 18.016652059508488,182.25832858937792 21.47151621361263,181.3921360783279 23.837861524894834,181.33026511626667 25.636283961124718,181.2065231653687 26.440841367002577,180.89716812886763 26.866783523000777,180.6496839359461 27.718667834997177,180.40219959747628 28.61787905334495,180.21658624822157 32.120070113800466,180.03097281698138 32.498685363680124,179.84535930404672 35.10166520578787,179.6597457091848 35.95354951778427,179.41226078895852 37.2313759860117,179.41226078895852 41.20683610858396,178.97916182823246 41.822085889521986,179.1029044337629 42.29535495163873,179.7216169166495 43.14723926386796,181.63961983466288 43.57318141986616,182.32019941476756 43.715162138454616,182.8151656909613 44.0464504819829,183.24826070549898 44.18843120057136,183.80509649787564 43.95179666951299,184.4238020699413 43.33654688857496,183.92883768506 43.19456616975367,183.43387271807296 41.822085889521986,182.0727160584065 41.25416301493533,182.0727160584065 40.59158632787876,181.82523255664273 37.988606485305354,182.19645775473327 37.136722173308954,182.3820702310768 34.2497808940243,183.00077789466013 34.10780017520301,183.31013138536946 33.49255039403215,183.86696709596436 33.11393514438532,185.1662475564226 33.350569675676525,185.59934015205363" stroke="#4dd2ff" stroke-linecap="round" stroke-linejoin="round" stroke-width="0.5"><title>2022-02-27 10.7km</title><desc>9361446431</desc></polyline><polyline fill="none" points="146.77071909280494,191.50939444839605 147.49791000969708,193.26307208670187 148.5607275031507,198.45099895301973 149.23198065697215,200.56999579406693 150.29479815042578,205.24637072029873 152.8679352402687,206.9269322367618 155.4970100929495,206.26932188359206 157.90233389404602,205.90398242356605 164.11142556695268,204.07728110422613 168.6983221184928,203.34659870088217 174.01240958622657,202.25057308658143 176.69742220127955,201.37375085867825 179.60618586838245,200.6430644900538 181.6758830929175,199.54703292727936 182.79463834874332,198.5240679597191 184.4168334705755,196.62427030372783 185.98309082980268,192.89772308795364 186.318717406597,188.80579599391785 185.98309082980268,187.12517334258882 185.25589991314337,184.12926672713365 184.64058452215977,180.40262603468727 184.4168334705755,178.3566153679567 183.40995373995975,175.65294552536216 182.90651387465186,173.46077001511003 182.51494953478687,172.21853294342873 182.1233851951547,170.464781215298 181.84369638119824,168.7840966815129 180.89275441295467,165.27656286614365 180.44525231048465,163.1574158836156 180.05368797085248,160.67288725002436 179.38243481703103,158.55372068105498 178.8230571888853,154.68073779315455 176.75335996435024,153.0 170.71208157972433,154.82688863764633 163.32829688768834,156.36146991484566 160.81109756068327,157.45759650398395 157.1192052147817,160.23443973399117 155.1054457530845,161.18440886415192 151.63730445830151,161.91515311601688 150.01510933646932,161.98822748218663 147.55384777206928,161.69592995289713 145.09258620836772,161.69592995289713 142.96695122099482,162.06130183755886 141.0091295223683,162.93819326741504 138.88349453522824,163.96123131754575 136.53410849696957,166.08037488046102 134.91191337490454,167.83414204526343 134.3525357467588,169.07639005125384 133.62534483033232,171.3416578512115 133.40159377874807,172.9492610078887 133.28971825330518,176.01830717231496 133.84909588145092,178.21047142733005 135.07972666365094,180.84105579863535 135.75097981723957,181.93712851995951 136.92567283660173,183.32548383795074 139.10724558657967,185.22533221318736 143.9738309518434,188.0750911901414 145.65196383628063,189.68264034343883 147.66572329797782,193.62842081746203 148.28103868919425,196.77040884224698 148.95229184278287,198.88941283212625 149.39979394548573,201.51988800382242 150.1829226249829,204.44262190398877 150.4066736761015,205.17330269949161 152.8679352402687,206.56159325878252 155.94451219541952,206.12318613170646 157.45483179134317,205.68477861894644 159.58046677871607,205.3194387300755 161.09078637463972,204.6618262551201 164.11142556695268,204.29648561621434 167.13206475949846,203.4196669893572 170.82395710540004,202.8351203809434 173.0055298556108,202.32364153585513 173.73272077203728,202.25057308658143 179.99775020801462,200.42385837025358 182.57088729785755,198.88941283212625 184.24902018229477,197.13575500095612 185.75933977845125,194.35911747560021 186.37465516943485,192.38623403941165 186.5984062210191,190.19413216825342 186.26277964375913,187.85587953982758 185.64746425277553,185.88297034721472 185.14402438746765,183.03319882933283 184.24902018229477,178.94119070164743 183.8574558426626,176.38366855165805 183.07432716316544,174.33764137685648 182.34713624650612,171.3416578512115 181.95557190664113,169.00331672496395 181.06056770146824,164.8381194025278 180.44525231048465,162.86511904059444 179.82993691950105,159.79599183207029 178.934932714561,156.87299595671357 178.48743061185814,154.46151144613395 177.03304877853952,153.29230263238424 171.77489907317795,154.46151144613395 164.67080319533125,155.84994334774092 163.38423465029337,156.28839472317486 159.4126534902025,158.62679554030183 156.39201429788955,160.81903633626644 151.4694911695551,161.84207873910782 150.01510933646932,161.98822748218663 145.2044617338106,161.54978112396202 141.68038267618977,162.2074505163473 140.3378763687797,162.7920448029181 139.10724558657967,163.52278669615043 136.92567283660173,165.6419321243011 135.974730868591,166.81111194950063 135.02378890058026,168.4187297282042 133.7931581188459,171.48780380707467 133.28971825330518,173.67998800019268 133.7372203557752,177.04131835867884 134.01690916973166,178.5027592657716 134.8559756120667,180.32955436993507 135.9187931055203,182.08327136709704 137.26129941339605,183.61776867503067 139.33099663769826,185.51761593532865 142.57538688159548,187.34438531429623 143.69414213765413,188.14816171847633 144.589146342827,188.95193682605168 146.6029058045242,191.36325436655898 147.16228343266994,192.24009421479423 147.16228343266994,193.04386271943804 147.77759882365353,194.8706044984865 148.22510092612356,196.8434780954849 148.78447855450213,198.6702059408708 149.7913582851179,203.20046209165594 150.51854920201004,205.90398242356605 152.9798107657116,207.0 154.4341925990302,206.3423897436005 156.4479520607274,206.0501182398002 157.34295626590028,206.0501182398002 159.74828006722964,205.17330269949161 162.54516820819117,204.44262190398877 169.6492640862707,203.27353040175512 173.844596297713,202.10443615581607 175.97023128485307,201.95829918215168 177.3127375927288,201.66602510603843 179.4943103424739,200.9353391659679 181.5080698041711,199.8393082464463 182.850576111814,199.03555070611765 183.9693313681055,197.9395156064129 185.19996215007268,196.18585443132906 186.03902859264053,194.28604785792413 186.710281746462,192.24009421479423 186.54246845794842,189.53649972588755 186.26277964375913,187.92895010052598 185.19996215007268,183.10627009766176 184.4168334705755,180.25648269453086 184.02526913094334,178.2835434031149 183.7455803169869,176.16445175622357 183.242140451679,174.19149625711725 182.90651387465186,173.53384268761147 182.2352607208304,170.09941549456562 181.45213204133324,167.32262726002955 180.66900336183608,163.8881572407263 180.05368797085248,161.91515311601688 179.2705592913553,157.0191461580107 179.04680824000388,156.36146991484566 178.7671194258146,154.97303943918087 176.8092977271881,153.21922699030256 175.35491589386947,153.36537826358108 174.627724977443,153.73075625908677 172.3902144646272,154.31536049451097 170.32051724009216,154.46151144613395 166.23706055409275,155.63071751539246 165.45393187459558,155.70379280351335 163.16048359894194,156.43454509598087 160.4195332210511,157.5306715243205 159.24484020168893,158.40757093011052 157.7904583683703,159.94214117582305 156.39201429788955,160.67288725002436 155.04950799024664,161.11133437982062 150.7982380159665,161.84207873910782 146.54696804168634,161.4036322523607 145.09258620836772,161.476706693531 142.29569806717336,162.06130183755886 140.8972539966926,162.499747745489 140.0581875545904,162.93819326741504 138.77161900955252,163.81508315351675 136.7019217852503,165.86115355053334 134.63222456071526,168.7840966815129 133.9609714068938,170.3917080925312 133.45753154181875,173.24155193334445 133.62534483033232,176.67595746178995 133.90503364428878,178.21047142733005 134.18472245847806,178.79504693273338 134.8559756120667,180.25648269453086 136.36629520822316,182.88705626068986 137.98849033005536,184.49462215710082 139.0513078237418,185.29840315983165 142.85507569555193,187.4174559499952 144.589146342827,188.73272556165466 145.9316526504699,190.2672023861087 146.7147813301999,191.50939444839605 147.3300967211835,192.67851355989114 150.29479815042578,205.17330269949161 152.64418418891728,206.9269322367618 156.28013877244666,206.19625401310623 158.0701471825596,205.97705033715465 161.0348486120347,204.88103051006328 162.8807947852183,204.6618262551201 166.5726871311199,203.4196669893572 173.0055298556108,202.177504626452 175.29897813103162,202.10443615581607 177.3127375927288,201.73909364105202 179.38243481703103,201.0084078083455 180.83681665034965,200.2777209035994 182.01150966947898,199.54703292727936 183.57776702870615,197.9395156064129 184.58464675908908,196.77040884224698 185.19996215007268,195.52822989871493 186.37465516943485,192.89772308795364 186.5984062210191,191.43632441293448 186.48653069511056,189.17114799367846 185.75933977845125,186.10218286549207 185.3118376757484,183.32548383795074 184.64058452215977,180.475697688933 184.19308241968974,179.08733442798257 183.91339360526763,177.2605347680801 183.13026492577046,174.6299314876378 182.34713624650612,170.09941549456562 181.84369638119824,168.63794993248302 181.22838098998182,166.29959611370577 181.1724432273768,164.6188975260884 180.94869217602536,163.4497125550115 180.66900336183608,162.7920448029181 179.32649705419317,158.62679554030183 179.04680824000388,156.50762026634766 178.7671194258146,155.63071751539246 176.97711101570167,153.1461513376853 174.73960050288588,153.51152949416428 170.99177039368078,154.46151144613395 168.92207316937856,155.04611482395558 164.3911143813748,155.92301860373118 162.20954163116403,156.65377057445585 159.46859125304036,158.11527129964088 157.51076955441386,160.0152158314013 156.95139192603528,160.45366354030557 152.2526198492851,161.91515311601688 151.4694911695551,162.06130183755886 148.61666526598856,161.62285554385744 145.5960260736756,161.54978112396202 141.96007149037905,162.28052483982174 140.61756518273614,162.71897055453155 139.2750588748604,163.59586082660826 137.26129941339605,165.49578445314546 136.19848191994242,166.7380382909614 134.40847350959666,169.88019593365607 133.56940706726164,171.85316850926029 133.28971825330518,173.24155193334445 133.34565601614304,176.38366855165805 133.56940706726164,177.84511138818925 133.7931581188459,178.5027592657716 135.58316652895883,181.86405708017992 136.53410849696957,183.10627009766176 137.54098822758533,184.20233783466392 139.89037426607683,186.0291120368638 141.62444491358474,186.9059612742858 143.69414213765413,188.14816171847633 146.15540370182134,190.9248338638281 147.4419722466264,192.82465325589874 147.88947434932925,194.13990859070327" stroke="#4dd2ff" stroke-linecap="round" stroke-linejoin="round" stroke-width="0.5"><title>2021-09-23 10.6km</title><desc>9361375595</desc></polyline><polyline fill="none" points="17.78817733982578,246.88519020791864 17.921182265970856,246.9286257463391 18.7192118227249,246.53770567112952 19.21798029553611,246.97206127847312 20.54802955663763,248.44886557763675 21.246305418666452,249.49131123666302 21.844827586202882,251.66306123958202 21.977832512464374,252.40145261210273 22.37684729055036,253.92166434632964 22.642857142840512,254.6600500869681 23.174876847304404,257.61357463756576 24.637931034551002,258.4822527226934 25.435960591072217,258.3085173096042 27.032019704347476,257.7873104584869 27.23152709356509,257.7873104584869 28.49507389171049,257.3964047181362 30.88916256162338,256.9186303347815 32.78448275849223,256.74489400419407 35.11206896556541,256.1368160446291 38.50369458121713,255.05095943951164 40.56527093600016,254.4863124312542 41.72906403930392,254.00853335252032 43.02586206898559,252.9661035958561 43.923645320232026,251.70649607712403 44.555418719071895,250.2731430726708 44.6551724136807,248.10138287572772 44.52216748765204,247.1892388430715 44.156403940869495,246.01647810119903 43.325123152695596,241.15164320415352 42.759852216695435,239.32730951122358 42.39408866991289,237.80702284758445 42.2610837436514,236.9382841064653 41.961822660057805,235.72204558673548 41.29679802956525,233.37642861902714 41.26354679802898,232.9420530673233 41.0307881772751,232.29048854490975 40.86453201959375,231.46517142473022 40.764778324984945,230.20547243766487 39.86699507397134,227.16479762882227 38.10467980301473,226.6435359546158 35.71059113310184,227.20823606019258 34.51354679791257,227.38198972202372 32.91748768475372,227.772935088753 32.6182266009273,227.9032500961912 31.554187192115933,228.07700335030677 28.89408866991289,229.29327327382634 27.298029556521215,230.46610025400878 24.87068965518847,231.59548480727244 24.139162561506964,231.68236036368762 23.008620689623058,231.6389225886087 20.980295566492714,231.37829580466496 19.816502462956123,231.46517142473022 18.15394088672474,231.76923589460785 17.15640394075308,232.24705085915048 16.35837438434828,232.637989801995 16.059113300521858,232.89861547708279 15.427339901565574,233.41986613918561 14.79556650237646,234.07142817627755 14.097290640464053,235.11392445347155 13.56527093600016,236.19985417241696 13.232758620753884,237.2857799087069 13.066502463072538,238.50201200525044 13.03325123153627,240.02229510055622 13.232758620753884,241.19507958358736 13.498768472927622,241.93349706026493 14.030788177275099,242.88909341415274 15.02832512324676,244.32248216244625 15.626847290666774,244.8437127143261 16.956896551768295,245.79929967632052 18.41995073889848,246.58114126048167 19.118226601043716,247.05893232350354 20.248768472927622,248.10138287572772 20.747536945855245,248.796347871772 21.67857142863795,250.6206232260156 21.87807881773915,251.40245208019041 22.011083743767813,252.27114838609123 21.94458128081169,252.70549558330094 22.077586206956767,253.44388435650035 22.37684729055036,254.18227128844592 22.809113300521858,255.7893423641508 23.008620689623058,257.00549846177455 23.27463054191321,257.7873104584869 24.371921182144433,258.22164956468623 25.73522167489864,257.91761225718074 29.027093596057966,257.3095367057831 30.02463054191321,257.00549846177455 34.01477832510136,256.223684400873 35.411330049159005,255.87621082249098 37.040640394203365,255.57217110687634 38.70320197043475,255.09439378013485 39.70073891628999,254.9640907389985 41.69581280788407,253.92166434632964 43.325123152695596,252.5317567809543 44.05665024614427,251.53275668848073 44.35591133008711,250.83779811483691 44.58866995072458,249.44787607414764 44.72167487698607,247.88420597999357 44.156403940869495,245.92960675031645 44.05665024614427,245.23463502604864 43.89039408857934,244.58309755308437 43.757389162434265,243.54063461444457 43.59113300475292,242.97596565706772 43.45812807872426,241.62944302818505 43.325123152695596,241.23851595679298 43.225369458203204,240.6738426091324 42.9261083744932,239.50105606147554 42.759852216695435,239.1535628589627 42.593596059130505,239.06668949479354 42.32758620695677,237.1989059964544 41.82881773391273,235.3311107158661 41.4630541872466,233.5501786612731 41.09729064046405,232.33392622426618 40.86453201959375,231.03079306913423 40.29926108382642,228.8588917318557 39.999999999883585,227.46886651494424 38.9692118227249,226.25258909675176 36.94088669947814,226.7738514591474 35.644088669796474,227.16479762882227 34.51354679791257,227.2951129039575 33.283251231419854,227.59918165620184 30.25738916255068,228.46794779918855 29.160098522203043,229.03264442505315 27.198275862261653,230.50953820120776 25.469211822608486,231.37829580466496 24.671182265970856,231.55204701953335 23.573891625739634,231.6389225886087 22.277093596057966,231.55204701953335 21.08004926110152,231.33485798499896 19.849753694608808,231.37829580466496 16.79064039408695,232.1601754683943 14.862068965448998,233.98455332082813 14.163793103420176,234.98361261957325 13.56527093600016,236.06954281646176 13.1995073891012,237.1554690306948 13.066502463072538,237.9373334388365 13.0,239.28387285777717 13.0,240.1091681845719 13.066502463072538,240.5000967469823 13.299261083710007,241.28195232362486 13.931034482782707,242.71534885189612 14.862068965448998,244.06186654261546 15.39408866991289,244.71340516244527 16.39162561565172,245.49524961371208 18.15394088672474,246.40739886462688 19.15147783246357,247.1458033429226 19.450738916173577,247.40641624864656 21.246305418666452,249.83879230750608 21.811576354666613,251.27214741442003 22.044334975420497,253.35701518473797 22.177339901332743,253.7479262574925 22.908866995130666,257.0489325156959 23.14162561565172,257.7873104584869 24.27216748765204,258.43881887890166 25.435960591072217,258.00448009121465 27.431034482782707,257.52670668886276 27.863300492521375,257.52670668886276 30.822660098434426,256.7014599056856 33.78201970446389,256.1802502259088 35.444581280695274,256.0065134622273 36.57512315281201,255.6590396288957 37.67241379315965,255.39843398641096 38.43719211826101,255.13782811447163 39.66748768475372,254.83378764073132 40.8312807881739,254.4863124312542 41.49630541878287,254.09540233330335 42.85960591130424,253.0529728824622 43.69088669947814,252.05397454855847 44.2561576354783,250.96810297164484 44.389162561506964,250.66405821644003 44.48891625611577,249.49131123666302 44.621921182377264,248.7529126072477 44.68842364533339,248.01451213652035 44.45566502469592,246.71144799044123 44.28940886689816,246.3205276283552 43.82389162562322,244.19217438122723 43.65763546805829,242.45473181747366 43.02586206898559,240.28291427600197 42.4938423645217,238.80606924876338 42.06157635466661,236.19985417241696 41.961822660057805,235.9392314030265 41.4630541872466,233.37642861902714 41.29679802956525,232.98549065124826 40.8312807881739,230.81360365235014 40.432266009855084,229.46702571221977 40.26600985217374,228.6851389365911 40.13300492614508,227.64262002383475 40.03325123153627,227.33855131620658 38.90270935965236,226.4697818592831 37.60591133008711,226.68697446247097 36.50862068962306,227.07792074675672 31.02216748765204,228.29419477452757 29.891625615768135,228.77201534697087 28.794334975304082,229.42358761216747 27.431034482782707,230.4226623006398 26.267241379246116,231.03079306913423 25.13669950736221,231.37829580466496 23.972906403942034,231.68236036368762 23.10837438434828,231.68236036368762 20.947044334956445,231.33485798499896 20.51477832510136,231.33485798499896 19.118226601043716,231.55204701953335 18.7192118227249,231.7257981322473 17.62192118226085,231.98642461039708 16.99014778318815,232.24705085915048 15.360837438493036,233.5936161558784 14.296798029565252,234.8533007282531 13.365763546898961,236.98172110400628 13.1995073891012,237.85045971762156 13.133004926145077,239.06668949479354 13.332512315362692,240.63040615306818 13.59852216753643,241.93349706026493 14.163793103420176,242.97596565706772 14.895320196985267,244.06186654261546 15.892857142956927,244.8437127143261 19.384236453217454,247.1892388430715 19.91625615756493,247.7104643486673 21.312807881855406,250.0125326900452 22.011083743767813,252.09740932876593 22.310344827594236,253.7044917193125 23.341133004869334,258.00448009121465 25.269704433507286,258.22164956468623 26.001231527072378,257.9610461774573 27.697044334956445,257.5701406664448 30.72290640382562,257.00549846177455 31.986453201971017,256.1802502259088 35.810344827594236,255.83277659653686 37.73891625611577,255.48530255933292 38.17118226608727,255.31156538784853 39.002463054144755,255.18126244228915 40.399014778318815,254.79035326180747 41.163793103420176,254.39944356519845 41.86206896556541,253.96509885264095 43.19211822655052,252.792364946421 43.95689655165188,251.66306123958202 44.28940886689816,250.88123307347996 44.45566502469592,250.05596776967286 44.72167487698607,248.144818235829 44.6551724136807,247.27610982453916 44.48891625611577,246.84175466318266 44.35591133008711,246.01647810119903 44.123152709333226,245.3649423486786 43.95689655165188,244.19217438122723 43.69088669947814,242.6719126953103 43.65763546805829,242.1941145535675 44.35591133008711,241.23851595679298 45.61945812799968,240.93446121108718 48.47906403942034,239.7616756958014 49.74261083744932,239.54449268319877 50.90640394075308,239.24043619792792 51.704433497507125,238.93637940037297 52.60221674875356,237.72014908812707 52.40270935941953,236.98172110400628 51.63793103443459,233.37642861902714 51.07266009866726,231.55204701953335 50.57389162562322,229.03264442505315 50.24137931037694,227.94668841923703 50.274630541796796,226.42634331955924 52.535714285681024,225.60100985315512 56.45935960591305,224.73223529785173 57.92241379315965,224.21096934107482 58.91995073889848,223.6897024665377 59.285714285681024,223.60282456484856 60.25,223.2118736919365 60.98152709356509,223.1249956501415 62.87684729055036,222.82092230283888 64.8054187190719,222.0824571592966 65.2376847290434,221.9955787861254 65.2376847290434,221.95213958987733 65.5369458127534,221.64806503802538 66.50123152707238,221.6046257908747 67.0,221.51774727730663" stroke="#4dd2ff" stroke-linecap="round" stroke-linejoin="round" stroke-width="0.5"><title>2021-09-22 10.2km</title><desc>9361375473</desc></polyline><polyline fill="none" points="143.09303451143205,218.7768256869167 138.8662931388244,219.5303232499864 137.52142088487744,220.283820481156 136.94504706095904,222.04197939450387 135.21592559013516,223.80013649910688 137.90567009989172,243.6420698617585 142.32453607954085,258.4605786908651 145.20640519727021,264.2372507158434 153.0835141176358,264.48840992653277 156.73388166725636,263.4837728635175 170.37472882308066,257.45593808428384 171.14322725404054,254.69317337230314 174.2172209797427,250.4234373049112 181.710080685094,246.65601426991634 183.82345137093216,236.86067551060114 178.25183774437755,227.8187745178584 178.25183774437755,225.55829179496504 171.52747646998614,217.26982956391294 164.22674137260765,215.51166574156377 141.74816225655377,214.50699988752604 138.09779470786452,218.27449379418977 135.40805019810796,230.83274683065247 137.32929627597332,237.86532822356094 139.82691617775708,253.18620892008767 143.09303451143205,259.7163786177989 144.2457821574062,263.2326135057956 147.3197758840397,265.24188733589835 151.9307664707303,263.2326135057956 158.84725235309452,261.72565658250824 164.61099058762193,258.7117387499893 169.02985656820238,255.44665509997867 170.75897803902626,252.68388714035973 170.75897803902626,251.6792431382928 174.2172209797427,249.41879197466187 179.02033617533743,247.66066122497432 181.710080685094,245.9025286665419 184.01557597890496,243.89323209854774 184.97619901783764,242.38625812344253 184.78407440986484,236.86067551060114 181.1337068611756,230.58158267452382 178.05971313547343,226.562951152795 174.9857194107026,218.7768256869167 171.14322725404054,215.76283211272676 167.6849843133241,216.01399844686966 166.7243612743914,215.51166574156377 159.23150156904012,215.26049933349714 151.16226803977042,213.75350010988768 148.47252353001386,215.26049933349714 144.8221559813246,215.76283211272676 141.17178843263537,215.00933288852684 134.25530255027115,230.07925425155554 136.17654862906784,235.10253184253816 137.52142088487744,245.9025286665419 139.44266696181148,250.17227602773346 144.2457821574062,263.9860914683668 147.70402509905398,265.493046398391 156.34963245131075,263.4837728635175 160.0,262.7302946789423 165.9558628425002,258.96289877197705 171.14322725404054,251.6792431382928 182.28645450808108,246.40485243930016 184.78407440986484,244.14439429936465 184.39982519485056,237.36300194088835 181.710080685094,231.58623907912988 178.44396235141903,227.31644528277684 175.56209323368967,217.7721617530333 167.3007350973785,216.01399844686966 164.80311519652605,214.75816640711855 161.15274764690548,215.76283211272676 157.69450470618904,215.76283211272676 154.42838637251407,215.26049933349714 140.78753921668977,214.75816640711855 138.09779470786452,218.02332779183052 136.36867323610932,221.7908139465144 134.44742715824395,230.58158267452382 135.98442402109504,234.34904114448 136.56079784408212,245.14904273021966 140.59541460871696,255.69781560264528 142.90090990252793,259.7163786177989 144.05365755036473,262.9814541108208 148.28039892204106,266.2465233654948 162.68974450975657,260.97217762237415 165.37948901951313,259.2140587576432 167.3007350973785,256.95361756009515 169.99047960713506,252.1815652124351 172.10385029297322,250.67459854576737 176.71484088152647,248.91646908700932 184.39982519485056,245.14904273021966 184.59194980189204,236.10718558821827 179.02033617533743,226.0606215473963 175.7542178425938,217.7721617530333 171.14322725404054,216.01399844686966 169.41410578321666,217.26982956391294 159.6157507840544,215.76283211272676 157.69450470618904,214.75816640711855 154.62051098048687,214.2558333320776 147.51190049108118,215.00933288852684 143.28515911847353,214.00466673949268 140.2111653937027,214.2558333320776 134.83167637325823,229.0745969605632 135.79229941405356,231.08391095034312 136.94504706095904,237.36300194088835 136.75292245298624,241.63277063751593 137.7135454909876,248.16298448015004 140.4032900016755,256.2001364964526 145.3985298043117,266.2465233654948 151.3543926468119,264.73956909996923 156.15750784333795,262.47913521004375 160.76849843095988,259.4652187064057 164.22674137260765,258.2094185947208 168.83773196022958,254.94433398544788 173.64084715675563,250.4234373049112 181.1337068611756,246.65601426991634 183.63132676295936,244.64671858842485 184.59194980189204,238.1164913099492 179.21246078331023,229.57692568027414 175.94634244963527,220.534986150451 175.1778440186754,216.7674972283421 172.87234872486442,216.26516474410892 170.75897803902626,217.26982956391294 167.4928597053513,217.7721617530333 165.9558628425002,217.01866341463756 151.54651725571603,215.00933288852684 140.4032900016755,215.00933288852684 133.87105333432555,227.8187745178584 136.17654862906784,233.09322257747408 136.75292245298624,236.6095122403931 137.13717166800052,243.89323209854774 140.01904078572989,250.17227602773346 141.74816225655377,257.20477784005925 144.8221559813246,264.73956909996923 147.70402509905398,264.99072823661845 154.0441371574998,261.72565658250824 164.22674137260765,258.4605786908651 169.99047960713506,255.1954945611069 173.0644733319059,251.6792431382928 180.3652084292844,247.66066122497432 183.24707754701376,244.64671858842485 183.24707754701376,236.6095122403931 181.32583146821707,230.3304184814915 179.4045853903517,227.8187745178584 177.67546391952783,224.0513016525656 175.3699686266482,216.26516474410892 170.56685343105346,215.51166574156377 168.64560735225677,216.516331005143 164.22674137260765,215.51166574156377 157.69450470618904,215.76283211272676 148.28039892204106,217.26982956391294 144.437906765379,216.26516474410892 138.09779470786452,217.52099567709956 134.63955176621675,227.8187745178584 136.56079784408212,233.8467138283886 136.75292245298624,239.37230618600734 137.7135454909876,242.88858292950317 139.82691617775708,247.9118228709558 140.4032900016755,255.1954945611069 144.437906765379,264.48840992653277 148.08827431406826,266.2465233654948 154.23626176454127,263.4837728635175 159.6157507840544,261.72565658250824 162.30549529381096,260.21869833080564 165.7637382345274,258.7117387499893 168.64560735225677,256.95361756009515 171.33535186201334,252.9350480485009 171.33535186201334,252.1815652124351 173.4487225478515,250.67459854576737 184.01557597890496,246.40485243930016 184.78407440986484,238.3676543587353 178.63608695939183,224.80479688988999 179.4045853903517,225.80945668986533 179.02033617533743,226.31178636848927 178.25183774437755,226.0606215473963 177.09909009747207,225.05596189550124 175.3699686266482,218.02332779183052 166.9164858823642,216.26516474410892 161.92124607786536,213.0 160.0,213.0 154.62051098048687,213.2511667405488 148.28039892204106,214.75816640711855 144.05365755036473,215.00933288852684 140.2111653937027,214.75816640711855 137.90567009989172,218.7768256869167 134.44742715824395,230.83274683065247 136.17654862906784,234.0978775054682 137.13717166800052,242.38625812344253 141.74816225655377,255.1954945611069 145.20640519727021,261.9768161617685 145.59065441321582,263.9860914683668 148.85677274595946,266.2465233654948 150.58589421678334,265.24188733589835 155.38900941237807,263.9860914683668 161.34487225487828,260.72101789491717 169.41410578321666,257.20477784005925 171.91172568593174,252.9350480485009 174.0250963717699,250.92575974948704 182.09432990010828,246.65601426991634 184.39982519485056,244.3955564625794 184.78407440986484,236.86067551060114 178.44396235141903,227.8187745178584 174.9857194107026,219.02799157856498 164.99523980356753,216.01399844686966 160.960623039864,216.26516474410892 156.73388166725636,214.75816640711855 150.39376960787922,216.26516474410892 143.86153294239193,214.50699988752604 141.94028686359525,214.50699988752604 138.67416853178293,217.52099567709956 135.21592559013516,228.57226809486747 137.7135454909876,235.85602220753208 137.7135454909876,239.87463187798858 139.0584177467972,247.15833782078698 141.74816225655377,258.4605786908651 143.09303451143205,261.72565658250824 149.81739578489214,265.493046398391 158.65512774512172,262.47913521004375 165.18736441154033,259.7163786177989 170.75897803902626,251.93040419381578 174.0250963717699,250.4234373049112 179.02033617533743,248.91646908700932 181.710080685094,246.90717606374528 184.39982519485056,238.86998034606222 182.09432990010828,232.33973099384457 178.82821156736463,227.31644528277684 176.52271627355367,221.03731737972703 171.33535186201334,216.516331005143 161.72912146989256,217.01866341463756 154.62051098048687,215.26049933349714 149.62527117691934,215.51166574156377 141.55603764764965,214.50699988752604 135.98442402109504,225.55829179496504 135.79229941405356,229.57692568027414 137.32929627597332,238.3676543587353 137.52142088487744,244.3955564625794 140.59541460871696,254.69317337230314 144.6300313733518,264.48840992653277 148.08827431406826,266.2465233654948 160.960623039864,260.72101789491717 172.29597490094602,249.92111471376847 178.82821156736463,247.15833782078698 182.47857911605388,244.64671858842485 184.01557597890496,235.85602220753208 178.44396235141903,224.80479688988999 175.1778440186754,216.26516474410892 160.960623039864,214.75816640711855 157.31025549024343,213.75350010988768 150.58589421678334,215.51166574156377 144.2457821574062,215.26049933349714 139.25054235477,217.26982956391294 139.0584177467972,221.53964846162125 137.13717166800052,224.55363184772432 136.17654862906784,230.58158267452382 137.7135454909876,236.10718558821827 137.7135454909876,243.13974527758546 141.17178843263537,257.20477784005925 143.09303451143205,259.96753849310335 144.6300313733518,264.48840992653277 147.89614970609546,265.74420542398 150.77801882475615,264.2372507158434 157.31025549024343,262.47913521004375 166.7243612743914,257.45593808428384 170.56685343105346,252.68388714035973 174.0250963717699,249.66995336243417 176.71484088152647,248.66530758864246 179.21246078331023,246.90717606374528 182.47857911605388,245.40020474558696 185.16832362674177,243.39090758818202 184.97619901783764,234.60020474763587 177.67546391952783,224.80479688988999 175.94634244963527,217.26982956391294 167.3007350973785,216.7674972283421 156.92600627429783,214.00466673949268 151.73864186368883,214.00466673949268 141.94028686359525,215.51166574156377 138.67416853178293,220.7861517838901 135.79229941405356,230.07925425155554 136.75292245298624,233.34438636538107 137.32929627597332,244.3955564625794 143.6694083334878,262.7302946789423 145.20640519727021,265.24188733589835 150.20164499990642,264.99072823661845 157.50238009821624,262.7302946789423 166.147987450473,259.4652187064057 170.18260421510786,255.1954945611069 170.56685343105346,253.68853055115324 173.4487225478515,249.92111471376847 178.44396235141903,248.41414605325554 182.86282833199948,245.9025286665419 185.55257284175605,243.6420698617585 186.12894666474313,237.11183874390554 178.05971313547343,227.06528060918208 175.1778440186754,218.52565975906327 163.84249215666205,216.516331005143 162.30549529381096,216.7674972283421 156.54175705928355,216.01399844686966 153.2756387265399,216.01399844686966 149.04889735393226,217.01866341463756 142.70878529548645,216.516331005143 138.67416853178293,220.7861517838901 138.09779470786452,222.04197939450387 136.36867323610932,237.11183874390554 136.56079784408212,240.87928281875793 137.32929627597332,244.3955564625794 139.82691617775708,249.16763054940384 140.78753921668977,256.95361756009515 144.6300313733518,264.73956909996923 149.62527117691934,264.73956909996923 154.23626176454127,261.72565658250824 164.80311519652605,258.2094185947208 172.48809950891882,248.91646908700932 174.40934558678418,248.41414605325554 184.01557597890496,243.6420698617585 184.78407440986484,236.86067551060114 179.7888346062973,229.82808998413384 178.05971313547343,223.80013649910688 174.6014701956883,216.516331005143 167.6849843133241,217.7721617530333 164.99523980356753,216.26516474410892 143.47728372737765,215.76283211272676 134.25530255027115,230.3304184814915 135.21592559013516,232.59089489246253 136.75292245298624,244.14439429936465 139.0584177467972,250.4234373049112 140.97966382466257,258.4605786908651 145.3985298043117,266.4976822802564 147.70402509905398,267.0 150.39376960787922,265.493046398391 164.61099058762193,260.21869833080564 170.75897803902626,250.67459854576737 179.5967099983245,246.90717606374528 183.82345137093216,237.6141651009675 178.82821156736463,227.8187745178584 177.09909009747207,222.04197939450387 175.3699686266482,218.52565975906327 169.79835500009358,216.01399844686966 162.68974450975657,215.00933288852684 155.38900941237807,214.75816640711855 142.90090990252793,216.01399844686966 136.75292245298624,224.55363184772432 134.25530255027115,230.83274683065247 135.21592559013516,234.34904114448 135.98442402109504,241.63277063751593 136.75292245298624,245.14904273021966" stroke="#4dd2ff" stroke-linecap="round" stroke-linejoin="round" stroke-width="0.5"><title>2020-12-06 10.3km</title><desc>9361308001</desc></polyline></svg>