<?xml version="1.0" encoding="utf-8" ?>
<svg baseProfile="full" height="200mm" version="1.1" viewBox="0,0,200,200" width="200mm" xmlns="http://www.w3.org/2000/svg" xmlns:ev="http://www.w3.org/2001/xml-events" xmlns:xlink="http://www.w3.org/1999/xlink"><defs /><rect fill="#1a1a1a" height="200" width="200" x="0" y="0" /><text alignment-baseline="middle" fill="#e1ed5e" style="dominant-baseline: central; font-size:9.0px; font-family:Arial;" text-anchor="middle" x="100.0" y="100.0">2025</text><line stroke="#e1ed5e" stroke-width="0.3" x1="100.0" x2="100.0" y1="15.0" y2="10.0" /><path d="M 100.0 14.0 a86.0,86.0 0 0,1 42.46469731375804,11.215312516191453" fill="none" id="id97" stroke="none" /><text fill="#e1ed5e" style="font-size:6.75px; font-family:Arial;" text-anchor="middle"><textPath startOffset="22.20632615414155" xlink:href="#id97">January</textPath></text><path d="M 100.0 79.0 l 0.0 -63.0 a84.0,84.0 0 0,0 1.4459219170901134,0.012445506434235476 l -1.084441437817585 62.990665870174325" fill="#4dd2ff" stroke="none" /><path d="M 100.36148047927253 79.00311137660856 l 0.540918473188686 -31.41969092974183 a52.42434678581462,52.42434678581462 0 0,0 0.9021315521762355,0.023299396445382287 l -1.0816766605597894 31.40572474115409" fill="#c7ff1e" stroke="none" /><path d="M 100.72285384407766 79.0124445844662 l 1.0275898794877736 -29.835352909701506 a50.85304380137576,50.85304380137576 0 0,0 0.8745734747511301,0.03766097353695705 l -1.5410041866282354 29.813244209640356" fill="#ddff1b" stroke="none" /><path d="M 101.08401301168833 79.027996857942 l 1.540355777101491 -29.80069966775239 a50.84048251298272,50.84048251298272 0 0,0 0.8735797879042964,0.052696718449307414 l -2.053097613845399 29.76976967992278" fill="#ddff1b" stroke="none" /><path d="M 101.44485096284872 79.0497635885617 l 2.366701468414173 -34.317003312795435 a55.398517296694735,55.398517296694735 0 0,0 0.9507699585004198,0.07379804745346896 l -2.9570616162769343 34.2711800031535" fill="#9eff22" stroke="none" /><path d="M 101.80526077348638 79.07773832637324 l 2.5795633443454213 -29.896123644154503 a51.007205068017655,51.007205068017655 0 0,0 0.874105306730224,0.08300683138105455 l -3.0937937781658897 29.84729126825827" fill="#dbff1b" stroke="none" /><path d="M 102.16513564639614 79.11191278185805 l 3.2036998381760835 -30.90760699079349 a52.07320167846365,52.07320167846365 0 0,0 0.8907822808455906,0.10008976835639495 l -3.7352488225313993 30.847881268966493" fill="#ccff1d" stroke="none" /><path d="M 102.52436894288641 79.15227682838746 l 3.9511056000636695 -32.630553471217404 a53.868894951014596,53.868894951014596 0 0,0 0.9195812110236564,0.11938803334834236 l -4.512201539595172 32.557707114704925" fill="#b3ff20" stroke="none" /><path d="M 102.88285421437855 79.19881850522331 l 4.29320296225696 -30.977526912879487 a52.27361132509811,52.27361132509811 0 0,0 0.8902221388033811,0.13119560236468147 l -4.825794081488997 30.899036826353836" fill="#c9ff1d" stroke="none" /><path d="M 103.2404852339499 79.25152402106235 l 5.324382230890093 -34.09144274533465 a55.50471728038137,55.50471728038137 0 0,0 0.9427100750205198,0.15555523983000172 l -5.910421512049488 33.99474124256503" fill="#9dff22" stroke="none" /><path d="M 103.95276090670814 79.375362276772 l 5.8367697235787475 -30.454981685945498 a52.00925330118997,52.00925330118997 0 0,0 0.8778012565940251,0.17607867414728573 l -6.360137389639898 30.349999055721003" fill="#cdff1d" stroke="none" /><path d="M 104.66035177308747 79.52364482259891 l 7.608809132458961 -33.43109830742778 a55.28603666881157,55.28603666881157 0 0,0 0.9261103877052029,0.21918040734325694 l -8.183143207126689 33.295171987943654" fill="#a0ff22" stroke="none" /><path d="M 105.01212808612495 79.60689891045804 l 7.316710385415896 -29.769872590795575 a51.65582432322208,51.65582432322208 0 0,0 0.8616464813367893,0.2196528734519548 l -7.82806575543771 29.63951672117475" fill="#d2ff1c" stroke="none" /><path d="M 105.36241919743992 79.69619591428918 l 8.172150149150491 -30.94232835556361 a53.00330798720308,53.00330798720308 0 0,0 0.8801126368220695,0.24056803009093647 l -8.703560675196272 30.797073784646383" fill="#bfff1e" stroke="none" /><path d="M 108.43124777332544 80.76684994638697 l 18.35956373083771 -41.88137434072815 a66.72879942721976,66.72879942721976 0 0,0 1.048016726873369,0.4702145563937456 l -19.077762576177857 41.55913945381787" fill="#33ff53" stroke="none" /><path d="M 109.08828744355905 81.06846463323043 l 13.146754415404777 -27.385604572823965 a51.37776307561243,51.37776307561243 0 0,0 0.7939790645127011,0.389602078743164 l -13.616204746927911 27.15524733394597" fill="#d6ff1c" stroke="none" /><path d="M 109.41281617654863 81.2277094730956 l 13.074924522889257 -26.075754286218434 a50.17016648691759,50.17016648691759 0 0,0 0.7686535668138962,0.3937342115885859 l -13.521838577291907 25.846827549317346" fill="#e7ff1a" stroke="none" /><path d="M 110.36928655335952 81.73862282372117 l 28.192986759059416 -49.6507413777871 a78.09676542292391,78.09676542292391 0 0,0 1.1632820670561603,0.6738480579008734 l -29.043465558580905 49.158089162496175" fill="#44ffe8" stroke="none" /><line stroke="#e1ed5e" stroke-width="0.3" x1="143.23703022742887" x2="145.7803849466894" y1="26.81831364943548" y2="22.513508569990506" /><path d="M 143.74570117128098 25.957352633546492 a86.0,86.0 0 0,1 28.547481713284135,27.462654790039103" fill="none" id="id98" stroke="none" /><text fill="#e1ed5e" style="font-size:6.75px; font-family:Arial;" text-anchor="middle"><textPath startOffset="19.985693538727396" xlink:href="#id98">February</textPath></text><path d="M 111.60114157652 82.49532879139004 l 19.166660053940273 -28.920092061497332 a55.69484950923971,55.69484950923971 0 0,0 0.7945674027953492,0.5364954572398787 l -19.661632151142165 28.585884691958785" fill="#9aff22" stroke="none" /><path d="M 111.90073688211348 82.69761687909136 l 16.360264047166133 -23.78605285599967 a49.869266533138784,49.869266533138784 0 0,0 0.7030827101078845,0.49255436948658027 l -16.76727789685767 23.500913643749158" fill="#ebff1a" stroke="none" /><path d="M 113.34407831869373 83.78471172551755 l 19.250767061235532 -23.392903574729843 a51.29554373340342,51.29554373340342 0 0,0 0.6769606349188922,0.566935063398936 l -19.650585233113542 23.058067353937087" fill="#d7ff1c" stroke="none" /><path d="M 114.16331599549186 84.49514656593476 l 23.144408177372952 -25.336627151619705 a55.31629795448572,55.31629795448572 0 0,0 0.6974914093334791,0.6482422496156038 l -23.57710747050128 24.93448031592946" fill="#a0ff22" stroke="none" /><path d="M 114.68862486808459 84.99185889309783 l 24.215284176531622 -24.74203032135256 a55.62005274653567,55.62005274653567 0 0,0 0.6784698241175059,0.6755562590757452 l -24.63758980081645 24.32153821162669" fill="#9bff22" stroke="none" /><path d="M 115.19652480421416 85.50635884689758 l 23.97792051667027 -22.86887166925545 a54.13496587788543,54.13496587788543 0 0,0 0.6373301232870107,0.6798593389648252 l -24.36801796192774 22.45274291341257" fill="#afff20" stroke="none" /><path d="M 115.9244219780498 86.31012108654704 l 21.708586997093665 -18.662399663988744 a49.62774721539981,49.62774721539981 0 0,0 0.5513155572331927,0.6525837258857945 l -22.026613167813977 18.285956988473842" fill="#efff19" stroke="none" /><path d="M 116.82858285166822 87.43820079747576 l 23.02352188744938 -17.18604955831983 a49.73052139316107,49.73052139316107 0 0,0 0.5061557962337838,0.6903959372335563 l -23.31594029619679 16.78719117741478" fill="#edff19" stroke="none" /><path d="M 117.04232023915458 87.72973835380427 l 24.68100637685412 -17.770022020807225 a51.41259210252042,51.41259210252042 0 0,0 0.5109123407126936,0.7226492732340459 l -24.983231337370697 17.342546247241383" fill="#d5ff1c" stroke="none" /><path d="M 117.2510076193507 88.02491185347247 l 26.351879962968138 -18.29261758769854 a53.07867571756134,53.07867571756134 0 0,0 0.5145485605142179,0.7550365205970953 l -26.662852989151087 17.836303043831037" fill="#beff1f" stroke="none" /><path d="M 117.45458315368197 88.32363383020206 l 9.778546639400853 -6.541427553141315 a32.76478851539347,32.76478851539347 0 0,0 0.3095544896780993,0.4714727250925558 l -9.889697764436876 6.372136764071085" fill="#ff0000" stroke="none" /><path d="M 117.65298651832404 88.62581576622439 l 30.852209284057388 -19.878716388958473 a57.701800813855485,57.701800813855485 0 0,0 0.5307807411499779,0.8395676652285655 l -31.189817621453322 19.344701076015703" fill="#80ff25" stroke="none" /><line stroke="#e1ed5e" stroke-width="0.3" x1="172.23445277983987" x2="176.4835382374775" y1="55.19839476539836" y2="52.563006222186495" /><path d="M 173.08426987136738 54.67131705675599 a86.0,86.0 0 0,1 12.851231095245387,41.99856678651699" fill="none" id="id99" stroke="none" /><text fill="#e1ed5e" style="font-size:6.75px; font-family:Arial;" text-anchor="middle"><textPath startOffset="22.20632615414155" xlink:href="#id99">March</textPath></text><path d="M 117.84615892207809 88.93136811851018 l 24.668001525467723 -15.299708431916025 a50.02742457336028,50.02742457336028 0 0,0 0.4475887014172352,0.7357181396050299 l -24.92770602517118 14.872822519103915" fill="#e9ff1a" stroke="none" /><path d="M 118.21658344932153 89.55222093294921 l 27.354344900422667 -15.688570408309344 a52.53397257542664,52.53397257542664 0 0,0 0.4431424673471292,0.7883010022452493 l -27.62034500906223 15.215385896129302" fill="#c6ff1e" stroke="none" /><path d="M 118.3937258080291 89.86733742301442 l 40.210509335831524 -22.151005587506205 a66.90808327064772,66.90808327064772 0 0,0 0.5470274283041306,1.0135587455794486 l -40.58584486335412 21.455565858594298" fill="#33ff55" stroke="none" /><path d="M 118.56541770881063 90.18545643968196 l 27.301708759815863 -14.432953467411943 a51.88192751429685,51.88192751429685 0 0,0 0.4105850924927023,0.7931197120857539 l -27.546103285468682 13.960861033065845" fill="#cfff1d" stroke="none" /><path d="M 118.73160827565052 90.50648371742162 l 16.911566655523004 -8.57108642490773 a39.959551926336104,39.959551926336104 0 0,0 0.30567151923020225,0.6162151304391554 l -17.056598187706616 8.278711705969624" fill="#ff7a0b" stroke="none" /><path d="M 119.04729006885535 91.15688171328212 l 45.029796865397785 -20.90606163228976 a70.64620850288657,70.64620850288657 0 0,0 0.502589517412169,1.1073893808526183 l -45.38298869977331 20.12785024259508" fill="#39ff89" stroke="none" /><path d="M 119.47837535516314 92.15188598940014 l 14.812278894368017 -5.968077491072075 a36.969394321137585,36.969394321137585 0 0,0 0.23274249458196303,0.5923042622736608 l -14.912814938831682 5.71222422390263" fill="#ff4906" stroke="none" /><path d="M 119.61058180528143 92.48833698450437 l 29.36282021815083 -11.247173227870777 a52.44318871840419,52.44318871840419 0 0,0 0.31564659134998196,0.8457759352060853 l -29.552071398002436 10.740074155635359" fill="#c7ff1e" stroke="none" /><path d="M 119.97218684219823 93.5106431181261 l 11.436597044115052 -3.7159756375120176 a33.025149765722006,33.025149765722006 0 0,0 0.17101447308361803,0.5421626135940593 l -11.498867000966877 3.5185628574915393" fill="#ff0500" stroke="none" /><path d="M 120.53481517161879 95.60439243477599 l 30.193933363936896 -6.463203141064762 a51.87793074071725,51.87793074071725 0 0,0 0.17940056461256726,0.8748208658645935 l -30.30071322446446 5.942506619036756" fill="#cfff1d" stroke="none" /><path d="M 120.73433829027371 96.67025291283417 l 29.506392103778165 -4.7384595440123505 a50.88444702235837,50.88444702235837 0 0,0 0.13143720793157654,0.8660069776775693 l -29.583585205149042 4.229853453942699" fill="#ddff1b" stroke="none" /><path d="M 120.83666639777658 97.38593545837742 l 29.518311729934585 -3.7032205895477412 a50.749698655960266,50.749698655960266 0 0,0 0.10128104551645395,0.8677141466928256 l -29.577683128454627 3.1945627045300626" fill="#dfff1b" stroke="none" /><path d="M 120.96714384426684 98.82574320788733 l 29.716834690742413 -1.6642798482653238 a50.76340187966177,50.76340187966177 0 0,0 0.041351363807331225,0.8728619337513811 l -29.741079662783243 1.1525068078909428" fill="#deff1b" stroke="none" /><path d="M 120.98425023603335 99.18683210126433 l 32.27484529320106 -1.2506936313609334 a53.299069232093814,53.299069232093814 0 0,0 0.027635073858512604,0.9170735632389155 l -32.29159206151522 0.6949499206970188" fill="#bbff1f" stroke="none" /><line stroke="#e1ed5e" stroke-width="0.3" x1="184.98032266829074" x2="189.97916517819016" y1="98.17113171792111" y2="98.06355123074" /><path d="M 185.9800911702706 98.14961562048488 a86.0,86.0 0 0,1 -9.607161424134198,41.387399972396054" fill="none" id="id100" stroke="none" /><text fill="#e1ed5e" style="font-size:6.75px; font-family:Arial;" text-anchor="middle"><textPath startOffset="21.466115282336823" xlink:href="#id100">April</textPath></text><path d="M 120.99513854157772 99.54816195383933 l 31.490709888199355 -0.6777140717561165 a52.49800161321021,52.49800161321021 0 0,0 0.01166703808871474,0.9036249574980393 l -31.497709933405783 0.1355528561976145" fill="#c6ff1e" stroke="none" /><path d="M 120.99824983174949 100.27111621757518 l 31.790542203064394 0.41045952047523654 a52.79319189044672,52.79319189044672 0 0,0 -0.019553435103917494,0.9085712955311507 l -31.77876670527547 -0.9576206317965021" fill="#c2ff1e" stroke="none" /><path d="M 120.9764740272857 100.99374915477107 l 31.425073244368065 1.4887459129016662 a52.46031774803107,52.46031774803107 0 0,0 -0.05049592644225806,0.9016386878711993 l -31.394790967038276 -2.0294563171082887" fill="#c7ff1e" stroke="none" /><path d="M 120.89721153311464 102.0752229133903 l 30.19782386391513 2.9988314908721594 a51.346359854629824,51.346359854629824 0 0,0 -0.09491178646931019,0.878765266170526 l -30.141729775944768 -3.5181930789274767" fill="#d6ff1c" stroke="none" /><path d="M 120.8583938346157 102.4346265915055 l 28.95361854373711 3.379514750071748 a50.15018261901956,50.15018261901956 0 0,0 -0.10746107280242045,0.8565704821279615 l -28.891155961687844 -3.8774029864871045" fill="#e7ff1a" stroke="none" /><path d="M 120.81339534386255 102.79330883721812 l 35.15956459935809 4.7186689574456535 a56.47479132491685,56.47479132491685 0 0,0 -0.13759934722756098,0.9623695140277616 l -35.07313120111393 -5.323183943453824" fill="#90ff24" stroke="none" /><path d="M 120.76222939487914 103.15116336523771 l 28.96464505527282 4.396075520088453 a50.29635033850225,50.29635033850225 0 0,0 -0.13728088397299837,0.8548481955446979 l -28.88468241693853 -4.894002945326355" fill="#e5ff1a" stroke="none" /><path d="M 120.70491114924044 103.5080841355445 l 29.87827946363307 5.0623505422568 a51.30410824821686,51.30410824821686 0 0,0 -0.15502039004593965,0.8694366731377912 l -29.78671263124794 -5.575905966127809" fill="#d7ff1c" stroke="none" /><path d="M 120.5718875245553 104.21870165774334 l 36.44299835042189 7.473409397681702 a58.20139751130607,58.20139751130607 0 0,0 -0.2097078423939895,0.9796852243291841 l -36.30895646930345 -8.099608441427055" fill="#7aff26" stroke="none" /><path d="M 120.49622156327973 104.57218783832717 l 28.12934073672059 6.274943370392347 a49.820734282529294,49.820734282529294 0 0,0 -0.1939199345322976,0.8354020026089248 l -28.01716023625774 -6.758214030349837" fill="#ecff1a" stroke="none" /><path d="M 120.41448212921028 104.9243191809786 l 29.519120249715623 7.1205122486696 a51.36577275487362,51.36577275487362 0 0,0 -0.21473017525566312,0.8577403101416146 l -29.3921787601649 -7.627580398208611" fill="#d6ff1c" stroke="none" /><path d="M 120.32669344350535 105.2749913415812 l 29.955340487720846 7.7737268063799165 a51.94758879453321,51.94758879453321 0 0,0 -0.2320620587724523,0.863589249897135 l -29.817090352606616 -8.2882069894526" fill="#ceff1d" stroke="none" /><path d="M 120.23288151984713 105.62410040840565 l 16.566578280667656 4.604984197766965 a38.19469090711353,38.19469090711353 0 0,0 -0.18152911354235607,0.6319266586233196 l -16.484856530239202 -4.889468331894867" fill="#ff5d08" stroke="none" /><path d="M 119.9155931802556 106.66101706037122 l 31.556050637555785 10.554312379863525 a54.27428198551736,54.27428198551736 0 0,0 -0.3039596764509274,0.8834491001370705 l -31.369700130161625 -11.095934183089895" fill="#aeff20" stroke="none" /><path d="M 119.79798401119884 107.00284435728193 l 29.106745287819034 10.295493060422123 a51.873933967137646,51.873933967137646 0 0,0 -0.3050082062456377,0.8392515877758809 l -28.92521282056817 -10.794992445204134" fill="#cfff1d" stroke="none" /><path d="M 119.67450827220406 107.3425965602758 l 31.253223587403976 11.66381435487307 a54.35878519834329,54.35878519834329 0 0,0 -0.33470961335683813,0.8738211818352392 l -31.047819694453633 -12.200059103541452" fill="#acff20" stroke="none" /><path d="M 119.41010516605496 108.01547362559984 l 28.81513749911909 11.899315983415926 a52.17540488857068,52.17540488857068 0 0,0 -0.3499454564023423,0.8271676867184461 l -28.60604106152444 -12.393558195800535" fill="#cbff1d" stroke="none" /><path d="M 119.12269723197855 108.67885076344098 l 30.264880211171146 13.735739029896038 a54.236027152684,54.236027152684 0 0,0 -0.3931476197334587,0.8468049968516927 l -30.023957974597856 -14.254664094026563" fill="#aeff20" stroke="none" /><path d="M 118.97047184881838 109.00673069616215 l 28.932037015446106 13.736245886037315 a53.02728862868071,53.02728862868071 0 0,0 -0.39858022955184963,0.8211933284411396 l -28.69130352927954 -14.23222817044373" fill="#bfff1e" stroke="none" /><path d="M 118.81262510543309 109.33194174019688 l 30.004823352843793 14.883795423785491 a54.49353356474139,54.49353356474139 0 0,0 -0.4240669401522207,0.8367243041613678 l -29.744177742905304 -15.398073939649553" fill="#abff21" stroke="none" /><line stroke="#e1ed5e" stroke-width="0.3" x1="174.80103733775053" x2="179.2010983576182" y1="140.37084112569926" y2="142.7455964860345" /><path d="M 175.68104954172406 140.8457921977663 a86.0,86.0 0 0,1 -30.038265399797805,32.042727171017184" fill="none" id="id101" stroke="none" /><text fill="#e1ed5e" style="font-size:6.75px; font-family:Arial;" text-anchor="middle"><textPath startOffset="22.206326154141568" xlink:href="#id101">May</textPath></text><line stroke="#e1ed5e" stroke-width="0.3" x1="143.8653032363475" x2="146.44561519142675" y1="172.8068346515853" y2="177.08958963109032" /><path d="M 144.38136562736335 173.6633856474863 a86.0,86.0 0 0,1 -40.68145358897372,12.25698825130547" fill="none" id="id102" stroke="none" /><text fill="#e1ed5e" style="font-size:6.75px; font-family:Arial;" text-anchor="middle"><textPath startOffset="21.466115282336833" xlink:href="#id102">June</textPath></text><line stroke="#e1ed5e" stroke-width="0.3" x1="102.19456741930631" x2="102.32365962044197" y1="184.97166512339345" y2="189.96999836594603" /><path d="M 102.22038585953345 185.97133177190398 a86.0,86.0 0 0,1 -42.740103519485714,-10.115201625700543" fill="none" id="id103" stroke="none" /><text fill="#e1ed5e" style="font-size:6.75px; font-family:Arial;" text-anchor="middle"><textPath startOffset="22.20632615414155" xlink:href="#id103">July</textPath></text><line stroke="#e1ed5e" stroke-width="0.3" x1="58.666819895761336" x2="56.23545636021788" y1="174.27360380694188" y2="178.64263932499728" /><path d="M 58.180547188652646 175.14741091055294 a86.0,86.0 0 0,1 -31.652253787137756,-30.449443065178592" fill="none" id="id104" stroke="none" /><text fill="#e1ed5e" style="font-size:6.75px; font-family:Arial;" text-anchor="middle"><textPath startOffset="22.20632615414155" xlink:href="#id104">August</textPath></text><line stroke="#e1ed5e" stroke-width="0.3" x1="26.63291911575756" x2="22.317208475507996" y1="142.92168965132927" y2="145.44649492493687" /><path d="M 25.769776987707644 143.4266507060508 a86.0,86.0 0 0,1 -11.730757126820373,-40.83630448921669" fill="none" id="id105" stroke="none" /><text fill="#e1ed5e" style="font-size:6.75px; font-family:Arial;" text-anchor="middle"><textPath startOffset="21.46611528233685" xlink:href="#id105">September</textPath></text><line stroke="#e1ed5e" stroke-width="0.3" x1="15.007084014347285" x2="10.007500721073583" y1="101.09737516637583" y2="101.16192664675087" /><path d="M 14.007167355692545 101.11028546245083 a86.0,86.0 0 0,1 10.666146001902534,-42.60595125391555" fill="none" id="id106" stroke="none" /><text fill="#e1ed5e" style="font-size:6.75px; font-family:Arial;" text-anchor="middle"><textPath startOffset="22.20632615414155" xlink:href="#id106">October</textPath></text><line stroke="#e1ed5e" stroke-width="0.3" x1="26.266209847984243" x2="21.928928074336255" y1="57.711370442889674" y2="55.22380399835377" /><path d="M 25.398753493254645 57.213857153982495 a86.0,86.0 0 0,1 29.58750427330803,-30.492523968695096" fill="none" id="id107" stroke="none" /><text fill="#e1ed5e" style="font-size:6.75px; font-family:Arial;" text-anchor="middle"><textPath startOffset="21.46611528233685" xlink:href="#id107">November</textPath></text><line stroke="#e1ed5e" stroke-width="0.3" x1="56.762969772571076" x2="54.21961505331055" y1="26.818313649435495" y2="22.513508569990535" /><path d="M 56.25429882871897 25.957352633546506 a86.0,86.0 0 0,1 42.265352541879196,-11.944610805530505" fill="none" id="id108" stroke="none" /><text fill="#e1ed5e" style="font-size:6.75px; font-family:Arial;" text-anchor="middle"><textPath startOffset="22.20632615414155" xlink:href="#id108">December</textPath></text></svg>